<svg xmlns="http://www.w3.org/2000/svg" viewBox="0 0 64 64"><path fill="#4db7e5" d="M56.21,58H7.79a2,2,0,0,1-1.9878-1.7791L4,40H60L58.1977,56.2209A2,2,0,0,1,56.21,58Z"/><path d="M55.6667,40h0a16.8622,16.8622,0,0,1-16.759,15H5.6667l.1356,1.2208A2,2,0,0,0,7.79,58H56.21a2,2,0,0,0,1.9878-1.7792L60,40Z" opacity=".2"/><ellipse cx="52.368" cy="34" fill="#d6d6d4" rx="10" ry="7" transform="rotate(-45 52.368 34)"/><path d="M59.439,26.9289a5.53,5.53,0,0,0-3.6471-1.5366,4.96,4.96,0,0,1,.6471.5366c2.7337,2.7337,1.7839,8.1156-2.1213,12.0208a11.4035,11.4035,0,0,1-8.3739,3.658c2.8727,2.0356,7.7552.9607,11.3739-2.658C61.2229,35.0445,62.1727,29.6626,59.439,26.9289Z" opacity=".1"/><circle cx="52.368" cy="34" r="4" fill="#ffa912"/><path d="M55.1964,31.1716a3.67,3.67,0,0,0-1.2127-.7874,3.939,3.939,0,0,1-5.2316,5.2316,3.671,3.671,0,0,0,.7874,1.2126,4,4,0,0,0,5.6569-5.6568Z" opacity=".1"/><path fill="#5f9548" d="M46,29a4.9831,4.9831,0,0,0-2.0952-4.0558,4.9707,4.9707,0,0,0-6.6845-5.603,4.9834,4.9834,0,0,0-9.1294,1.7565,4.9522,4.9522,0,0,0-8.03,3.2929A5,5,0,0,0,22,34H42S46,31.4189,46,29Z"/><path d="M43.9048,24.9442A4.9754,4.9754,0,0,0,38.9763,19l-.0008.0023a4.9211,4.9211,0,0,1,1.9293,4.9418A4.9831,4.9831,0,0,1,43,28a3.6072,3.6072,0,0,1-.7545,1.9945A7.2956,7.2956,0,0,1,36.2354,33H19.0275A4.9563,4.9563,0,0,0,22,34H42s4-2.5811,4-5A4.9831,4.9831,0,0,0,43.9048,24.9442Z" opacity=".2"/><path fill="#fff" d="M18,34H44a6,6,0,0,1,6,6v0a0,0,0,0,1,0,0H18a0,0,0,0,1,0,0V34A0,0,0,0,1,18,34Z"/><path d="M45.6731,34.2412l.0248.031A2.3346,2.3346,0,0,1,43.8045,38H18v2H50A5.9989,5.9989,0,0,0,45.6731,34.2412Z" opacity=".1"/><path fill="#fff" d="M39 53H34.3193a1 1 0 0 0 0 2H39a1 1 0 0 0 0-2zM55.0859 48.0063a.9984.9984 0 0 0-1.104.8833L53.5249 53H43.6382a1 1 0 0 0 0 2h9.8867a1.9974 1.9974 0 0 0 1.9873-1.7793l.457-4.11A1 1 0 0 0 55.0859 48.0063z"/><path fill="#44546c" d="M6,6H8A1,1,0,0,1,9,7V33a0,0,0,0,1,0,0H5a0,0,0,0,1,0,0V7A1,1,0,0,1,6,6Z"/><path d="M8,6H7V21a2,2,0,0,1-2,2H5V33H9V7A1,1,0,0,0,8,6Z" opacity=".2"/><path fill="#c7ae71" d="M41 37.5859L39.5859 39A1 1 0 1 0 41 40.4141L42.4141 39A1 1 0 0 0 41 37.5859zM33 36H31a1 1 0 0 0 0 2h2a1 1 0 0 0 0-2zM27 35.5859A1 1 0 0 0 25.5859 37L27 38.4141A1 1 0 0 0 28.4141 37zM37.207 35.793a1 1 0 0 0-1.414 1.414L37 38.4141A1 1 0 0 0 38.4141 37zM45.4141 36L44 34.5859A1 1 0 0 0 42.5859 36L44 37.4141A1 1 0 0 0 45.4141 36z"/><rect width="54" height="4" x="7" y="40" fill="#348fd9" rx="1"/><path d="M60,40H58a2,2,0,0,1-2,2H7v1a1,1,0,0,0,1,1H60a1,1,0,0,0,1-1V41A1,1,0,0,0,60,40Z" opacity=".2"/><path fill="#fff" d="M18,58H11a8,8,0,0,1-8-8V26a2,2,0,0,1,2-2H24a2,2,0,0,1,2,2V50A8,8,0,0,1,18,58Z"/><path fill="#9fe4ed" d="M18,58H11a8,8,0,0,1-8-8V26a2,2,0,0,1,2-2H24a2,2,0,0,1,2,2V50A8,8,0,0,1,18,58Z" opacity=".5"/><path fill="#ffa912" d="M7,48V34H22V48a6,6,0,0,1-6,6H13A6,6,0,0,1,7,48Z"/><path d="M24,24H20v9A15,15,0,0,1,5,48H5a7.9847,7.9847,0,0,1-2-.2622V50a8,8,0,0,0,8,8h7a8,8,0,0,0,8-8V26A2,2,0,0,0,24,24Z" opacity=".1"/></svg>