<svg xmlns="http://www.w3.org/2000/svg" viewBox="0 0 64 64"><circle cx="32" cy="32" r="29" fill="#ebebeb"/><circle cx="32" cy="32" r="23" fill="#fbb540"/><path fill="#a45e14" d="M47 29a3 3 0 0 0 3 3h-5a3 3 0 0 0 0 6h-8a3 3 0 0 0 0 6h-8a3 3 0 0 0 0 6h1.779a2.977 2.977 0 0 0 2.021 4.98A23 23 0 0 0 54.2 26H50a3 3 0 0 0-3 3Z"/><path fill="#e4e4e2" d="M9 27a2.97 2.97 0 0 0 .3 1.29 22.759 22.759 0 0 1 .925-3.7A2.985 2.985 0 0 0 9 27Z"/><path fill="#aac16b" d="M25 38.37c-.078-3.34-1.417-6.192-3.293-7.538A7 7 0 1 0 10.772 37.7a3.973 3.973 0 0 0 4.418 6.244c1.069 1.9 2.663 3.1 4.419 3.057 3.091-.075 5.498-3.938 5.391-8.631Z"/><path fill="#f9f9f9" d="M45 14a2.995 2.995 0 0 0-5.8-1.064 10.012 10.012 0 1 0 4.22 3.689A2.987 2.987 0 0 0 45 14Z"/><circle cx="35" cy="22" r="5" fill="#fd9226"/><path fill="#fbb540" d="M9.3 28.29a22.86 22.86 0 0 1 .924-3.7 22.86 22.86 0 0 0-.924 3.7Z"/><path fill="#e4ac5a" d="M10.227 24.592h-.001.001z"/><circle cx="17.613" cy="25.014" r="3" fill="#e4ac5a"/><path fill="#9fb464" d="M17.613 28.014a2.982 2.982 0 0 0 2.168-.935 6.918 6.918 0 0 0-5.165-2.089v.024a3 3 0 0 0 2.997 3Z"/><path fill="#fd9226" d="m36.201 54.599 2.544-4.419-2.256-1.978-4.048 3.101 3.76 3.296z"/><path fill="#ee8a24" d="M35.15 49.228a2.748 2.748 0 0 0 .862 1.489 2.813 2.813 0 0 0 2.035.675l.7-1.212-2.258-1.98Z"/><path fill="#fd9226" d="m54 34.296-4.048 3.101-2.256-1.978L50.24 31 54 34.296z"/><path fill="#ee8a24" d="M50.647 34.022a2.783 2.783 0 0 0-1.755-.681l-1.2 2.078 2.26 1.981 1.633-1.251a2.833 2.833 0 0 0-.938-2.127Z"/><path fill="#e4ac5a" d="m30 49.28-15-15 15-.25v15.25z"/><path fill="#9fb464" d="M24.062 43.342A11.654 11.654 0 0 0 25 38.37a11.882 11.882 0 0 0-.867-4.242L15 34.28Z"/><path fill="#fbd699" d="M29 50 14 35l15-.25V50z"/><path fill="#f0cd93" d="M27.187 48.188V36.813l-11.188.186 11.188 11.189z"/><path fill="#fbd699" d="M26 53 11 38l15-.25V53z"/><path fill="#fd9226" d="M49.991 34.771a2.984 2.984 0 0 1 .461 3.979 73.449 73.449 0 0 1-9.64 11 2.984 2.984 0 0 1-4 .063 2.985 2.985 0 0 1-.07-4.426l.914-.854a55 55 0 0 0 7.215-8.23l.728-1.019a2.985 2.985 0 0 1 4.392-.513Z"/><path fill="#e4ac5a" d="M11.987 30a3 3 0 1 0 0-6 2.963 2.963 0 0 0-1.758.584A22.892 22.892 0 0 0 9.3 28.3a2.979 2.979 0 0 0 2.687 1.7Z"/><path fill="#9fb464" d="M9.145 27.874a2.991 2.991 0 1 0 5.088-2.86 7.007 7.007 0 0 0-5.088 2.86Z"/><circle cx="13" cy="28" r="3" fill="#f55648"/><path fill="#e4ac5a" d="M13.688 18.087a22.97 22.97 0 0 0-2.877 4.952 2.994 2.994 0 1 0 2.877-4.952Z"/><circle cx="19" cy="26" r="3" fill="#fd7422"/><path fill="#e4e4e2" d="M13 18a2.991 2.991 0 0 0-2.189 5.039 22.97 22.97 0 0 1 2.877-4.952A3 3 0 0 0 13 18Z"/><circle cx="14" cy="22" r="3" fill="#f55648"/></svg>