<svg xmlns="http://www.w3.org/2000/svg" viewBox="0 0 128 128"><path fill="#FFF" d="M18 55.6c-.9-3.8-1.1-7.9-.5-12.1C19.8 29.3 31.7 18.4 46 17.4c5.9-.4 11.6.9 16.4 3.4 1.9 1 4.1 1.2 6.2.6 4-1.2 8.4-1.7 12.8-1.3 17.8 1.5 31.8 16.3 32.5 34.1.7 17.8-11.8 32.9-28.5 36.2-2.3.5-4.2 1.8-5.5 3.8-6.5 10.2-18.1 16.9-31.2 16.5-18.2-.7-33.2-15.4-34.2-33.6-.3-5.9.8-11.4 3-16.4.7-1.6.9-3.4.5-5.1z"/><path d="M114 54.2c-.7-17.8-14.7-32.5-32.5-34.1-4.2-.4-8.3 0-12.1 1.1 14.8 3.9 25.9 17.3 26.5 33 .6 17.8-11.8 32.9-28.5 36.2-2.3.5-4.2 1.8-5.5 3.8-4.7 7.4-12.2 13-20.9 15.3 2.5.7 5.1 1.1 7.8 1.2 13.1.5 24.7-6.2 31.2-16.5 1.2-2 3.2-3.3 5.5-3.8 16.7-3.3 29.1-18.4 28.5-36.2z" opacity=".1"/><path fill="#F8F7FB" d="M54.2 20.8c-3.1-1.6-6.5-2.7-10.1-3.2.7-.1 1.3-.2 2-.2 5.9-.4 11.6.9 16.4 3.4h.1c-.8.2-1.5.3-2.2.6-2.1.6-4.3.4-6.2-.6zm8.4 0c3.4-.7 6.9-1 10.6-.7.4 0 .7.1 1.1.1-1.9.2-3.8.6-5.7 1.1-2 .7-4.1.5-6-.5z"/><circle cx="48.2" cy="62.7" r="18.7" fill="#FFD039"/><g opacity=".5"><path d="M58.6 62.7c0-8.9-6.2-16.3-14.5-18.2 1.3-.3 2.7-.5 4.1-.5 10.3 0 18.7 8.4 18.7 18.7 0 10.3-8.4 18.7-18.7 18.7-1.4 0-2.8-.2-4.1-.5 8.3-1.9 14.5-9.4 14.5-18.2z" opacity=".1"/></g><path fill="#454B54" d="M49.5 113.7h-1.4C28.4 113 12.1 97 11 77.3c-.3-6.2.8-12.2 3.2-17.8.4-1 .6-2.1.3-3.2-1.1-4.4-1.2-8.9-.5-13.3 2.5-15.5 15.7-27.5 31.3-28.6 6.3-.4 12.4.8 18 3.7 1.2.6 2.6.8 3.9.4 4.5-1.3 9.2-1.8 13.9-1.4 19.4 1.7 34.5 17.5 35.2 36.9.7 19-12.3 35.5-30.9 39.2-1.5.3-2.7 1.2-3.5 2.4-7 11.4-19.1 18.1-32.4 18.1zm-1.7-93.4c-.7 0-1.3 0-2 .1C32.9 21.3 22.1 31.2 20 44c-.6 3.7-.5 7.4.4 11 .6 2.3.3 4.8-.7 7-2.1 4.7-3 9.8-2.7 15 1 16.6 14.7 30 31.4 30.6 11.7.4 22.4-5.3 28.6-15.1 1.7-2.6 4.4-4.5 7.4-5.1 15.7-3.1 26.7-17.1 26.1-33.1-.6-16.4-13.4-29.8-29.7-31.2-4-.3-7.9.1-11.8 1.2-2.8.8-5.8.5-8.4-.8-4-2.1-8.3-3.2-12.8-3.2z"/><path fill="#454B54" d="M47.8 84.3c-11.9 0-21.7-9.7-21.7-21.7S35.8 41 47.8 41s21.7 9.7 21.7 21.7-9.8 21.6-21.7 21.6zm0-37.3c-8.6 0-15.7 7-15.7 15.7 0 8.6 7 15.7 15.7 15.7 8.6 0 15.7-7 15.7-15.7C63.4 54 56.4 47 47.8 47z"/><path fill="#FFF" d="M47.8 75.7c1.5 0 2.7-1.2 2.7-2.7 0-1.5-1.2-2.7-2.7-2.7-4.2 0-7.7-3.4-7.7-7.7 0-1.5-1.2-2.7-2.7-2.7-1.5 0-2.7 1.2-2.7 2.7 0 7.3 5.9 13.1 13.1 13.1z"/></svg>