<svg xmlns="http://www.w3.org/2000/svg" viewBox="0 0 512 512"><g data-name="14. Cheetah"><path fill="#d08840" d="M88 368v16l16 8v16H64l-16-64 24-40 32-48 24 8 16 32-16 8-40 64z"/><path fill="#b27239" d="M104 392v16H64l-6-24h30l16 8z"/><path fill="#d08840" d="m296 376 16 8v16h-48v-16c4.51-16.92 26.69-100.11 32-120h40c-14.5 40.58-5.38 15.05-40 112Z"/><path fill="#b27239" d="m336 264-11 30.93a122.9 122.9 0 0 1-16.22 1.07c-19.09 0-18.83 0-21.3-.06L296 264ZM312 384v16h-48v-16l2.13-8H296l16 8z"/><path d="M312 408h-48a8 8 0 0 1-8-8c0-17.77-.09-16.7.27-18.06l32-120A8 8 0 0 1 296 256h40a8 8 0 0 1 7.53 10.69L305.92 372l9.66 4.83A8 8 0 0 1 320 384v16a8 8 0 0 1-8 8zm-40-16h32v-3.06l-11.58-5.78a8 8 0 0 1-3.95-9.85L324.65 272h-22.5L272 385.05zm-168 24H64a8 8 0 0 1-7.76-6.06l-16-64a8 8 0 0 1 .9-6.06c25.65-42.75 24-40.06 24.2-40.32l32-48a8 8 0 0 1 9.19-3.15l24 8a8 8 0 0 1 4.63 4l16 32a8 8 0 0 1-3.58 10.74l-14 7L96 370.29v8.77l11.58 5.78A8 8 0 0 1 112 392v16a8 8 0 0 1-8 8zm-33.75-16H96v-3.06l-11.58-5.78A8 8 0 0 1 80 384v-16a8 8 0 0 1 1.22-4.24l40-64a8 8 0 0 1 3.2-2.92l8.85-4.42-10.94-21.88-15.06-5c-34.21 51.31-22.75 33.17-50.71 79.75z"/><path fill="#e9a648" d="m504 184-24 16-16.48-4.12a20.32 20.32 0 0 1-7.71-3.79L424 208l-52.49 42a100.45 100.45 0 0 1-62.73 22h-17.56a100.42 100.42 0 0 1-62.73-22 45.59 45.59 0 0 0-29.35-10 84.7 84.7 0 0 1-8.08 49.89L160 352l8 24 24 16v16h-40l-32-48 6.18-27.82a82.42 82.42 0 0 0-15.4-68.5c-6.61 46.59-39.29 82.21-83 91.92-14.87 3.49-25.47-13.36-16.58-25.17a16 16 0 0 1 8.38-5.74 83.14 83.14 0 0 0 57.11-57.09L80 256l3.28-36.08a88.83 88.83 0 0 1 103-79.54l91.33 15.22a82.2 82.2 0 0 0 50.3-7.56c18.75-9.39 41.08-11.76 64.08-4l64-16 40 16v16Z"/><path fill="#d08840" d="M112 241.3v24c-.39-.55-.8-1.09-1.22-1.63-6.7 47.27-40 82.36-83 91.92a16 16 0 0 1-14.36-27.54 16 16 0 0 0 14 3.62c47.44-11.15 77.12-48.25 83.32-92 .46.55.87 1.09 1.26 1.63ZM192 392v16h-40l-16-24h44l12 8zM480 176l-16.48-4.12a20.32 20.32 0 0 1-7.71-3.79L424 184l-52.49 42a100.45 100.45 0 0 1-62.73 22h-17.56a100.42 100.42 0 0 1-62.73-22 45.59 45.59 0 0 0-29.35-10 83.91 83.91 0 0 1 0 24 45.6 45.6 0 0 1 29.35 10 100.42 100.42 0 0 0 62.73 22h17.56a100.45 100.45 0 0 0 62.73-22L424 208l31.81-15.91a20.32 20.32 0 0 0 7.71 3.79L480 200l24-16-6.55-19.64Z"/><path d="M0 340.06A24.11 24.11 0 0 1 17.4 317 74.64 74.64 0 0 0 69 265.4l3.11-10.87 3.21-35.33a96.84 96.84 0 0 1 112.3-86.71l91.32 15.22a73.74 73.74 0 0 0 45.42-6.83 90.17 90.17 0 0 1 68-5.2l5.75-1.44a8 8 0 1 1 3.88 15.52l-8 2a8 8 0 0 1-4.47-.17c-21.06-7-40.9-4.93-58 3.6a89.64 89.64 0 0 1-55.2 8.3L185 148.27a80.82 80.82 0 0 0-93.73 72.37c-3.6 39.55-3.26 36.53-3.56 37.56l-3.31 11.6a90.59 90.59 0 0 1-62.6 62.58 8 8 0 0 0 4.26 15.41C71.78 337.63 104 296.71 104 246.69c0-18.53 3.49-29.65 8.24-48.63a8 8 0 1 1 15.52 3.88c-4.54 18.15-7.76 28.3-7.76 44.75 0 57.17-37.1 104.86-90.47 116.72A24 24 0 0 1 0 340.06zM480 208c-1.32 0-.09.22-18.42-4.36A28.45 28.45 0 0 1 440 176a8 8 0 0 1 16 0 12.47 12.47 0 0 0 9.46 12.12l13.05 3.26 16-10.65c-6.65-19.94-6.48-19-6.48-20.73v-10.58l-32.57-13-21.49 5.37a8 8 0 0 1-3.88-15.52l24-6a8 8 0 0 1 4.91.33l40 16a8 8 0 0 1 5 7.43v14.7l7.59 22.77a8 8 0 0 1-3.15 9.19l-24 16A8.06 8.06 0 0 1 480 208z"/><path d="M192 416h-40a8 8 0 0 1-6.66-3.56l-32-48a8 8 0 0 1-1.15-6.18l8.64-38.86a53.57 53.57 0 0 0-14.49-49.74 8 8 0 0 1 11.32-11.32 69.54 69.54 0 0 1 18.79 64.53l-7.9 35.53 27.73 41.6H184v-3.72l-20.44-13.62a8 8 0 0 1-3.15-4.13l-8-24a8.05 8.05 0 0 1 .43-6.11l31.06-62.11a76.75 76.75 0 0 0 0-68.62l-15.06-30.11a8 8 0 0 1 14.32-7.16l15.05 30.11a92.78 92.78 0 0 1 0 82.94l-29.57 59.14 6.08 18.26 21.72 14.47A8 8 0 0 1 200 392v16a8 8 0 0 1-8 8zm116.78-136h-17.56a107.71 107.71 0 0 1-63.94-20.86 8 8 0 0 1 9.44-12.92 91.85 91.85 0 0 0 54.5 17.78h17.56a92.76 92.76 0 0 0 57.73-20.25l52.49-42c.95-.75-1.47.54 33.42-16.91a8 8 0 1 1 7.16 14.32l-31.24 15.62-51.84 41.46A108.8 108.8 0 0 1 308.78 280z"/><path fill="#e9a648" d="M448 384v16h-48l-36.76-110.27a30.84 30.84 0 0 1 0-19.46 30.73 30.73 0 0 0-3.59-26.79l-2.48-3.73a30.74 30.74 0 0 1-5.17-17.06V184l56-16 5.87 14.69a84.23 84.23 0 0 1 0 62.62L400 280l24 88Z"/><path fill="#d08840" d="M448 384v16h-48l-8-24h44l12 8z"/><path d="M448 408h-48a8 8 0 0 1-7.59-5.47l-36.76-110.27a39.09 39.09 0 0 1 0-24.52 22.61 22.61 0 0 0-2.65-19.82l-2.49-3.73a38.65 38.65 0 0 1-6.51-21.5V184a8 8 0 0 1 16 0v38.69a22.69 22.69 0 0 0 3.82 12.62l2.49 3.73a38.53 38.53 0 0 1 4.52 33.76 23 23 0 0 0 0 14.4L405.77 392H440v-3.72l-20.44-13.62a8.07 8.07 0 0 1-3.28-4.56l-24-88a8 8 0 0 1 .29-5.07c14.71-36.77 15.38-37.82 17.06-44.52a75.93 75.93 0 0 0-3.18-46.85L400.57 171a8 8 0 1 1 14.86-6l5.87 14.69a91.74 91.74 0 0 1 3.85 56.67c-2 8-3 9.74-16.73 44.09L430.93 363l21.51 14.33A8 8 0 0 1 456 384v16a8 8 0 0 1-8 8Z"/><path fill="#e9a648" d="M432 144a24 24 0 0 1 15.1-30.7l.9-.3 16 23"/><path d="M432 152a8 8 0 0 1-7.56-5.37c-5.57-16 2-34.88 21-41.22a8 8 0 0 1 9.1 3l16 23a8 8 0 0 1-13.14 9.14l-12.14-17.46a16 16 0 0 0-5.73 18.26A8 8 0 0 1 432 152zm-112 48a8 8 0 1 1 8-8 8 8 0 0 1-8 8zm-24 32a8 8 0 1 1 8-8 8 8 0 0 1-8 8zm-80-48a8 8 0 1 1 8-8 8 8 0 0 1-8 8zm168 32a8 8 0 1 1 8-8 8 8 0 0 1-8 8zm-120-16a8 8 0 1 1 8-8 8 8 0 0 1-8 8zm-104 40a8 8 0 1 1 8-8 8 8 0 0 1-8 8zm0 40a8 8 0 1 1 8-8 8 8 0 0 1-8 8zm-8-88a8 8 0 1 1 8-8 8 8 0 0 1-8 8zm72 32a8 8 0 1 1 8-8 8 8 0 0 1-8 8z"/></g></svg>