<svg xmlns="http://www.w3.org/2000/svg" enable-background="new 0 0 68 68" viewBox="0 0 68 68"><circle cx="34" cy="34" r="31.825" fill="#108be1"/><path fill="#4db6ff" d="M6.9439597 44.4173698c-.84375 0-1.628418-.5383301-1.9023438-1.3847656-.1450195-.4475098-.2797852-.8991699-.4042969-1.3552246-.2905273-1.0656738.3378906-2.1652832 1.4033203-2.4558105 1.0688477-.2924805 2.1650386.3376465 2.4560542 1.4030762.1079102.3959961.2250977.7880859.3505859 1.1765137.340332 1.0507813-.2363281 2.1784668-1.2871089 2.5185547C7.3555808 44.3858757 7.1480613 44.4173698 6.9439597 44.4173698zM18.8946438 59.8663445c-.3686523 0-.7416992-.1018066-1.0751953-.3149414-3.7543955-2.3999023-7.0097666-5.6513672-9.4135752-9.4033203-.5957026-.9299316-.324707-2.1669922.6049805-2.7629395.9296875-.5961914 2.1669922-.3249512 2.7631836.6052246 2.09375 3.2680664 4.9292002 6.1003418 8.199708 8.1904297.9306641.5949707 1.203125 1.8317871.6079102 2.7624512C20.2003078 59.5401726 19.5543118 59.8663445 18.8946438 59.8663445z"/><path fill="#0c6bc3" d="M34.1988411,2.1800666v63.6396523c17.484375-0.1074219,31.6259804-14.3100624,31.6259804-31.819828
		S51.6832161,2.2879767,34.1988411,2.1800666z"/><path fill="#e8edf2" d="M56.8253059,34.0033073c0,12.5297852-10.1098633,22.7099609-22.6298828,22.8100586
		c-0.0700684,0.0097656-0.130127,0.0097656-0.2001953,0.0097656c-12.5998516,0-22.8198242-10.2197266-22.8198242-22.8198242
		c0-12.6103497,10.2199717-22.8300762,22.8198242-22.8300762c0.0700684,0,0.130127,0,0.2001953,0.0097656
		C46.7154427,11.2830944,56.8253059,21.4632702,56.8253059,34.0033073z"/><path fill="#c4d3e4" d="M56.8253059,34.0033073c0,12.5297852-10.1098633,22.7099609-22.6298828,22.8100586V11.1829967
		C46.7154427,11.2830944,56.8253059,21.4632702,56.8253059,34.0033073z"/><path fill="#fabb53" d="M39.365345,33.3419113c0,2.8063354-2.4021797,5.0813179-5.3654175,5.0813179
		s-5.3654194-2.2749825-5.3654194-5.0813179s2.4021797-14.5436802,5.3654194-14.5436802S39.365345,30.535574,39.365345,33.3419113z"/><path fill="#f99944" d="M33.9998665,18.7982311c-0.0031738,0-0.0063477,0.0009766-0.0095215,0.0009766v19.623045
		c0.003418,0,0.0063477,0.0009766,0.0095215,0.0009766c2.9633789,0,5.3654785-2.2749023,5.3654785-5.0810547
		C39.365345,30.5355358,36.9632454,18.7982311,33.9998665,18.7982311z"/><path fill="#454545" d="M36.1353645 11.2733288v2.6801758c0 1.1098633-.8500977 2.0195313-1.9399414 2.1196289-.0700684.0102539-.130127.0102539-.2001953.0102539-1.1799316 0-2.1298809-.9501953-2.1298809-2.1298828v-2.6801758c.6999493-.0698242 1.4101543-.1000977 2.1298809-.1000977C34.7154427 11.1732311 35.4254036 11.2035046 36.1353645 11.2733288zM16.0753078 34.0033073c0 1.1796875-.9499521 2.1298828-2.1298838 2.1298828h-2.6699219c-.0700684-.7001953-.1000977-1.4101563-.1000977-2.1298828 0-.7202148.0300293-1.4301758.1000977-2.1401348h2.6699219C15.1253557 31.8631725 16.0753078 32.8231316 16.0753078 34.0033073z"/><path fill="#2c2c2c" d="M56.8253059,34.0033073c0,0.7197266-0.0300293,1.4296875-0.1000977,2.1298828h-2.6799316
			c-1.1799316,0-2.1298828-0.9501953-2.1298828-2.1298828c0-0.5898438,0.2399902-1.1298828,0.619873-1.5102539
			c0.3901367-0.3896484,0.920166-0.6298809,1.5100098-0.6298809h2.6799316
			C56.7952766,32.5731316,56.8253059,33.2830925,56.8253059,34.0033073z"/><path fill="#454545" d="M21.3253078,21.3333874c-0.8300781,0.8300781-2.1799316,0.8300781-3.0100098,0l-1.8898926-1.8901367
			c0.9099121-1.1000977,1.9199219-2.1098633,3.0200195-3.0102539l1.8898926,1.8803711
			C22.1653957,19.1429577,22.155386,20.4930553,21.3253078,21.3333874z"/><path fill="#2c2c2c" d="M51.5753059,48.553112c-0.9099121,1.1000977-1.9199219,2.1103516-3.0200195,3.0200195l-1.8898926-1.8901367
			c-0.8300781-0.8295898-0.8300781-2.1699219,0-3.0097656c0.4199219-0.4199219,0.9699707-0.6298828,1.5100098-0.6298828
			c0.5498047,0,1.0898438,0.2099609,1.5100098,0.6201172L51.5753059,48.553112z"/><path fill="#454545" d="M21.3353176,49.6829948l-1.8898926,1.8901367c-1.1000977-0.909668-2.1101074-1.9199219-3.0200195-3.0200195
			l1.8898926-1.8896484c0.8300781-0.8300781,2.1799316-0.8203125,3.0200195,0.0097656
			C22.1653957,47.513073,22.1653957,48.853405,21.3353176,49.6829948z"/><path fill="#2c2c2c" d="M51.5753059,19.4432507l-1.8898926,1.8901367c-0.8300781,0.8300781-2.1799316,0.8300781-3.0100098,0
			c-0.4199219-0.4199219-0.630127-0.9702148-0.630127-1.5102539c0-0.5498047,0.2102051-1.0898438,0.6201172-1.5097656
			l1.8898926-1.8803711C49.6553841,17.3333874,50.6653938,18.343153,51.5753059,19.4432507z"/><path fill="#e9293a" d="M40.8753548,50.0033073c0,0.6000977-0.2399902,1.1396484-0.630127,1.5297852
		c-0.3999023,0.3999023-0.9399414,0.6401367-1.5397949,0.6401367h-9.4101543c-1.1999512,0-2.1699219-0.9697266-2.1699219-2.1699219
		c0-0.5898438,0.2399902-1.1298828,0.6398926-1.5302734c0.3901367-0.3896484,0.9301758-0.6298828,1.5300293-0.6298828h9.4101543
		C39.9053841,47.8431511,40.8753548,48.8133659,40.8753548,50.0033073z"/><path fill="#d42032" d="M40.8753548,50.0033073c0,0.6000977-0.2399902,1.1396484-0.630127,1.5297852
		c-0.3999023,0.3999023-0.9399414,0.6401367-1.5397949,0.6401367h-4.5100098v-4.3300781h4.5100098
		C39.9053841,47.8431511,40.8753548,48.8133659,40.8753548,50.0033073z"/><path fill="#2c2c2c" d="M36.1353645,11.2830944v2.6704102c0,1.1098633-0.8500977,2.0195313-1.9399414,2.1196289v-4.8901367
		C34.8453255,11.1932507,35.4952278,11.2230358,36.1353645,11.2830944z"/></svg>