<svg xmlns="http://www.w3.org/2000/svg" enable-background="new 0 0 64 64" viewBox="0 0 64 64"><path fill="#ffe691" d="M19.30074,28.85706c-2.65184-0.81445-4.68716-2.1458-6.30894-8.6945
			c-0.62483-2.52305-1.91896-3.98355-3.69544-4.37437c-2.57803-0.56717-5.66866,0.01728-7.29471,3.06789
			c-1.44824,2.71702-1.36194,5.10678-0.18084,6.97379c0.94697,1.4969,2.62597,1.7928,3.90465,2.74682
			c1.51694,1.13178,2.51152,3.00263,3.7403,4.30103c5.30085,5.60115,12.10686,5.64062,15.05655,5.59843
			C23.30821,36.51439,20.51484,30.81881,19.30074,28.85706z"/><circle cx="6.588" cy="20.44" r=".918"/><path d="M24.5137,38.47307c-2.9368,0.03663-9.74628,0-15.05078-5.59813
			c-0.312-0.33048-0.60573-0.69748-0.89936-1.08297c1.00948-0.80761,2.12908-1.92721,3.08356-3.45067
			c1.3031-2.07408,1.81709-4.14815,2.01896-5.87349c1.50509,4.58865,3.34055,5.68999,5.63487,6.38747
			C20.51241,30.81924,23.30224,36.50912,24.5137,38.47307z" opacity=".07"/><path d="M23.66724,39.40074c-3.20311,0-9.68483-0.41482-14.8683-5.89248c-0.5042-0.53284-0.96675-1.14812-1.41281-1.74258
			c-0.6769-0.90079-1.37722-1.83283-2.20946-2.45332c-0.38965-0.29072-0.84352-0.52156-1.32429-0.76542
			c-0.96588-0.49032-2.0602-1.04572-2.80739-2.22682c-1.00493-1.58897-1.79638-4.24883,0.14666-7.8954
			c1.88577-3.53635,5.52886-4.14209,8.30153-3.53288c1.51434,0.33324,3.50598,1.47963,4.39028,5.05069
			c1.5612,6.30729,3.4192,7.34086,5.68594,8.03685c0.21261,0.06508,0.39486,0.20567,0.51114,0.39486
			c0.62396,1.0084,1.60459,2.88115,2.64163,4.86325c0.9789,1.86928,1.9899,3.80277,2.58002,4.75563
			c0.17443,0.28117,0.18311,0.63351,0.02517,0.92336c-0.15881,0.28985-0.46168,0.47209-0.79145,0.4773
			C24.28252,39.39727,23.9918,39.40074,23.66724,39.40074z M7.57098,16.52075c-1.48744,0-3.53809,0.4747-4.75997,2.76747
			c-1.20887,2.26934-1.2835,4.36165-0.21435,6.05129c0.47643,0.75326,1.22275,1.1325,2.08623,1.57075
			c0.52937,0.26816,1.07522,0.54586,1.59071,0.9303c1.04398,0.7793,1.82502,1.81808,2.58002,2.82301
			c0.43478,0.57883,0.84525,1.12556,1.27829,1.5829c4.3009,4.54389,9.67616,5.22946,12.80377,5.3093
			c-0.53805-0.98063-1.17676-2.20078-1.83977-3.4678c-0.88691-1.69485-1.80159-3.44263-2.40385-4.46231
			c-3.04517-1.01795-5.02119-2.90285-6.59107-9.24225c-0.52763-2.13223-1.53777-3.37667-3.00178-3.69863
			C8.78245,16.61535,8.23225,16.52075,7.57098,16.52075z"/><path fill="#f0bd59" d="M19.9553,33.24862c-0.78147-0.10234-1.55129,0.25021-1.97839,0.9126
			c-0.74821,1.16039-1.49235,2.4707-2.17688,3.93373c-1.63787,3.50066-2.43041,6.79851-2.80472,9.52678
			c-0.16853,1.22836,0.77937,2.32264,2.01924,2.32264l5.84462,0c1.12649,0,2.03774-0.91098,2.03519-2.03746
			c-0.00228-1.0088,0.03439-2.06951,0.12229-3.17627c0.25592-3.22193,0.88574-6.07408,1.62964-8.48932
			c0.36891-1.19775-0.44612-2.43678-1.68878-2.59952C21.95677,33.51074,20.95604,33.37968,19.9553,33.24862z"/><path d="M20.85899,50.816h-5.84475c-0.84091,0-1.64017-0.36275-2.19211-0.99625c-0.55367-0.63524-0.80533-1.4805-0.68991-2.31707
			c0.46602-3.40184,1.4345-6.69087,2.87768-9.77682c0.64652-1.38156,1.39805-2.73883,2.23463-4.03708
			c0.60487-0.93898,1.71828-1.45706,2.82388-1.30433l3.00265,0.39312c0.85393,0.11195,1.61067,0.59272,2.07669,1.31734
			c0.45994,0.71682,0.58144,1.59331,0.3315,2.40385c-0.83571,2.71106-1.37202,5.50369-1.59418,8.30154
			c-0.08071,1.02402-0.12149,2.07061-0.11889,3.10505c0.00174,0.77757-0.2994,1.50827-0.84786,2.05846
			C22.36899,50.514,21.63742,50.816,20.85899,50.816z M19.6909,34.10359c-0.39312,0-0.76715,0.19786-0.9815,0.52937
			c-0.79319,1.2323-1.50653,2.52187-2.12008,3.83228c-1.36855,2.92628-2.28756,6.04695-2.73015,9.27523
			c-0.04686,0.34365,0.0512,0.67342,0.2777,0.93377c0.2239,0.25687,0.53544,0.3992,0.87736,0.3992h5.84475
			c0.31241,0,0.60487-0.12149,0.82442-0.34192c0.21956-0.21869,0.33932-0.51201,0.33845-0.82269
			c-0.00174-1.08303,0.04079-2.17475,0.12583-3.24737c0.23171-2.92281,0.79232-5.84214,1.66534-8.67643
			c0.0998-0.32283,0.05207-0.65954-0.13277-0.94766c-0.18745-0.29158-0.49205-0.48598-0.83658-0.5311L19.84277,34.114l0,0
			C19.79157,34.10706,19.74124,34.10359,19.6909,34.10359z"/><path fill="#f0bd59" d="M43.27676,33.24862c0.78147-0.10234,1.55129,0.25021,1.97839,0.9126
			c0.7482,1.16039,1.49235,2.4707,2.17688,3.93373c1.63787,3.50066,2.4304,6.79851,2.80471,9.52678
			c0.16853,1.22836-0.77937,2.32264-2.01923,2.32264l-5.84462,0c-1.12649,0-2.03774-0.91098-2.03519-2.03746
			c0.00228-1.0088-0.03439-2.06951-0.1223-3.17627c-0.25592-3.22193-0.88574-6.07408-1.62963-8.48932
			c-0.36891-1.19775,0.44611-2.43678,1.68878-2.59952C41.27528,33.51074,42.27602,33.37968,43.27676,33.24862z"/><path d="M48.21777,50.816h-5.84562c-0.7793,0-1.51-0.302-2.0602-0.85393c-0.54672-0.5502-0.84872-1.2809-0.84525-2.05846
			c0.00174-1.03617-0.03992-2.08102-0.12149-3.10331c-0.22042-2.79784-0.75674-5.59048-1.59331-8.30154
			c-0.24993-0.81227-0.12844-1.68703,0.33324-2.40385c0.46515-0.72549,1.22189-1.2054,2.07582-1.31734l3.00265-0.39312
			c1.09692-0.15273,2.21814,0.36535,2.82388,1.30433c0.83657,1.29826,1.5881,2.65726,2.23376,4.03708
			c1.44578,3.08769,2.41426,6.37845,2.87941,9.77856c0.11455,0.83657-0.13712,1.68009-0.69252,2.31533
			C49.85621,50.45325,49.05782,50.816,48.21777,50.816z M43.38924,34.114l-3.00091,0.39225
			c-0.34539,0.04512-0.64913,0.23778-0.83658,0.5311c-0.18571,0.28812-0.23257,0.62483-0.13364,0.94766
			c0.87302,2.83255,1.43363,5.75189,1.66621,8.67643c0.08504,1.06915,0.1267,2.1626,0.12497,3.24737
			c0,0.31068,0.11976,0.604,0.33845,0.82269c0.21869,0.22042,0.51201,0.34192,0.82442,0.34192h5.84562
			c0.34192,0,0.6526-0.14232,0.8765-0.3992c0.22737-0.25861,0.32456-0.59011,0.2777-0.93377
			c-0.44085-3.22654-1.359-6.34721-2.73015-9.27523c-0.61268-1.3104-1.32429-2.59824-2.11921-3.83228
			C44.27962,34.2598,43.8353,34.04978,43.38924,34.114L43.38924,34.114z M43.27642,33.24879h0.01736H43.27642z"/><path fill="#ffe691" d="M54.39136,33.91656c0.87336,0.43004,2.14477,0.90197,3.68471,0.90726
			c2.72327,0.00938,4.59308-1.44634,4.98996-0.92847c0.31599,0.41231-0.60656,1.67804-1.28264,2.40239
			c-2.08913,2.23827-4.91164,2.64315-5.64759,2.73841c-2.93796,0.38028-5.24496-0.63507-6.20712-1.1311
			C51.41624,36.57556,52.90381,35.24604,54.39136,33.91656z"/><path d="M54.82706,39.99259c-2.23376,0-4.0718-0.68037-5.29715-1.31387c-0.25514-0.13191-0.4287-0.3801-0.46515-0.66475
			s0.06942-0.56755,0.28291-0.75847l4.46231-3.98935c0.26555-0.23865,0.65086-0.28985,0.96675-0.13191
			c1.09345,0.53891,2.20425,0.81488,3.30291,0.81835c0.00694,0,0.01389,0,0.02083,0c1.33297,0,2.4646-0.3992,3.2925-0.68991
			c0.92336-0.32543,1.79812-0.63437,2.36567,0.1024c0.72723,0.95026-0.3263,2.44291-1.33817,3.52768
			c-1.51174,1.61935-3.70384,2.6885-6.17191,3.00785C55.7591,39.96482,55.28527,39.99259,54.82706,39.99259z M51.51895,37.65296
			c1.19238,0.43738,2.73189,0.74285,4.5057,0.51896c2.06714-0.26902,3.88609-1.14552,5.12185-2.46981
			c0.22564-0.24125,0.42523-0.48771,0.59359-0.71334c-0.88691,0.30894-2.14524,0.7064-3.63963,0.7064
			c-0.00868,0-0.01736,0-0.02777,0c-1.18023-0.00347-2.36393-0.25514-3.52507-0.74806L51.51895,37.65296z"/><path fill="#cf9673" d="M16.22042,29.41329c0.38573-2.96743,8.70034-3.84807,19.1885-3.84807s18.80273,0.88064,19.18846,3.84807
			c0.97965,7.6148-0.87786,14.15269-19.18846,14.15269S15.24081,37.0281,16.22042,29.41329z"/><path d="M35.4088,44.43755c-9.11034,0-14.9655-1.62108-17.90132-4.95871c-2.67635-3.04256-2.55572-7.03712-2.15132-10.17689
			c0-0.00087,0-0.00087,0-0.00087c0.41395-3.18662,6.59801-4.60811,20.05264-4.60811c13.4529,0,19.63869,1.42148,20.05351,4.60724
			c0.4044,3.1415,0.52416,7.13606-2.15219,10.17862C50.37516,42.81647,44.51914,44.43755,35.4088,44.43755z M17.08485,29.52499
			c-0.53024,4.12387,0.00434,6.83839,1.73216,8.8014c2.58436,2.94016,8.01168,4.36859,16.59179,4.36859
			c8.57924,0,14.00656-1.42843,16.59266-4.36686c1.72696-1.96474,2.26153-4.681,1.73216-8.804
			c-0.12149-0.92683-2.14872-3.08682-18.32482-3.08682S17.20548,28.59642,17.08485,29.52499L17.08485,29.52499z"/><path fill="#ffe691" d="M47.36533,33.24862c0.78147-0.10234,1.5513,0.25021,1.97839,0.9126
			c0.74821,1.16039,1.49236,2.4707,2.17688,3.93373c1.63787,3.50066,2.4304,6.79851,2.80472,9.52678
			c0.16853,1.22836-0.77937,2.32264-2.01924,2.32264l-5.84462,0c-1.12648,0-2.03774-0.91098-2.03519-2.03746
			c0.00229-1.0088-0.03439-2.06951-0.12229-3.17627c-0.25592-3.22193-0.88574-6.07408-1.62964-8.48932
			c-0.36891-1.19775,0.44612-2.43678,1.68879-2.59952C45.36386,33.51074,46.3646,33.37968,47.36533,33.24862z"/><path d="M52.30577,49.94588h-1.90048c0.0697-2.56302-0.15686-5.84084-1.13333-9.53709
			c-0.7497-2.82449-1.77831-5.19564-2.73722-7.06121c0.27892-0.0349,0.55783-0.06981,0.83685-0.10461
			c0.76715-0.10461,1.55175,0.26146,1.97018,0.92401c0.7497,1.15078,1.4994,2.45842,2.17939,3.92291
			c1.63891,3.50448,2.42351,6.79976,2.80704,9.53709C54.50251,48.84745,53.5436,49.94588,52.30577,49.94588z" opacity=".07"/><path d="M52.30692,50.816h-5.84561c-0.77757,0-1.51-0.302-2.05846-0.8522c-0.54846-0.5502-0.85046-1.2809-0.84872-2.05846
			c0.00347-1.03096-0.03645-2.07582-0.11976-3.10505c-0.22042-2.79784-0.75674-5.59048-1.59331-8.30154
			c-0.24993-0.81227-0.12844-1.68703,0.33324-2.40385c0.46515-0.72549,1.22189-1.2054,2.07582-1.31734l3.00265-0.39312
			c1.10039-0.15273,2.21814,0.36535,2.82388,1.30433c0.83657,1.29826,1.5881,2.65726,2.23376,4.03708
			c1.44231,3.08249,2.4108,6.37151,2.87942,9.77856c0.11455,0.83657-0.13712,1.68009-0.69252,2.31533
			C53.94536,50.45325,53.14697,50.816,52.30692,50.816z M47.63113,34.10359c-0.05033,0-0.10241,0.00347-0.15274,0.01041l0,0
			l-3.00091,0.39225c-0.34539,0.04512-0.64912,0.23778-0.83657,0.5311c-0.18571,0.28812-0.23257,0.62483-0.13364,0.94766
			c0.87302,2.83255,1.43364,5.75189,1.66621,8.67643c0.08504,1.07783,0.1267,2.17128,0.12323,3.2491
			c0,0.30894,0.11976,0.60226,0.34018,0.82096c0.21869,0.22042,0.51201,0.34192,0.82442,0.34192h5.84561
			c0.34192,0,0.6526-0.14232,0.8765-0.3992c0.22737-0.25861,0.32457-0.59011,0.2777-0.93377
			c-0.44432-3.23175-1.36247-6.35242-2.73015-9.27523c-0.61268-1.3104-1.32429-2.59824-2.11921-3.83228
			C48.39654,34.30145,48.02338,34.10359,47.63113,34.10359z M47.36558,33.24879h0.01736H47.36558z"/><g><path fill="#ffe691" d="M24.04388,33.24862c-0.78147-0.10234-1.55129,0.25021-1.97839,0.9126
			c-0.74821,1.16039-1.49235,2.4707-2.17688,3.93373c-1.63787,3.50066-2.4304,6.79851-2.80472,9.52678
			c-0.16853,1.22836,0.77937,2.32264,2.01924,2.32264l5.84462,0c1.12649,0,2.03774-0.91098,2.03519-2.03746
			c-0.00228-1.0088,0.03439-2.06951,0.12229-3.17627c0.25592-3.22193,0.88574-6.07408,1.62964-8.48932
			c0.36891-1.19775-0.44612-2.43678-1.68878-2.59952C26.04535,33.51074,25.04462,33.37968,24.04388,33.24862z"/><path d="M28.73341,36.24176c-0.7497,2.40606-1.37734,5.26545-1.62146,8.49091
			c-0.08715,1.09842-0.13951,2.16205-0.12206,3.17321c0,1.13333-0.92411,2.03999-2.03988,2.03999h-2.52812
			c0.31382-2.91175,0.85431-6.20702,1.76097-9.7812c0.62764-2.40606,1.32509-4.62025,2.07479-6.62534
			c0.26146,0.0349,0.52303,0.0697,0.7845,0.10461C28.28008,33.80091,29.09959,35.03873,28.73341,36.24176z" opacity=".07"/><path d="M24.94814,50.816h-5.84475c-0.84091,0-1.63931-0.36275-2.1921-0.99625c-0.55367-0.63524-0.80533-1.47876-0.69078-2.31533
			c0.46602-3.40358,1.43537-6.69434,2.87855-9.77856c0.64826-1.38503,1.39979-2.7423,2.23376-4.03708
			c0.60574-0.93898,1.70873-1.45706,2.82474-1.30433l3.00265,0.39312c0.85393,0.11195,1.61067,0.59272,2.07668,1.31734
			c0.45994,0.71855,0.58057,1.59331,0.33151,2.40385c-0.83484,2.70759-1.37115,5.50023-1.59418,8.30154
			c-0.08158,1.02576-0.12236,2.07061-0.11889,3.10505c0.00174,0.77757-0.2994,1.50827-0.84786,2.05846
			C26.45814,50.514,25.72657,50.816,24.94814,50.816z M23.77919,34.10359c-0.39312,0-0.76715,0.19786-0.9815,0.52937
			c-0.79145,1.22883-1.5048,2.5184-2.11921,3.83228c-1.36941,2.92628-2.28843,6.04695-2.73102,9.27523
			c-0.04686,0.34365,0.05207,0.67516,0.2777,0.93377c0.22477,0.25687,0.53631,0.3992,0.87823,0.3992h5.84475
			c0.31241,0,0.60487-0.12149,0.82442-0.34192c0.21956-0.21869,0.33932-0.51201,0.33845-0.82269
			c-0.0026-1.0813,0.03992-2.17301,0.12583-3.24737c0.23257-2.92801,0.79318-5.84735,1.66534-8.67643
			c0.0998-0.32283,0.05207-0.65954-0.13278-0.94766c-0.18745-0.29158-0.49292-0.48598-0.83657-0.5311L23.93106,34.114
			c-0.00087,0-0.00087,0-0.00087,0C23.87985,34.10706,23.82952,34.10359,23.77919,34.10359z"/></g><g><path fill="#ad6340" d="M55.81511,33.30988c-0.41021,4.03698-9.25249,5.23502-20.40625,5.23502s-19.996-1.19804-20.40621-5.23502
			c-1.04182-10.35941,9.25245-19.25375,20.40621-19.25375S56.85689,22.95047,55.81511,33.30988z"/><path fill="#fff" d="M28.28553,17.15662c0.9526-0.42406,1.96155-0.23608,2.25354,0.41985
			c0.29199,0.65593-0.24354,1.53144-1.19614,1.95549c-0.9526,0.42406-1.96155,0.23608-2.25354-0.41985
			C26.7974,18.45618,27.33293,17.58067,28.28553,17.15662z M24.9201,20.5256c0.224,0.33009,0.71604,0.38701,1.09899,0.12714
			s0.5118-0.73813,0.28779-1.06823s-0.71604-0.38701-1.09899-0.12714S24.6961,20.19551,24.9201,20.5256z" enable-background="new" opacity=".4"/><path d="M55.81015,33.31267c-0.36607,3.64399-7.6017,4.96908-17.22583,5.19564
			c4.51564-4.21928,9.36267-11.87333,5.07358-22.8051C51.10274,18.73691,56.59475,25.62382,55.81015,33.31267z" opacity=".07"/><path d="M35.4088,39.41636c-14.09681,0-20.85624-1.91267-21.27279-6.01918c-0.45821-4.55344,1.15159-9.12075,4.53347-12.85931
			C22.83414,15.93324,29.09109,13.184,35.4088,13.184s12.5764,2.74924,16.74018,7.35475
			c3.38101,3.73855,4.99168,8.30587,4.53347,12.85844l0,0C56.2659,37.50369,49.50561,39.41636,35.4088,39.41636z M35.4088,14.92831
			c-5.8326,0-11.60705,2.53402-15.44627,6.77852c-3.0469,3.36886-4.5005,7.45888-4.09262,11.51506
			c0.16922,1.66273,2.93148,4.4519,19.53889,4.4519c16.6048,0,19.36967-2.78917,19.53802-4.4519l0,0
			c0.40961-4.05618-1.04485-8.14446-4.09089-11.51419C47.01672,17.46234,41.24226,14.92831,35.4088,14.92831z M55.81464,33.30954
			H55.832H55.81464z"/><path d="M26.0494 39.03105c-.01736 0-.03471 0-.05207-.00174-.48077-.02777-.84699-.43912-.81922-.91989.16315-2.78048.51288-6.79848 1.2566-10.14651.10501-.46949.56842-.76194 1.04051-.66214.46949.10501.76628.57015.66214 1.04051-.56929 2.56093-.99018 5.97405-1.21841 9.86881C26.89205 38.67351 26.5076 39.03105 26.0494 39.03105zM44.77428 39.03105c-.45821 0-.84352-.35754-.86955-.82096-.23431-3.96592-.64913-7.37904-1.20106-9.86881-.10414-.47036.19092-.93637.66127-1.04051.4773-.1024.93551.19265 1.03965.66214.57276 2.58002 1.00146 6.0886 1.23924 10.14651.02951.47903-.33845.89212-.81922.91989C44.80725 39.03105 44.7899 39.03105 44.77428 39.03105z"/><path d="M27.27909,29.02946c-0.20914,0-0.41829-0.07463-0.58491-0.22563c-0.35667-0.32283-0.38444-0.87389-0.06161-1.23143
			c1.31908-1.4588,2.73276-2.81259,4.20197-4.02493c1.31474-1.08564,2.70151-2.08102,4.12126-2.95752
			c0.40961-0.2508,0.94939-0.12583,1.19932,0.28464c0.2534,0.40961,0.1267,0.94679-0.28291,1.19932
			c-1.35379,0.83484-2.67461,1.7825-3.92774,2.8178c-1.40413,1.1594-2.75619,2.45419-4.01886,3.8505
			C27.75379,28.93227,27.51687,29.02946,27.27909,29.02946z"/><path d="M43.54892,29.02946c-0.23778,0-0.47383-0.09719-0.64566-0.28725c-1.26875-1.39979-2.62081-2.69544-4.01973-3.84963
			c-1.25834-1.03964-2.58089-1.98817-3.92774-2.81867c-0.40961-0.25253-0.53631-0.78971-0.28291-1.19932
			c0.24993-0.41048,0.79145-0.53544,1.19932-0.28464c1.41454,0.87302,2.80132,1.86754,4.12213,2.95752
			c1.46314,1.208,2.87594,2.56179,4.20023,4.02493c0.32283,0.35667,0.29679,0.90774-0.06075,1.23056
			C43.96721,28.95483,43.75719,29.02946,43.54892,29.02946z"/><path d="M43.55413 29.02426c-.19613 0-.39052-.06509-.55367-.19873-.37143-.30547-.42523-.8548-.11976-1.22709 1.33644-1.62629 2.73883-3.13716 4.17073-4.49095 1.08651-1.03964 2.265-2.03156 3.59797-3.02955.38358-.28638.93203-.20914 1.22015.17617.28812.38618.21001.93204-.1753 1.22102-1.27742.9546-2.40211 1.90139-3.44176 2.8959-1.38157 1.30693-2.73362 2.764-4.02494 4.33475C44.05573 28.91491 43.80579 29.02426 43.55413 29.02426zM27.2869 29.02426c-.25167 0-.5016-.10848-.67429-.31849-1.31561-1.59852-2.63122-3.01566-4.02233-4.33127-1.10386-1.04138-2.26327-2.01681-3.44436-2.89937-.38618-.28812-.46515-.83484-.17703-1.22015.28898-.38444.83571-.46515 1.22015-.17703 1.2349.92249 2.44551 1.94131 3.59797 3.02868 1.44578 1.36768 2.80999 2.83603 4.17246 4.49182.30547.37143.25253.92075-.11976 1.22709C27.67742 28.95917 27.48129 29.02426 27.2869 29.02426zM35.41053 22.20669c-.48077 0-.87129-.39052-.87129-.87216v-7.27057c0-.48164.39052-.87216.87129-.87216s.87129.39052.87129.87216v7.27057C36.28182 21.81617 35.8913 22.20669 35.41053 22.20669z"/></g></svg>