<svg xmlns="http://www.w3.org/2000/svg" viewBox="0 0 64 64"><g data-name="12-vegan"><rect width="4" height="10" x="30" y="41" fill="#e9e6de"/><path fill="#ca8e57" d="M37,53V63H27V53a2.006,2.006,0,0,1,2-2h6A2.006,2.006,0,0,1,37,53Z"/><path fill="#e9e6de" d="M40,25V35a6,6,0,0,1-6,6H30a6,6,0,0,1-6-6V25h3v6.5a1.5,1.5,0,0,0,3,0V25h4v6.5a1.5,1.5,0,0,0,3,0V25h3Z"/><path fill="#f7fafd" d="M46,19.12v1.76a1.653,1.653,0,0,1-1.56,1.64,18.95,18.95,0,0,0-3.56.52l-.01-.05A3.994,3.994,0,0,0,37,20a3.992,3.992,0,0,0,3.87-3l.01-.04a18.163,18.163,0,0,0,3.56.52A1.653,1.653,0,0,1,46,19.12Z"/><path fill="#ace54b" d="M40,25H39a3.557,3.557,0,0,1-1.17-.23l.17-.52a9.418,9.418,0,0,1,2.88-1.21,18.95,18.95,0,0,1,3.56-.52A1.653,1.653,0,0,0,46,20.88V19.12a1.653,1.653,0,0,0-1.56-1.64,18.163,18.163,0,0,1-3.56-.52c-3.07-.79-4.63-2.32-4.77-4.11A4.992,4.992,0,0,0,37,10a3.592,3.592,0,0,0-.08-.81l.09-.01c.31,1.89,5.26,3.67,10.9,4.1A3.745,3.745,0,0,1,51,17v6a3.745,3.745,0,0,1-3.09,3.72A27.592,27.592,0,0,0,40,28.4Z"/><path fill="#416f07" d="M32,15a4.994,4.994,0,0,0,4.11-2.15c.14,1.79,1.7,3.32,4.77,4.11l-.01.04A3.992,3.992,0,0,1,37,20a3.994,3.994,0,0,1,3.87,2.99l.01.05A9.418,9.418,0,0,0,38,24.25l-.17.52A3.557,3.557,0,0,0,39,25H37v6.5a1.5,1.5,0,0,1-3,0V25H32a4.227,4.227,0,0,1-2.35-.88L31,24a4,4,0,0,0-4-4,4,4,0,0,0,4-4,3.809,3.809,0,0,0-.15-1.08l.16-.02A4.619,4.619,0,0,0,32,15Z"/><path fill="#3a6206" d="M24,30.9V35a5,5,0,0,1-5-5,4.532,4.532,0,0,1,.08-.91A4.963,4.963,0,0,0,23,31,4.712,4.712,0,0,0,24,30.9Z"/><path fill="#50761e" d="M36.11,12.85A4.994,4.994,0,0,1,32,15a4.619,4.619,0,0,1-.99-.1l-.16.02a4,4,0,0,0-3.24-2.86,4.983,4.983,0,0,0-8.52-1.15A3.9,3.9,0,0,1,19,10a5,5,0,0,1,5-5,4.925,4.925,0,0,1,1.09.13A4.993,4.993,0,0,1,35,6v.02a4.954,4.954,0,0,1,1.92,3.17A3.592,3.592,0,0,1,37,10,4.992,4.992,0,0,1,36.11,12.85Z"/><path fill="#7fb734" d="M19.08,29.09a4.888,4.888,0,0,1-1-2.26A3.813,3.813,0,0,1,17,27a3.988,3.988,0,0,1-1.9-7.5A3.988,3.988,0,0,1,17,12a4.178,4.178,0,0,1,1.33.24,4.881,4.881,0,0,1,.76-1.33,4.983,4.983,0,0,1,8.52,1.15,4,4,0,0,1,3.24,2.86A3.809,3.809,0,0,1,31,16a4,4,0,0,1-4,4,4,4,0,0,1,4,4l-1.35.12A4.227,4.227,0,0,0,32,25H30v6.5a1.5,1.5,0,0,1-3,0V25H24v5.9a4.712,4.712,0,0,1-1,.1A4.963,4.963,0,0,1,19.08,29.09Z"/><path fill="#3a6206" d="M27,31.5a1.5,1.5,0,0,0,3,0V25H27Z"/><path fill="#d0c6b8" d="M26,35V25H24V35a6,6,0,0,0,6,6h2A6,6,0,0,1,26,35Z"/><path fill="#c1f15d" d="M47.91,13.28c-5.64-.43-10.59-2.21-10.9-4.1l-.09.01A3.592,3.592,0,0,1,37,10a4.978,4.978,0,0,1-.807,2.71,29.711,29.711,0,0,0,8.717,1.7A3.34,3.34,0,0,1,48,17.51v4.995a3.34,3.34,0,0,1-3.09,3.1,38.065,38.065,0,0,0-4.91.627V28.4a27.592,27.592,0,0,1,7.91-1.68A3.745,3.745,0,0,0,51,23V17A3.745,3.745,0,0,0,47.91,13.28Z"/><path fill="#8dc736" d="M40.11,14.85A4.992,4.992,0,0,0,41,12c0-.013,0-.025,0-.037-2.275-.763-3.82-1.756-3.988-2.783l-.09.01A3.592,3.592,0,0,1,37,10a4.992,4.992,0,0,1-.89,2.85,4.214,4.214,0,0,0,2.636,3.323A4.98,4.98,0,0,0,40.11,14.85Z"/><path fill="#629026" d="M28,7a5,5,0,0,1,4.61,3.06,4,4,0,0,1,3.24,2.86c.02.067.028.137.044.205.073-.091.149-.179.216-.275A4.992,4.992,0,0,0,37,10a3.592,3.592,0,0,0-.08-.81A4.954,4.954,0,0,0,35,6.02V6a4.993,4.993,0,0,0-9.91-.87A4.925,4.925,0,0,0,24,5a5,5,0,0,0-5,5,3.9,3.9,0,0,0,.09.91A4.876,4.876,0,0,1,23.958,9.1c.046-.063.083-.132.132-.193A4.958,4.958,0,0,1,28,7Z"/><path fill="#99d83e" d="M19.1,24.5A3.988,3.988,0,0,1,21,17a4.178,4.178,0,0,1,1.33.24,4.881,4.881,0,0,1,.76-1.33A4.964,4.964,0,0,1,31,16.017L31,16a3.809,3.809,0,0,0-.15-1.08,4,4,0,0,0-3.24-2.86,4.983,4.983,0,0,0-8.52-1.15,4.881,4.881,0,0,0-.76,1.33A4.178,4.178,0,0,0,17,12a3.988,3.988,0,0,0-1.9,7.5A3.988,3.988,0,0,0,17,27c.047,0,.09-.01.136-.012A4.031,4.031,0,0,1,19.1,24.5Z"/><path fill="#3a6206" d="M34,31.5a1.5,1.5,0,0,0,3,0V25H34Z"/><path fill="#2b4805" d="M29 31.5a1.494 1.494 0 0 1-1 1.409A1.488 1.488 0 0 0 30 31.5V25H29zM36 25v6.5a1.494 1.494 0 0 1-1 1.409A1.488 1.488 0 0 0 37 31.5V25z"/><path fill="#335506" d="M32,23a4,4,0,0,0,4-4,3.809,3.809,0,0,0-.15-1.08l.16-.02A4.619,4.619,0,0,0,37,18a4.981,4.981,0,0,0,3.275-1.225c-2.659-.828-4.035-2.26-4.165-3.925A4.994,4.994,0,0,1,32,15a4.619,4.619,0,0,1-.99-.1l-.16.02A3.809,3.809,0,0,1,31,16a4,4,0,0,1-4,4,4,4,0,0,1,4,4l-1.35.12A4.227,4.227,0,0,0,32,25h3.446A3.982,3.982,0,0,0,32,23Z"/><path fill="#d0c6b8" d="M30,41V51h2V45a2,2,0,0,1,2-2V41Z"/><path fill="#9c6330" d="M33,60a2,2,0,0,1-2-2V51H29a2.006,2.006,0,0,0-2,2V63H37V60Z"/><path fill="#d0c6b8" d="M32 31V25H30v6.5A1.5 1.5 0 0 1 28.5 33H30A2 2 0 0 0 32 31zM37 33a2 2 0 0 0 2-2V25H37v6.5a1.494 1.494 0 0 1-1 1.409V33z"/><ellipse cx="23.684" cy="12.695" fill="#f7fafd" rx="1.642" ry="2.286" transform="rotate(-45.02 23.684 12.695)"/><ellipse cx="20.682" cy="14.708" fill="#f7fafd" rx=".825" ry="1.148" transform="rotate(-45.02 20.682 14.708)"/><ellipse cx="36.682" cy="36.708" fill="#f7fafd" rx=".825" ry="1.148" transform="rotate(-45.02 36.68 36.708)"/><ellipse cx="35.427" cy="53.208" fill="#f7fafd" rx=".413" ry=".574" transform="rotate(-45.02 35.427 53.208)"/></g></svg>