<svg xmlns="http://www.w3.org/2000/svg" data-name="Layer 1" viewBox="0 0 96 96"><path fill="#257d11" d="M87.85443,23c-4.78607-1.55829-11.19824,6.05457-15.37408,15.99976C72.15411,39.77667,65.29706,66.19788,65,67H80.20447c4.01-3,8.01-9.17,10.52-16.86C94.65448,38.06,93.36444,24.79,87.85443,23Z"/><polygon fill="#1e660e" points="86.214 47.228 85.821 45.267 82.467 45.938 83.974 41.039 87.26 40.218 86.775 38.278 84.661 38.807 85.973 34.542 84.061 33.954 82.786 38.099 81.849 36.693 80.185 37.803 82.027 40.566 80.55 45.366 77.724 42.541 76.31 43.955 79.821 47.465 75.107 57.834 76.928 58.662 78.506 55.189 85.159 54.238 84.876 52.258 79.489 53.027 81.716 48.128 86.214 47.228"/><path fill="#257d11" d="M58.34,34.02a6.99552,6.99552,0,0,0-9.65-9.17,6.99039,6.99039,0,0,0-13.22-.26A6.99851,6.99851,0,0,0,24.03,30a7.24007,7.24007,0,0,0,.3,2.04,7.00886,7.00886,0,0,0-4.54,2.32L17,37V71H65V40.37A6.98593,6.98593,0,0,0,58.34,34.02Z"/><path fill="#45cf25" d="M59,43a5.00181,5.00181,0,0,0-5-5,5.3874,5.3874,0,0,0-1.14.14A4.9495,4.9495,0,0,0,54,35a4.96787,4.96787,0,0,0-7.24-4.45,4.97545,4.97545,0,0,0-9.67.58A4.99721,4.99721,0,0,0,28,34a5.07972,5.07972,0,0,0,.45,2.06,4.97943,4.97943,0,0,0-.56,9.81,5.96711,5.96711,0,0,0,.6446,7.13012c.322.358,4.06646,3.72717,4.46539,3.99988H52c.32458-.34052,3.95972-3.58954,4.19757-3.99988A5.9934,5.9934,0,0,0,56.39,47.37,4.982,4.982,0,0,0,59,43Z"/><polygon fill="#257d11" points="49.676 53.612 52.222 48.799 50.454 47.863 48.972 50.665 48.538 48.844 46.593 49.308 46.917 50.669 44.804 48.843 43.495 50.356 47.712 54.001 47.852 54.589 48.276 54.488 48.332 54.536 48.399 54.458 49.798 54.124 49.676 53.612"/><polygon fill="#257d11" points="14.707 21.707 13.293 20.293 10.606 22.98 9.961 20.726 8.039 21.274 8.64 23.378 5.372 22.071 4.628 23.929 9.335 25.811 10.039 28.274 11.961 27.726 11.234 25.18 14.707 21.707"/><circle cx="42" cy="42" r="4" fill="#257d11"/><circle cx="42" cy="42" r="4" fill="#257d11"/><path fill="#7a40ff" d="M76.783,53.91876,73.61938,42.84607a5.30292,5.30292,0,0,0-10.19775,0l-3.635,12.72259a20.4435,20.4435,0,0,0-.50848,8.97724L59.52051,68h17.8128C78.63623,64.09137,77.91486,57.88031,76.783,53.91876Z"/><path fill="#f23c42" d="M44.6395,55.64734a8.63418,8.63418,0,0,0,10.48,13.6106c.62065-.38127,5.28428,3.22755,5.82516,2.68669s-3.06775-5.196-2.69539-5.82554a8.68954,8.68954,0,0,0-1.22355-10.63135,7.29956,7.29956,0,0,0-.74474-.65614l-2.37616-1.3212A8.86568,8.86568,0,0,0,44.6395,55.64734Z"/><path fill="#fa7921" d="M19.59,32.46a5.90016,5.90016,0,0,0-6.96-5.27l-3.3.62A5.9046,5.9046,0,0,0,4.74,35.2l5.45,19.36,11.29-1.3Z"/><path fill="#f23c42" d="M30,60.6728C30,65.82407,24.62742,70,18,70S6,65.82407,6,60.6728,11.37258,53,18,53,30,55.52153,30,60.6728Z"/><path fill="#1d610d" d="M24.418,53.61511,18.92969,52.041a7.56271,7.56271,0,0,0-1.207-3.25977L16.832,47.44531,15.168,48.55469l.89062,1.33593a5.58,5.58,0,0,1,.89234,2.4405L11.43756,53.8963l.54553,1.92456L17,54.39691V58h2V54.14282l4.86639,1.39575Z"/><polygon fill="#cf641b" points="5.08 36.39 10.7 35.59 10.98 37.57 5.62 38.34 5.08 36.39"/><polygon fill="#cf641b" points="20.26 39.89 15.33 40.71 15 38.74 20.08 37.89 20.26 39.89"/><polygon fill="#cf641b" points="7.3 44.29 10.6 43.47 11.08 45.4 7.84 46.21 7.3 44.29"/><path fill="#45cf25" d="M73.61938,42.84607a5.30108,5.30108,0,0,0-4.1795-3.76233,5.86736,5.86736,0,0,0-1.6264-3.20483l-.58594-.58594L65.81348,36.707l.58593.58594A3.84491,3.84491,0,0,1,67.409,39.132a5.29318,5.29318,0,0,0-3.98737,3.71405l-.74109,2.59375L67,44l2,5,2-5,3.32959,1.33185Z"/><rect width="6" height="2" x="44.772" y="55.669" fill="#c7171c"/><rect width="5" height="2" x="42" y="61" fill="#c7171c"/><rect width="6" height="2" x="52.89" y="61.552" fill="#c7171c"/><rect width="2.236" height="2" x="44.382" y="34" fill="#257d11" transform="rotate(-63.435 45.5 35)"/><rect width="2" height="2.236" x="36.5" y="33.882" fill="#257d11" transform="rotate(-26.565 37.5 35)"/><rect width="2" height="2" x="33" y="41" fill="#257d11"/><rect width="2" height="2" x="49" y="41" fill="#257d11"/><rect width="2" height="2" x="90" y="2" fill="#606060"/><rect width="2" height="2" x="90" y="6" fill="#606060"/><rect width="2" height="2" x="92" y="4" fill="#606060"/><rect width="2" height="2" x="88" y="4" fill="#606060"/><rect width="2" height="2" x="4" y="2" fill="#606060"/><rect width="2" height="2" x="4" y="6" fill="#606060"/><rect width="2" height="2" x="6" y="4" fill="#606060"/><rect width="2" height="2" x="2" y="4" fill="#606060"/><path fill="#f2d89d" d="M89,71a22.80479,22.80479,0,0,1-.8,6,19.4021,19.4021,0,0,1-.64,2A22.81843,22.81843,0,0,1,80.3,89a21.053,21.053,0,0,1-2.96,2A22.82332,22.82332,0,0,1,66,94H30a22.90107,22.90107,0,0,1-12.96-4,23.29185,23.29185,0,0,1-2.52-2A22.85024,22.85024,0,0,1,7.8,77a16.97167,16.97167,0,0,1-.44-2A22.04342,22.04342,0,0,1,7,71Z"/><polygon fill="#c7b181" points="7.8 77 31 77 31 75 7.36 75 7.8 77"/><path fill="#c7b181" d="M88.2,77a19.4021,19.4021,0,0,1-.64,2H67V77Z"/><rect width="31" height="2" x="30" y="81" fill="#c7b181"/><polygon fill="#c7b181" points="17.04 90 43 90 43 88 14.52 88 17.04 90"/><path fill="#c7b181" d="M80.3,89a21.053,21.053,0,0,1-2.96,2H61V89Z"/><path fill="#f2b11b" d="M39.5,53a2.61913,2.61913,0,0,0-1.99573,1.08551,2.39308,2.39308,0,0,0-4.00854,0A2.61913,2.61913,0,0,0,31.5,53c-1.93,0-3.5,2.69-3.5,6s1.57,9,3.5,9c.73926,0,1.42859-.84851,1.99829-2.07654C34.0658,67.15137,34.755,68,35.5,68s1.4342-.84863,2.00171-2.07654C38.07141,67.15149,38.76074,68,39.5,68c1.93,0,3.5-5.69,3.5-9S41.43,53,39.5,53Z"/><path fill="#257d11" d="M36.43377,53.93563h-2a17.44781,17.44781,0,0,0-.89746-5.52979L33.485,48.252l1.89746-.63282.05127.15381A19.45419,19.45419,0,0,1,36.43377,53.93563Z"/><path fill="#d99e18" d="M39,59c0,3.31371-1.567,9-3.5,9S32,62.31371,32,59s1.567-6,3.5-6S39,55.68629,39,59Z"/><rect width="90" height="5" x="3" y="66" fill="#c7b181"/></svg>