<svg xmlns="http://www.w3.org/2000/svg" viewBox="0 0 48 48"><g fill="#010101"><path d="m31.3 32.4-1.2-1.6c4.1-3.1 6.7-9.7 6.8-17.1h-23c.1 4.4 1 8.5 2.8 11.9l-1.8.9c-2-3.8-3-8.5-3-13.5v-1.4h27V13c0 8.4-2.9 15.8-7.6 19.4z"/><path d="M37.2 27.9c-.3 0-.5 0-.8-.1-.7-.1-1.4-.7-1.9-1.4l1.7-1c.2.3.5.5.6.5 1.4.4 3.8-2 4.7-5.1.7-2.6 0-4.7-1.8-5.1-.4-.1-1.1-.2-1.6.1l-.8-1.8c.9-.4 1.9-.4 2.9-.2 2.4.7 4.4 3.3 3.2 7.6-.9 3.2-3.6 6.5-6.2 6.5zM28.1 4.6h2V10h-2zM24.4 1h2v9h-2zM20.7 4.6h2V10h-2zM30.5 48c-.6 0-1.1-.2-1.6-.5-.9-.5-1.9-1.2-2.9-1.9-2.4-1.8-5.2-3.8-7.4-4.5-2.9-1.1-5.9-1.3-8.6-1.4-1.3-.1-2.5-.1-3.5-.3-.9-.1-1.7-.6-2.1-1.4-.5-1-.5-2.2 0-3.4 1.4-3.2 5.4-7.4 10.7-8.8 2.7-.7 5.4-.7 8.1 0 .2.1 13.4 4.3 10.3 19.6-.1 1.4-1.5 2.6-3 2.6zM19.3 27.1c-1.2 0-2.4.2-3.5.5-4.5 1.2-8.1 4.8-9.4 7.7-.4.6-.4 1.2-.2 1.6.1.2.4.4.7.4.9.2 2 .2 3.3.3 2.7.2 6 .4 9.1 1.6 2.4.8 5.3 2.9 7.8 4.8 1 .7 1.9 1.4 2.8 1.9.2.1.3.2.5.2.5 0 1.1-.5 1.3-1.2 2.7-13.6-8.4-17.1-8.9-17.3-1.1-.3-2.3-.5-3.5-.5z"/><path d="m12.79 28.068 1.303 10.419-1.984.248-1.303-10.42zM31.942 35.328l1.239 1.57-8.48 6.688-1.239-1.57z"/></g></svg>