<svg xmlns="http://www.w3.org/2000/svg" enable-background="new 0 0 68 68" viewBox="0 0 68 68"><path fill="#008732" d="M16.5463371 64.4924469H3.0201387c-.8628919 0-1.3345994-1.0060959-.7827058-1.6694183l3.5352721-4.249054c.3139839-.3773766.3139839-.9250641 0-1.3024445L2.237433 53.02248c-.5518936-.6633224-.0801861-1.6694183.7827058-1.6694183h14.5443926v12.1211891C17.5645313 64.0365829 17.1086712 64.4924469 16.5463371 64.4924469zM51.4536629 64.4924469h13.5261955c.8628922 0 1.3346024-1.0060959.7827072-1.6694183l-3.5352707-4.249054c-.3139839-.3773766-.3139839-.9250641 0-1.3024445l3.5352707-4.2490501c.5518951-.6633224.0801849-1.6694183-.7827072-1.6694183H50.4354706v12.1211891C50.4354706 64.0365829 50.8913307 64.4924469 51.4536629 64.4924469z"/><path fill="#4cc66e" d="M54.743454,60.8454399h-41.486908c-0.9355955,0-1.6940451-0.7584496-1.6940451-1.694046v-9.7512932
				c0-0.9355927,0.7584496-1.6940422,1.6940451-1.6940422h41.486908c0.9355965,0,1.694046,0.7584496,1.694046,1.6940422v9.7512932
				C56.4375,60.0869904,55.6790504,60.8454399,54.743454,60.8454399z"/><path fill="#14a142" d="M54.743454,60.8454399h-41.486908c-0.9355955,0-1.6940451-0.7584496-1.6940451-1.694046
				l43.180954-11.4453354c0.9355965,0,1.694046,0.7584496,1.694046,1.6940422v9.7512932
				C56.4375,60.0869904,55.6790504,60.8454399,54.743454,60.8454399z"/><path fill="#ffd80c" d="M58.8056107,14.1362705l-5.4262276,25.1932011L34,39.3143311H14.620616L9.1943884,14.1362705
					l13.6992159,9.3000889c1.2504635,0.8489132,2.9633865,0.3835697,3.612421-0.9813747L34,6.69489l7.4802895,15.758647
					c0.6482162,1.365591,2.3612099,1.8319759,3.6122398,0.9834785L58.8056107,14.1362705z"/><circle cx="34" cy="6.695" r="3.187" fill="#ffbe00"/><circle cx="58.806" cy="14.149" r="3.187" fill="#ffbe00"/><circle cx="9.194" cy="14.253" r="3.187" fill="#ffbe00"/><path fill="#ffbe00" d="M57.2552605,42.1667328c0,1.5654907-1.2710152,2.8372612-2.8368835,2.8372612H13.5820017
					c-1.5658693,0-2.8372622-1.2717705-2.8372622-2.8372612s1.2713928-2.8372612,2.8372622-2.8372612h40.8363762
					C55.9842453,39.3294716,57.2552605,40.6012421,57.2552605,42.1667328z"/><path fill="#ffa300" d="M57.2567291,42.164978c0,1.5635529-1.2683487,2.8425751-2.8425751,2.8425751H47.034668
					c1.5742264,0,2.8425751-1.2790222,2.8425751-2.8425751c0-1.563015-1.2683487-2.8313637-2.8425751-2.8313637h7.3794861
					C55.9883804,39.3336143,57.2567291,40.601963,57.2567291,42.164978z"/><circle cx="34" cy="30.255" r="7.243" fill="#ffbe00"/><path fill="#ffa300" d="M39.2833786,25.3182487c-1.0275993-0.5578384-2.1974564-0.8749256-3.4436531-0.8749256
					c-3.9905491,0-7.2374916,3.2472076-7.2374916,7.2487011c0,1.9132004,0.7326641,3.6400986,1.9460297,4.9303322
					c-2.2628498-1.224575-3.7935696-3.6187439-3.7935696-6.3630981c0-4.0009575,3.2469406-7.248167,7.2484341-7.248167
					C36.0911522,23.0110912,37.9715233,23.8966942,39.2833786,25.3182487z"/><path fill="#ffd80c" d="M34.5647583,26.5437107l0.7237396,1.4664555c0.0917397,0.1858807,0.2690659,0.3147163,0.4741974,0.3445244
					l1.6183319,0.235157c0.516571,0.0750618,0.7228317,0.7098789,0.349041,1.0742378l-1.1710358,1.1414757
					c-0.1484337,0.1446877-0.2161674,0.3531494-0.1811256,0.5574512l0.2764435,1.6117916
					c0.0882378,0.5144844-0.451767,0.9068222-0.9138031,0.6639137l-1.4474792-0.7609825
					c-0.1834717-0.0964584-0.4026642-0.0964584-0.5861359,0l-1.4474792,0.7609825
					c-0.4620361,0.2429085-1.0020428-0.1494293-0.9138012-0.6639137l0.2764435-1.6117916
					c0.0350399-0.2043018-0.0326939-0.4127636-0.1811275-0.5574512l-1.1710339-1.1414757
					c-0.3737946-0.3643589-0.1675301-0.999176,0.349041-1.0742378l1.61833-0.235157
					c0.2051315-0.029808,0.3824577-0.1586437,0.4741974-0.3445244l0.7237396-1.4664555
					C33.666256,26.0756187,34.333744,26.0756187,34.5647583,26.5437107z"/><path fill="#ffa300" d="M61.9926071 14.1525745c0 1.7602539-1.4299316 3.1801758-3.1899414 3.1801758-1.0498047 0-1.9899902-.5102539-2.5600586-1.300293l5.0900879-3.8198242C61.7426071 12.7424183 61.9926071 13.4225941 61.9926071 14.1525745zM37.187336 6.7020497c0 1.7602534-1.4299316 3.1801753-3.1899414 3.1801753-1.0498047 0-1.9899902-.5102539-2.5600586-1.300293l5.0900879-3.8198237C36.937336 5.2918935 37.187336 5.9720693 37.187336 6.7020497zM12.3817234 14.2600098c0 1.7602539-1.4299316 3.1801758-3.1899414 3.1801758-1.0498047 0-1.9899898-.5102539-2.5600581-1.300293l5.0900874-3.8198242C12.1317234 12.8498535 12.3817234 13.5300293 12.3817234 14.2600098z"/></svg>