<svg xmlns="http://www.w3.org/2000/svg" id="svg6485" version="1.1" viewBox="0 0 32 32"><g id="layer1" transform="translate(0 -1020.362)"><g id="g16697" transform="translate(-187.233 -211)"><path id="path6923" fill="#e4c68a" fill-opacity="1" stroke="none" stroke-dasharray="none" stroke-dashoffset="0" stroke-linecap="round" stroke-linejoin="round" stroke-miterlimit="4" stroke-opacity="1" stroke-width="1" d="m 215.33142,1251.4225 c 0.2745,-0.8266 0.41823,-1.6875 0.4184,-2.5639 l -25,0 c 0.005,3.1638 1.88143,6.1235 5.02344,8 l 14.9707,0 c 0.56384,-0.3378 1.08671,-0.7106 1.56513,-1.1131 1.64688,-1.2153 2.4767,-2.719 3.02233,-4.323 z" opacity="1" paint-order="fill markers stroke"/><path id="path6909" fill="#a5bc79" fill-opacity="1" stroke="none" stroke-dasharray="none" stroke-dashoffset="0" stroke-linecap="round" stroke-linejoin="round" stroke-miterlimit="4" stroke-opacity="1" stroke-width="1" d="m 205.47052,1237.0129 c -0.18065,0 -0.36067,0.022 -0.53515,0.068 l 0,0 c -1.06674,0.2859 -1.69979,1.3824 -1.41407,2.4492 0.005,0.021 0.0114,0.042 0.0176,0.062 -0.79412,0.4482 -1.18452,1.3768 -0.94921,2.2578 0.11741,0.4397 0.38129,0.8262 0.74804,1.0957 -0.18234,0.4152 -0.21816,0.8801 -0.10156,1.3184 0.11793,0.4399 0.38252,0.8265 0.75,1.0957 -0.1828,0.4158 -0.21862,0.8814 -0.10156,1.3203 0.23701,0.8813 1.04056,1.4904 1.95312,1.4804 0.004,0.02 0.007,0.041 0.0117,0.061 0.062,0.2277 0.16386,0.4426 0.30078,0.6348 l 3.26758,0 c 0.34178,-0.4851 0.45054,-1.0968 0.29688,-1.67 -0.006,-0.02 -0.0127,-0.04 -0.0195,-0.06 0.79497,-0.4484 1.18551,-1.3782 0.94922,-2.2598 -0.11742,-0.4397 -0.3813,-0.8262 -0.74805,-1.0957 0.18234,-0.4152 0.21816,-0.8801 0.10156,-1.3183 -0.11742,-0.4397 -0.3813,-0.8263 -0.74805,-1.0957 0.18234,-0.4153 0.21816,-0.8801 0.10156,-1.3184 -0.23701,-0.8813 -1.04056,-1.4904 -1.95312,-1.4805 -0.004,-0.022 -0.009,-0.043 -0.0137,-0.064 -0.23253,-0.8681 -1.01546,-1.4744 -1.91407,-1.4824 z" opacity="1" paint-order="fill markers stroke"/><path id="path6911" fill="#78b591" fill-opacity="1" stroke="none" stroke-dasharray="none" stroke-dashoffset="0" stroke-linecap="round" stroke-linejoin="round" stroke-miterlimit="4" stroke-opacity="1" stroke-width="1" d="m 215.03302,1239.6222 c -0.73135,-0.017 -1.41372,0.3664 -1.77929,1 -0.0101,0.019 -0.0198,0.038 -0.0293,0.057 -0.87913,-0.2455 -1.8129,0.1354 -2.26953,0.9258 -0.22776,0.3936 -0.31456,0.8531 -0.2461,1.3027 -0.42264,0.1649 -0.77664,0.4687 -1.0039,0.8613 -0.2282,0.3942 -0.31502,0.8545 -0.2461,1.3047 -0.42264,0.1649 -0.77664,0.4687 -1.0039,0.8613 -0.45555,0.7907 -0.31815,1.7895 0.33398,2.4278 -0.0113,0.017 -0.0224,0.035 -0.0332,0.053 -0.0794,0.1398 -0.14174,0.2886 -0.18554,0.4434 l 6.16991,0 c 0.0524,-0.2394 0.0603,-0.4863 0.0234,-0.7286 0.42265,-0.1649 0.77665,-0.4686 1.00391,-0.8613 0.2282,-0.3942 0.31502,-0.8544 0.24609,-1.3047 0.42337,-0.1645 0.77811,-0.4683 1.00586,-0.8613 0.45505,-0.7911 0.31684,-1.7899 -0.33593,-2.4277 0.0127,-0.018 0.025,-0.036 0.0371,-0.055 0.55114,-0.9564 0.22334,-2.1784 -0.73243,-2.7305 l -0.002,0 c -0.29022,-0.1676 -0.61797,-0.2597 -0.95308,-0.2676 z" opacity="1" paint-order="fill markers stroke"/><circle id="circle6913" cx="202.755" cy="1244.648" r="3" fill="#ffab5f" fill-opacity="1" stroke="none" stroke-dasharray="none" stroke-dashoffset="0" stroke-linecap="round" stroke-linejoin="round" stroke-miterlimit="4" stroke-opacity="1" stroke-width="1" opacity="1" paint-order="fill markers stroke"/><path id="path6915" fill="#d8332c" fill-opacity="1" stroke="none" stroke-dasharray="none" stroke-dashoffset="0" stroke-linecap="round" stroke-linejoin="round" stroke-miterlimit="4" stroke-opacity="1" stroke-width="1" d="m 193.74982,1244.8586 c -1.65685,0 -3,1.3431 -3,3 7.2e-4,0.3407 0.0595,0.6789 0.17383,1 l 5.65039,0 c 0.11498,-0.321 0.17443,-0.6591 0.17578,-1 0,-1.6569 -1.34315,-3 -3,-3 z" opacity="1" paint-order="fill markers stroke"/><path id="path6917" fill="#78b591" fill-opacity="1" stroke="none" stroke-dasharray="none" stroke-dashoffset="0" stroke-linecap="round" stroke-linejoin="round" stroke-miterlimit="4" stroke-opacity="1" stroke-width="1" d="m 195.82795,1242.966 c -0.52024,0.01 -1.01697,0.2179 -1.38477,0.5859 -0.78085,0.781 -0.78085,2.0471 0,2.8281 0.0154,0.015 0.031,0.03 0.0469,0.045 -0.46457,0.7855 -0.33842,1.786 0.30664,2.4316 l 0.002,0 9.06641,0 c 0.002,-0.5312 -0.20742,-1.0414 -0.58204,-1.418 -0.32204,-0.3221 -0.74442,-0.5247 -1.19726,-0.5742 -0.0493,-0.4509 -0.25037,-0.8717 -0.57031,-1.1933 -0.32205,-0.3222 -0.74443,-0.5248 -1.19727,-0.5743 -0.0498,-0.4512 -0.25161,-0.872 -0.57226,-1.1933 -0.64612,-0.6444 -1.64651,-0.7698 -2.43165,-0.3047 -0.0141,-0.016 -0.0284,-0.033 -0.043,-0.049 -0.38215,-0.3824 -0.90281,-0.5938 -1.44335,-0.586 z" opacity="1" paint-order="fill markers stroke"/><path id="path6919" fill="#86a151" d="m 205.45312,1238.4694 a 0.50005,0.50005 0 0 0 -0.49414,0.6368 l 2.34961,8.7695 a 0.50029069,0.50029069 0 1 0 0.9668,-0.2578 l -2.34961,-8.7715 a 0.50005,0.50005 0 0 0 -0.47266,-0.377 z" style="line-height:normal;text-indent:0;text-align:start;text-decoration-line:none;text-decoration-style:solid;text-decoration-color:#000;text-transform:none;white-space:normal;isolation:auto;mix-blend-mode:normal;solid-color:#000;solid-opacity:1" fill-opacity="1" fill-rule="nonzero" stroke="none" stroke-dasharray="none" stroke-dashoffset="0" stroke-linecap="round" stroke-linejoin="miter" stroke-miterlimit="4" stroke-opacity="1" stroke-width="1" baseline-shift="baseline" clip-rule="nonzero" color="#000" color-interpolation="sRGB" color-interpolation-filters="linearRGB" color-rendering="auto" direction="ltr" display="inline" enable-background="accumulate" font-family="sans-serif" font-size="medium" font-stretch="normal" font-style="normal" font-variant="normal" font-weight="400" image-rendering="auto" letter-spacing="normal" opacity="1" overflow="visible" shape-rendering="auto" text-anchor="start" text-decoration="none" text-rendering="auto" visibility="visible" word-spacing="normal" writing-mode="lr-tb"/><path id="path6921" fill="#ef645e" fill-opacity="1" stroke="none" stroke-dasharray="none" stroke-dashoffset="0" stroke-linecap="round" stroke-linejoin="round" stroke-miterlimit="4" stroke-opacity="1" stroke-width="1" d="m 204.41584,1243.8586 0,5 3.30078,0 c 0.22794,-0.4561 0.36719,-0.9611 0.36718,-1.5 0,-1.933 -1.64289,-3.5 -3.66796,-3.5 z" opacity="1" paint-order="fill markers stroke"/><path id="path6925" fill="#efdebb" d="m 191.25,1250.3581 a 0.50005,0.50005 0 1 0 0,1 l 7.49219,0 a 0.50005,0.50005 0 1 0 0,-1 z" style="line-height:normal;text-indent:0;text-align:start;text-decoration-line:none;text-decoration-style:solid;text-decoration-color:#000;text-transform:none;white-space:normal;isolation:auto;mix-blend-mode:normal;solid-color:#000;solid-opacity:1" fill-opacity="1" fill-rule="nonzero" stroke="none" stroke-dasharray="none" stroke-dashoffset="0" stroke-linecap="round" stroke-linejoin="miter" stroke-miterlimit="4" stroke-opacity="1" stroke-width="1" baseline-shift="baseline" clip-rule="nonzero" color="#000" color-interpolation="sRGB" color-interpolation-filters="linearRGB" color-rendering="auto" direction="ltr" display="inline" enable-background="accumulate" font-family="sans-serif" font-size="medium" font-stretch="normal" font-style="normal" font-variant="normal" font-weight="400" image-rendering="auto" letter-spacing="normal" opacity="1" overflow="visible" shape-rendering="auto" text-anchor="start" text-decoration="none" text-rendering="auto" visibility="visible" word-spacing="normal" writing-mode="lr-tb"/><rect id="rect6927" width="15" height="2" x="195.75" y="1256.858" fill="#d9ae58" fill-opacity="1" stroke="none" stroke-dasharray="none" stroke-dashoffset="0" stroke-linecap="round" stroke-linejoin="round" stroke-miterlimit="4" stroke-opacity="1" stroke-width="1" opacity="1" paint-order="fill markers stroke" rx="1" ry="1"/><path id="rect7048" fill="#bf9540" fill-opacity="1" stroke="none" stroke-dasharray="none" stroke-dashoffset="0" stroke-linecap="round" stroke-linejoin="round" stroke-miterlimit="4" stroke-opacity="1" stroke-width="1" d="m 205.92045,1256.8584 c 0.55399,0 1,0.446 1,1 0,0.554 -0.44601,1 -1,1 l 3.83008,0 c 0.55399,0 1,-0.446 1,-1 0,-0.554 -0.44601,-1 -1,-1 z" opacity="1" paint-order="fill markers stroke"/><path id="path6937" fill="#407556" d="m 215.01367,1241.0808 a 0.50005,0.50005 0 0 0 -0.4414,0.2578 l -4.14258,7.1758 a 0.50005,0.50005 0 1 0 0.86523,0.5 l 4.14453,-7.1758 a 0.50005,0.50005 0 0 0 -0.42578,-0.7578 z" style="line-height:normal;text-indent:0;text-align:start;text-decoration-line:none;text-decoration-style:solid;text-decoration-color:#000;text-transform:none;white-space:normal;isolation:auto;mix-blend-mode:normal;solid-color:#000;solid-opacity:1" fill-opacity="1" fill-rule="nonzero" stroke="none" stroke-dasharray="none" stroke-dashoffset="0" stroke-linecap="round" stroke-linejoin="miter" stroke-miterlimit="4" stroke-opacity="1" stroke-width="1" baseline-shift="baseline" clip-rule="nonzero" color="#000" color-interpolation="sRGB" color-interpolation-filters="linearRGB" color-rendering="auto" direction="ltr" display="inline" enable-background="accumulate" font-family="sans-serif" font-size="medium" font-stretch="normal" font-style="normal" font-variant="normal" font-weight="400" image-rendering="auto" letter-spacing="normal" opacity="1" overflow="visible" shape-rendering="auto" text-anchor="start" text-decoration="none" text-rendering="auto" visibility="visible" word-spacing="normal" writing-mode="lr-tb"/><path id="path6945" fill="#407556" d="m 195.82422,1244.4343 a 0.50005,0.50005 0 0 0 -0.34766,0.8574 l 3.84961,3.8496 a 0.50005,0.50005 0 1 0 0.70703,-0.707 l -3.84961,-3.8496 a 0.50005,0.50005 0 0 0 -0.35937,-0.1504 z" style="line-height:normal;text-indent:0;text-align:start;text-decoration-line:none;text-decoration-style:solid;text-decoration-color:#000;text-transform:none;white-space:normal;isolation:auto;mix-blend-mode:normal;solid-color:#000;solid-opacity:1" fill-opacity="1" fill-rule="nonzero" stroke="none" stroke-dasharray="none" stroke-dashoffset="0" stroke-linecap="round" stroke-linejoin="miter" stroke-miterlimit="4" stroke-opacity="1" stroke-width="1" baseline-shift="baseline" clip-rule="nonzero" color="#000" color-interpolation="sRGB" color-interpolation-filters="linearRGB" color-rendering="auto" direction="ltr" display="inline" enable-background="accumulate" font-family="sans-serif" font-size="medium" font-stretch="normal" font-style="normal" font-variant="normal" font-weight="400" image-rendering="auto" letter-spacing="normal" opacity="1" overflow="visible" shape-rendering="auto" text-anchor="start" text-decoration="none" text-rendering="auto" visibility="visible" word-spacing="normal" writing-mode="lr-tb"/><path id="path6949" fill="#efdebb" d="m 192.00586,1252.3581 c -0.67616,-0.01 -0.67616,1.0096 0,1 l 4.5332,0 c 0.67616,0.01 0.67616,-1.0096 0,-1 z" style="line-height:normal;text-indent:0;text-align:start;text-decoration-line:none;text-decoration-style:solid;text-decoration-color:#000;text-transform:none;white-space:normal;isolation:auto;mix-blend-mode:normal;solid-color:#000;solid-opacity:1" fill-opacity="1" fill-rule="nonzero" stroke="none" stroke-dasharray="none" stroke-dashoffset="0" stroke-linecap="round" stroke-linejoin="miter" stroke-miterlimit="4" stroke-opacity="1" stroke-width="1" baseline-shift="baseline" clip-rule="nonzero" color="#000" color-interpolation="sRGB" color-interpolation-filters="linearRGB" color-rendering="auto" direction="ltr" display="inline" enable-background="accumulate" font-family="sans-serif" font-size="medium" font-stretch="normal" font-style="normal" font-variant="normal" font-weight="400" image-rendering="auto" letter-spacing="normal" opacity="1" overflow="visible" shape-rendering="auto" text-anchor="start" text-decoration="none" text-rendering="auto" visibility="visible" word-spacing="normal" writing-mode="lr-tb"/><path id="path7043" fill="#cdaa64" fill-opacity="1" stroke="none" stroke-dasharray="none" stroke-dashoffset="0" stroke-linecap="round" stroke-linejoin="round" stroke-miterlimit="4" stroke-opacity="1" stroke-width="1" d="m 211.75053,1248.8584 c -1.7e-4,0.8764 -0.14542,1.7379 -0.41992,2.5645 -0.54563,1.604 -1.3746,3.1069 -3.02148,4.3222 -0.47842,0.4025 -1.00062,0.7755 -1.56446,1.1133 l 4,0 c 0.56384,-0.3378 1.08604,-0.7108 1.56446,-1.1133 1.64688,-1.2153 2.47585,-2.7182 3.02148,-4.3222 0.2745,-0.8266 0.41975,-1.6881 0.41992,-2.5645 z" opacity="1" paint-order="fill markers stroke"/><path id="path6953" fill="none" stroke="none" stroke-linecap="round" stroke-linejoin="miter" stroke-opacity="1" stroke-width="1" d="m 188.7427,1258.8587 29,0"/><path style="line-height:normal;text-indent:0;text-align:start;text-decoration-line:none;text-decoration-style:solid;text-decoration-color:#000;text-transform:none;white-space:normal;isolation:auto;mix-blend-mode:normal;solid-color:#000;solid-opacity:1" id="path14053" fill="#000" fill-opacity="1" fill-rule="nonzero" stroke="none" stroke-dasharray="none" stroke-dashoffset="0" stroke-linecap="round" stroke-linejoin="miter" stroke-miterlimit="4" stroke-opacity="1" stroke-width="1" d="m 204.8096,1236.5842 c -1.23399,0.3308 -1.91473,1.5574 -1.73242,2.793 -0.59876,0.4536 -0.98802,1.1174 -1.03321,1.8418 -1.07791,0.2267 -1.98511,0.9518 -2.44921,1.9492 -0.6659,-0.3653 -1.47886,-0.3753 -2.20313,-0.074 -0.45231,-0.3659 -0.98129,-0.6451 -1.56836,-0.6367 l -0.002,0 0,0 c -0.64726,0.013 -1.26816,0.2717 -1.72852,0.7324 -0.34224,0.3423 -0.55024,0.7555 -0.63672,1.1914 -1.78675,0.1541 -3.20312,1.6453 -3.20312,3.4707 5.1e-4,0.2432 0.0353,0.4819 0.0859,0.7188 -0.0566,0.084 -0.0865,0.1823 -0.0859,0.2832 0.002,1.4086 0.37282,2.7666 1.02148,4.0215 0.0555,0.1158 0.0783,0.1905 0.20313,0.3789 0.8893,1.5466 2.22746,2.9099 3.92969,3.9511 -0.0956,0.1968 -0.1543,0.4148 -0.1543,0.6465 0,0.1763 0.0367,0.3423 0.0937,0.5 l -3.30078,0 c -0.67616,-0.01 -0.67616,1.0096 0,1 l 4.70703,0 20.99219,0 c 0.0334,10e-5 0.0668,0 0.0996,-0.01 0.59202,-0.1194 0.50433,-0.9911 -0.0996,-0.9902 l -6.58594,0 c 0.057,-0.1577 0.0937,-0.3237 0.0937,-0.5 0,-0.2276 -0.0559,-0.4426 -0.14844,-0.6367 0.54637,-0.3344 1.05984,-0.6988 1.5293,-1.0938 0.54767,-0.426 -0.13254,-1.2319 -0.64453,-0.7636 -0.42649,0.3588 -0.89863,0.6874 -1.39844,0.9941 l -14.6543,0 c -1.34709,-0.8232 -2.4193,-1.8509 -3.19531,-3 -0.24041,-0.346 -0.4502,-0.6833 -0.58789,-1 l 0,0 c -0.16199,-0.3263 -0.30382,-0.6603 -0.41992,-1 -0.10836,-0.3466 -0.23072,-0.7031 -0.26953,-1 l 0,0 c -0.0665,-0.33 -0.11341,-0.6632 -0.13672,-1 l 23.84427,0 c -0.044,0.6456 -0.10599,1.2903 -0.31055,1.9063 -0.21093,0.6328 0.73829,0.9492 0.94922,0.3164 0.29077,-0.8756 0.44318,-1.7917 0.44336,-2.7227 -3e-5,-0.2761 -0.22387,-0.4999 -0.5,-0.5 l -0.50195,0 c -3.5e-4,-0.01 3.2e-4,-0.017 0,-0.025 0.36614,-0.2172 0.73571,-0.4441 0.95117,-0.8164 0.22812,-0.3941 0.25325,-0.8536 0.24609,-1.3047 0.39406,-0.2183 0.77796,-0.4681 1.00586,-0.8613 l 0.002,0 c 0.50815,-0.8834 0.34023,-1.9396 -0.26757,-2.7304 0.50806,-1.1499 0.16448,-2.5219 -0.94727,-3.1641 l -0.002,0 c -0.072,-0.041 -0.15326,-0.064 -0.23633,-0.066 -0.22666,-0.1024 -0.46415,-0.1679 -0.71094,-0.1992 -0.074,-0.044 -0.15806,-0.068 -0.24414,-0.07 l 0,0 c -0.83835,-0.019 -1.59343,0.4192 -2.07031,1.0976 -0.97326,-0.1089 -1.95135,0.2682 -2.45313,1.1367 -0.106,0.1836 -0.16572,0.3816 -0.20117,0.586 -0.15082,-0.2685 -0.36328,-0.5029 -0.58789,-0.7207 0.12336,-0.4319 0.2181,-0.8803 0.10156,-1.3184 -0.26217,-0.9749 -1.11712,-1.5946 -2.09375,-1.7344 -0.3218,-0.8608 -1.07002,-1.4378 -1.97656,-1.5625 -0.37245,-0.069 -0.56135,-0.08 -0.9574,-0.015 z m 0.66053,0.9237 0.002,0 c 0.67396,0.01 1.25536,0.4571 1.43164,1.1074 0.003,0.011 0.005,0.026 0.006,0.029 0.0438,0.2399 0.25424,0.4132 0.49805,0.4102 0.68692,-0.01 1.28643,0.446 1.46484,1.1094 l -0.002,0 c 0.0875,0.3288 0.0606,0.6766 -0.0762,0.9882 -0.0938,0.2144 -0.0265,0.4651 0.16211,0.6036 0.27504,0.202 0.47441,0.4924 0.5625,0.8222 l -0.002,0 c 0.0527,0.198 0.0542,0.4043 0.0215,0.6114 -0.0995,0.1 -0.19127,0.2069 -0.26368,0.332 -0.22818,0.3942 -0.2533,0.8535 -0.24609,1.3047 -0.34589,0.1924 -0.67899,0.4153 -0.91016,0.7324 -0.16991,-0.3192 -0.37804,-0.6145 -0.62695,-0.8769 -0.30483,-0.2989 -0.89349,-0.7367 -1.2832,-0.918 -0.0322,-0.015 -0.0611,-0.035 -0.0937,-0.049 -0.39181,-1.4044 -1.61494,-2.417 -3.06836,-2.5391 0.0466,-0.4738 0.30825,-0.9075 0.74219,-1.1523 0.20378,-0.116 0.2996,-0.358 0.23046,-0.5821 -0.006,-0.019 -0.008,-0.029 -0.008,-0.029 -0.001,-0.01 -0.003,-0.01 -0.004,-0.014 -0.21568,-0.8053 0.25384,-1.6213 1.05859,-1.8379 0.12927,-0.034 0.26562,-0.053 0.4043,-0.053 z m 5.05309,10.854 -1.23047,0 c -0.001,-0.1332 -0.0552,-0.2604 -0.15039,-0.3536 -0.49088,-0.4805 -0.59292,-1.227 -0.25,-1.8222 0.17056,-0.2933 0.43584,-0.5212 0.75195,-0.6446 0.21787,-0.085 0.34767,-0.3097 0.3125,-0.541 -0.0517,-0.3377 0.0124,-0.6828 0.1836,-0.9785 0.1705,-0.2946 0.43692,-0.5228 0.7539,-0.6465 0.21788,-0.085 0.34768,-0.3098 0.3125,-0.541 -0.0514,-0.3373 0.0128,-0.6812 0.1836,-0.9765 l 0.002,0 c 0.34374,-0.595 1.03942,-0.8802 1.70117,-0.6954 0.23072,0.065 0.47484,-0.043 0.58203,-0.2578 0.006,-0.011 0.0103,-0.021 0.0156,-0.031 0.2746,-0.4759 0.78446,-0.7627 1.33398,-0.75 l -3.8e-4,-6e-4 c 0.25126,0.01 0.49711,0.075 0.71485,0.2011 l 0.002,0 0.002,0 c 0.71934,0.4173 0.96125,1.3237 0.54688,2.045 -0.004,0.01 -0.007,0.012 -0.0117,0.018 -0.142,0.2006 -0.11716,0.4746 0.0586,0.6464 0.49089,0.4797 0.59328,1.2232 0.25196,1.8184 -0.17087,0.2948 -0.43636,0.5231 -0.75391,0.6465 -0.21787,0.085 -0.34767,0.3098 -0.3125,0.541 0.0517,0.3379 -0.0143,0.6828 -0.18555,0.9785 -0.17049,0.2946 -0.43489,0.5228 -0.75195,0.6465 -0.21788,0.085 -0.34768,0.3098 -0.3125,0.541 0.008,0.052 0.007,0.1039 0.01,0.1563 l -2.60547,0 z m -7.76403,-6.2114 c 0.91894,0 1.73027,0.4984 2.16406,1.2598 -0.16726,-0.02 -0.33146,-0.049 -0.50391,-0.049 -0.27613,0 -0.49997,0.2238 -0.5,0.5 l 0,3.5644 c -0.0833,-0.1201 -0.17479,-0.2348 -0.27929,-0.3398 -0.32258,-0.3226 -0.76044,-0.465 -1.19922,-0.5742 -0.10898,-0.4349 -0.24918,-0.8706 -0.56836,-1.1914 -0.32216,-0.3224 -0.75915,-0.4649 -1.19727,-0.5743 -0.0709,-0.2825 -0.16073,-0.5617 -0.29882,-0.8125 0.31568,-1.0498 1.27126,-1.7825 2.38281,-1.7832 z m -4.21289,6.2106 -3.49414,0 c -0.38027,-0.4818 -0.44799,-1.1402 -0.12891,-1.6796 0.11977,-0.2011 0.0841,-0.4583 -0.0859,-0.6192 -0.012,-0.011 -0.025,-0.023 -0.0371,-0.035 -0.58981,-0.5899 -0.58981,-1.5312 0,-2.1211 0.27481,-0.275 0.64654,-0.4313 1.03907,-0.4394 l -5e-5,10e-5 0.002,0 c 0.4034,-0.01 0.79015,0.153 1.07617,0.4375 0.007,0.01 0.0122,0.012 0.0254,0.027 0.15816,0.1803 0.42204,0.2229 0.62891,0.1016 0.591,-0.3501 1.33784,-0.2566 1.82422,0.2285 0.23981,0.2408 0.39044,0.5547 0.42773,0.8926 0.0253,0.2336 0.20977,0.4181 0.44336,0.4433 0.33913,0.037 0.65504,0.1887 0.89649,0.4297 0.24001,0.2412 0.39074,0.5562 0.42773,0.8945 0.0253,0.2336 0.20977,0.4181 0.44336,0.4434 0.33912,0.037 0.65504,0.1888 0.89648,0.4297 0.16062,0.1614 0.27619,0.3556 0.34961,0.5664 l -3.32031,0 z m 6.37304,-3.8024 c 1.48645,0.2557 2.66797,1.3367 2.66797,2.8027 1e-5,0.3514 -0.0869,0.6815 -0.21093,1 l -2.45704,0 z m -11.44726,0.8281 c 0.0845,0.3959 0.25624,0.7809 0.52344,1.1133 -0.25175,0.6055 -0.28403,1.2699 -0.0762,1.8613 l -2.60742,0 c -0.0343,-0.1657 -0.0582,-0.3323 -0.0586,-0.5019 0,-1.2903 0.96761,-2.3324 2.21875,-2.4727 z m 20.98047,7.3575 c -0.16468,0.012 -0.31305,0.1036 -0.39649,0.246 -0.22318,0.3652 -0.47442,0.7196 -0.75586,1.0606 -0.49383,0.5185 0.35441,1.2182 0.76954,0.6348 0.31056,-0.3764 0.59137,-0.7674 0.83984,-1.1739 0.20727,-0.3268 -0.0194,-0.7551 -0.40625,-0.7675 -0.0169,-9e-4 -0.0339,-9e-4 -0.0508,0 z m -17.69922,4.6171 13,0 c 0.28563,0 0.5,0.2143 0.5,0.5 0,0.2855 -0.21437,0.5 -0.5,0.5 l -13,0 c -0.28563,0 -0.5,-0.2145 -0.5,-0.5 0,-0.2857 0.21437,-0.5 0.5,-0.5 z m -8.05859,1 c -0.66667,0.034 -0.61589,1.0339 0.0508,1 l 0.95703,0 c 0.67575,0.012 0.67973,-1.0065 0.004,-1 l -0.004,0 -0.95703,0 c -0.0169,-8e-4 -0.0339,-8e-4 -0.0508,0 z" baseline-shift="baseline" clip-rule="nonzero" color="#000" color-interpolation="sRGB" color-interpolation-filters="linearRGB" color-rendering="auto" direction="ltr" display="inline" enable-background="accumulate" font-family="sans-serif" font-size="medium" font-stretch="normal" font-style="normal" font-variant="normal" font-weight="400" image-rendering="auto" letter-spacing="normal" opacity="1" overflow="visible" shape-rendering="auto" text-anchor="start" text-decoration="none" text-rendering="auto" visibility="visible" word-spacing="normal" writing-mode="lr-tb"/></g></g></svg>