<svg xmlns="http://www.w3.org/2000/svg" fill="none" viewBox="0 0 64 64"><path fill="#000" d="M34 17.5C34 16.3954 33.1046 15.5 32 15.5C30.8954 15.5 30 16.3954 30 17.5V32C30 32.5304 30.2107 33.0391 30.5858 33.4142L39.5858 42.4142C40.3668 43.1953 41.6332 43.1953 42.4142 42.4142C43.1953 41.6332 43.1953 40.3668 42.4142 39.5858L34 31.1716V17.5Z"/><path fill="#000" fill-rule="evenodd" d="M32 2C15.4315 2 2 15.4315 2 32C2 48.5685 15.4315 62 32 62C48.5685 62 62 48.5685 62 32C62 15.4315 48.5685 2 32 2ZM6 32C6 17.6406 17.6406 6 32 6C46.3594 6 58 17.6406 58 32C58 46.3594 46.3594 58 32 58C17.6406 58 6 46.3594 6 32Z" clip-rule="evenodd"/></svg>