<svg xmlns="http://www.w3.org/2000/svg" id="Layer_1" x="0" y="0" version="1.1" viewBox="0 0 64 64" xml:space="preserve"><path fill="#fff" d="M40.127 40.072c10.607-6.75 12.863-21.173 13.046-25.979l4.89-1.315c.326 5.854-2.61 23.342-15.308 31.424a2.447 2.447 0 0 1-3.38-.751 2.448 2.448 0 0 1 .752-3.38z"/><path fill="none" stroke="#3c0458" stroke-linecap="round" stroke-linejoin="round" stroke-miterlimit="10" stroke-width="2" d="M40.127 40.072c10.607-6.75 12.863-21.173 13.046-25.979l4.89-1.315c.326 5.854-2.61 23.342-15.308 31.424a2.447 2.447 0 0 1-3.38-.751 2.448 2.448 0 0 1 .752-3.38z"/><path fill="#fff" d="M15.313 20.134h4.104V32.01h-4.105z"/><path fill="none" stroke="#3c0458" stroke-linecap="round" stroke-linejoin="round" stroke-miterlimit="10" stroke-width="2" d="M15.313 20.134h4.104V32.01h-4.105z"/><path fill="#6acff6" d="M18.384 28.849c1.935 0 3.784.353 5.507.969l.003-.015 25.523 9.113-.001.01c4.52 1.616 7.762 5.924 7.762 11 0 6.457-5.235 11.692-11.692 11.692H18.384C9.336 61.618 2 54.282 2 45.233S9.336 28.85 18.384 28.85z"/><path fill="none" stroke="#3c0458" stroke-linecap="round" stroke-linejoin="round" stroke-miterlimit="10" stroke-width="2" d="M18.384 28.849c1.935 0 3.784.353 5.507.969l.003-.015 25.523 9.113-.001.01c4.52 1.616 7.762 5.924 7.762 11 0 6.457-5.235 11.692-11.692 11.692H18.384C9.336 61.618 2 54.282 2 45.233S9.336 28.85 18.384 28.85z"/><path fill="none" stroke="#d9f1fd" stroke-linecap="round" stroke-linejoin="round" stroke-miterlimit="10" stroke-width="2" d="M50.298 43.94a7.678 7.678 0 00-2.229-1.247l-3.225-1.152.002-.01-4.007-1.43M52.878 47.812a7.68 7.68 0 00-.562-1.408"/><circle cx="30.889" cy="45.405" r="4.889" fill="#fff"/><path fill="#fec465" d="M10.935 20.134h12.192a2.828 2.828 0 1 0 .499-5.611l-12.192-2.184a2.828 2.828 0 0 0-3.326 2.783v2.184a2.828 2.828 0 0 0 2.827 2.828z"/><path fill="none" stroke="#3c0458" stroke-linecap="round" stroke-linejoin="round" stroke-miterlimit="10" stroke-width="2" d="M10.935 20.134h12.192a2.828 2.828 0 10.499-5.611l-12.192-2.184a2.828 2.828 0 00-3.326 2.783v2.184a2.828 2.828 0 002.827 2.828zM60.655 2.382c2.175 4.446 1.368 8.783 0 9.207-.274.082-.93.273-1.834.533a398.794 398.794 0 01-10.287 2.763c-1.463.37-2.667.63-3.27.725"/><path fill="#6acff6" d="M47.946 12.382v.068c0 .876.205 1.71.588 2.435a399.08 399.08 0 0 0 10.287-2.763c-.15-2.695-2.284-4.829-4.938-5.075l-.917 3.748-5.02 1.587z"/><path fill="none" stroke="#3c0458" stroke-linecap="round" stroke-linejoin="round" stroke-miterlimit="10" stroke-width="2" d="M47.946 12.382v.068c0 .876.205 1.71.588 2.435a399.08 399.08 0 0010.287-2.763c-.15-2.695-2.284-4.829-4.938-5.075l-.917 3.748-5.02 1.587zM62 61.618H2M30.89 45.405v8.108"/><path fill="#fff" d="M35.082 55.465a1.952 1.952 0 0 1-1.952 1.952h-4.482a1.952 1.952 0 1 1 0-3.904h4.482c1.078 0 1.952.874 1.952 1.952z"/><path fill="none" stroke="#3c0458" stroke-linecap="round" stroke-linejoin="round" stroke-miterlimit="10" stroke-width="2" d="M35.082 55.465a1.952 1.952 0 0 1-1.952 1.952h-4.482a1.952 1.952 0 1 1 0-3.904h4.482c1.078 0 1.952.874 1.952 1.952z"/></svg>