<svg xmlns="http://www.w3.org/2000/svg" viewBox="0 0 47.5 47.5"><defs><clipPath id="a"><path d="M0 38h38V0H0v38Z"/></clipPath><clipPath id="b"><path d="M18.583 27.833c-2.957-.231-5.666 2.542-4.666 7.042-3.239-2.386-3.332-6.403-2.333-9 1.041-2.708-.042-4.958-2.584-5.208-2.839-.28-4.416 3.042-2.962 8.333A16.936 16.936 0 0 1 2 18C2 8.611 9.611 1 19 1s17 7.611 17 17c0 2.063-.367 4.039-1.04 5.868-.46-5.388-3.333-8.157-6.335-6.868-2.812 1.208-.917 5.917-.777 8.164.236 3.809-.012 8.169-6.931 11.794 2.875-5.499.333-8.917-2.334-9.125"/></clipPath></defs><g clip-path="url(#a)" transform="matrix(1.25 0 0 -1.25 0 47.5)"><path fill="#f4900c" d="M36 18c0 2.063-.367 4.039-1.04 5.868-.46-5.389-3.333-8.157-6.335-6.868-2.813 1.208-.917 5.917-.777 8.164.236 3.809-.012 8.169-6.931 11.794 2.875-5.5.333-8.916-2.334-9.125-2.958-.23-5.666 2.542-4.666 7.042-3.238-2.386-3.333-6.402-2.334-9 1.042-2.708-.041-4.958-2.583-5.208-2.839-.28-4.417 3.041-2.962 8.333A16.936 16.936 0 0 1 2 18C2 8.611 9.611 1 19 1s17 7.611 17 17"/></g><g clip-path="url(#b)" transform="matrix(1.25 0 0 -1.25 0 47.5)"><path fill="#ffcc4d" d="M31 7c0 2.187-.584 4.236-1.605 6.001.147-3.084-2.562-4.293-4.02-3.709-2.105.843-1.541 2.291-2.083 5.291-.542 3-2.625 5.084-5.709 6 2.25-6.333-1.247-8.667-3.08-9.084-1.872-.426-3.753.001-3.968 4.007A11.967 11.967 0 0 1 7 7C7 .373 12.373-5 19-5S31 .373 31 7"/></g></svg>