<svg xmlns="http://www.w3.org/2000/svg" viewBox="0 0 24 24"><path fill="none" stroke="#303c42" stroke-linecap="round" stroke-linejoin="round" d="M20.5 15c0 4.7-3.8 8.5-8.5 8.5S3.5 19.7 3.5 15v-.5c.2-4.9 2.5-6 2.5-6s.6 4 3.5 4c-.1-1.8.1-3.7.5-5.5.7-2.6 2.3-4.9 4.5-6.5 0 5.2 5.4 6.9 6 13.6v.9z"/><path fill="none" stroke="#303c42" stroke-linecap="round" stroke-linejoin="round" d="M15.5 19.8c.1 2-1.5 3.6-3.5 3.7h0c-2-.1-3.6-1.7-3.5-3.7h0v-.2c.1-2.1 1-2.6 1-2.6s.2 1.7 1.4 1.7c0-.8 0-1.6.2-2.4.3-1.1.9-2.1 1.8-2.8 0 2.3 2.2 3 2.4 5.9.2.1.2.3.2.4z"/></svg>