<svg xmlns="http://www.w3.org/2000/svg" data-name="Layer 1" viewBox="0 0 128 128"><circle cx="64.001" cy="112.996" r="2"/><path d="M52.003 12a2 2 0 1 0-4 0c.001 13.738-15.235 19.963-27.477 24.965-1.422.581-2.795 1.142-4.09 1.694C4.372 43.792 3.703 59.222 3.683 59.819a20.362 20.362 0 0 1-1.224 5.095 2.054 2.054 0 0 0-.097.328C-1.744 85.194.728 97.867.835 98.397a2.034 2.034 0 0 0 2.354 1.563 2.001 2.001 0 0 0 1.567-2.354c-.025-.123-2.391-12.407 1.492-31.4a24.019 24.019 0 0 0 1.43-6.192c.005-.135.578-13.527 10.324-17.675a309.363 309.363 0 0 1 4.036-1.67C34.684 35.5 52.003 28.424 52.003 12zm73.634 53.242a2.037 2.037 0 0 0-.098-.33 19.998 19.998 0 0 1-1.22-5.036c-.022-.654-.69-16.084-12.754-21.217a316.206 316.206 0 0 0-4.092-1.694C95.232 31.962 79.996 25.737 79.998 12a2 2 0 1 0-4 0c-.001 16.424 17.317 23.5 29.963 28.668 1.403.573 2.758 1.127 4.037 1.671 9.704 4.13 10.32 17.543 10.327 17.733a23.88 23.88 0 0 0 1.427 6.134c3.883 18.993 1.517 31.277 1.494 31.397a2 2 0 0 0 1.563 2.357 2.024 2.024 0 0 0 2.356-1.563c.107-.53 2.58-13.203-1.528-33.155zm-68.91 10.217c-8.266 6.837-19.754 1.624-19.876 1.567a2 2 0 0 0-1.696 3.622 28.705 28.705 0 0 0 11.178 2.371 19.85 19.85 0 0 0 12.943-4.478 2 2 0 0 0-2.549-3.082zm-1.19 16.614a2.002 2.002 0 0 0-2.462 1.392c-1.593 5.739-6.123 6.519-6.352 6.555a2 2 0 0 0 .278 3.98 1.97 1.97 0 0 0 .266-.018c.299-.04 7.335-1.07 9.662-9.447a2 2 0 0 0-1.392-2.462zm37.309-11.425a2 2 0 0 0-1.696-3.622c-.115.054-11.606 5.272-19.877-1.567a2 2 0 0 0-2.549 3.082 19.847 19.847 0 0 0 12.944 4.478 28.705 28.705 0 0 0 11.178-2.37zM81.28 100.02c-.193-.03-4.756-.792-6.357-6.555a2 2 0 1 0-3.853 1.07c2.326 8.377 9.364 9.408 9.662 9.447a2 2 0 0 0 .548-3.962z"/><path d="M24.973 60.345a2 2 0 1 0-3.778 1.31c.176.51 2.668 7.694 5.277 14.978 0 .011-.004.022-.004.034-.095 3.784-1.312 14.425-5.75 18.163a2 2 0 0 0-.241 2.818 2.047 2.047 0 0 0 2.818.242c3.487-2.938 5.28-8.338 6.201-12.946.779 2.091 1.475 3.91 2.01 5.217.031.07 3.175 7.211 2.364 25.752a2 2 0 0 0 1.91 2.085 2.032 2.032 0 0 0 2.085-1.91c.833-19.024-2.345-26.746-2.708-27.559-2.725-6.68-10.11-27.97-10.184-28.184zm76.559 16.322c0-.01-.003-.02-.004-.03 2.604-7.274 5.1-14.471 5.278-14.982a2 2 0 1 0-3.78-1.31c-.073.215-7.456 21.503-10.183 28.184-.362.812-3.54 8.533-2.708 27.558A2 2 0 0 0 92.131 118c.03 0 .06 0 .089-.002a2 2 0 0 0 1.91-2.085c-.81-18.541 2.333-25.683 2.359-25.74l.043-.096a187.14 187.14 0 0 0 1.973-5.128c.923 4.608 2.715 10.004 6.201 12.94a2.023 2.023 0 0 0 2.817-.24 2 2 0 0 0-.24-2.819c-4.439-3.738-5.656-14.379-5.751-18.163zM64 66A2 2 0 0 0 66 64V52a2 2 0 1 0-3.999 0v12a2 2 0 0 0 2 2zm-6.157-24.063c-9.876.786-11.817-6.106-11.902-6.426a1.995 1.995 0 0 0-2.414-1.453 1.96 1.96 0 0 0-1.466 2.418c3.313 10.774 15.469 9.498 16.097 9.448a2 2 0 0 0-.315-3.987zm13.821 4.061c9.39 0 13.436-6.098 14.274-9.522a2 2 0 1 0-3.884-.952c-.072.294-1.88 7.213-11.898 6.413a1.95 1.95 0 0 0-2.152 1.836c-.002 2.225 3.073 2.225 3.66 2.225z"/></svg>