<svg xmlns="http://www.w3.org/2000/svg" viewBox="0 0 48 48"><g data-name="11-food"><circle cx="24" cy="24" r="23" fill="#5fb1d7"/><circle cx="24" cy="24" r="16" fill="#6ee1ef"/><path fill="#f1f2f2" d="M1 0v11a4 4 0 0 0 4 4h4a4 4 0 0 0 4-4V0Z"/><path fill="#d1d3d4" d="M5 15v31a1 1 0 0 0 1 1h2a1 1 0 0 0 1-1V15Z"/><path fill="#f1f2f2" d="M43 34v12a1 1 0 0 0 1 1h2a1 1 0 0 0 1-1V1s-8 6-8 33Z"/><path d="M9 16H5a5.006 5.006 0 0 1-5-5V1a1 1 0 0 1 2 0v10a3 3 0 0 0 3 3h4a3 3 0 0 0 3-3V1a1 1 0 0 1 2 0v10a5.006 5.006 0 0 1-5 5Z"/><path d="M5 10a1 1 0 0 1-1-1V1a1 1 0 0 1 2 0v8a1 1 0 0 1-1 1zm4 0a1 1 0 0 1-1-1V1a1 1 0 0 1 2 0v8a1 1 0 0 1-1 1zM8 48H6a2 2 0 0 1-2-2V15a1 1 0 0 1 2 0v31h2V15a1 1 0 0 1 2 0v31a2 2 0 0 1-2 2zm38 0h-2a2 2 0 0 1-2-2V35h-3a1 1 0 0 1-1-1C38 6.812 46.057.457 46.4.2A1 1 0 0 1 48 1v45a2 2 0 0 1-2 2zm-6-15h3a1 1 0 0 1 1 1v12h2V3.762C43.811 7.1 40.137 15.321 40 33z"/><path d="M40 8.478a1 1 0 0 1-.7-.282 22.031 22.031 0 0 0-22.952-4.829 1 1 0 1 1-.7-1.875A24.031 24.031 0 0 1 40.7 6.759a1 1 0 0 1-.7 1.719zM24 48a23.952 23.952 0 0 1-12.522-3.522 1 1 0 0 1 1.044-1.706A22.007 22.007 0 0 0 39.3 39.8a1 1 0 0 1 1.4 1.441A23.875 23.875 0 0 1 24 48z"/><path d="M24 41a16.849 16.849 0 0 1-12.345-5.312 1 1 0 0 1 1.452-1.376 15 15 0 0 0 22.143-.391 1 1 0 1 1 1.5 1.324A17.015 17.015 0 0 1 24 41zm13.86-24a1 1 0 0 1-.866-.5A15.011 15.011 0 0 0 16.5 11a1 1 0 1 1-1-1.731A17.009 17.009 0 0 1 38.725 15.5a1 1 0 0 1-.865 1.5z"/></g></svg>