<svg xmlns="http://www.w3.org/2000/svg" viewBox="0 0 128 128"><path fill="#fffbd6" d="M109 62.5c0-7.3-5.9-13.2-13.2-13.2-1.4 0-2.7.2-3.9.6v-.2c0-8.6-7-15.6-15.6-15.6-4.7 0-9 2.1-11.8 5.4-3.7-3.4-8.6-5.4-14.1-5.4-9.5 0-17.5 6.3-20.1 14.9C22.7 50.4 17 57.1 17 65.1"/><path fill="#fff" d="M37 54c1.3-10.3 10.9-16.2 19.5-16.2.6 0 1.2 0 1.8.1-2.9-1.8-6.3-2.9-10-2.9-8.6 0-15.9 5.9-18.3 13.9-6.9 1.5-12 7.7-12 15.2l8.5-.2c0-5 4.6-9.8 10.5-9.9z"/><path fill="none" stroke="#31352e" stroke-miterlimit="10" stroke-width="6" d="M109 62.5c0-7.3-5.9-13.2-13.2-13.2-1.4 0-2.7.2-3.9.6v-.2c0-8.6-7-15.6-15.6-15.6-4.7 0-9 2.1-11.8 5.4-3.7-3.4-8.6-5.4-14.1-5.4-9.5 0-17.5 6.3-20.1 14.9C22.7 50.4 17 57.1 17 65.1"/><path fill="#94c2d9" d="M116.3 64c0 29-23.5 52.5-52.5 52.5S11.3 93 11.3 64h105z"/><path fill="#bfdce8" d="M27.3 64h-16c0 27.1 20.6 49.4 46.9 52.2C39.8 106.1 27.3 86.5 27.3 64z"/><path fill="none" stroke="#31352e" stroke-linejoin="round" stroke-miterlimit="10" stroke-width="6" d="M116.3 64c0 29-23.5 52.5-52.5 52.5S11.3 93 11.3 64h105z"/><path fill="#94c2d9" d="M39 110h50v10H39z"/><path fill="#bfdce8" d="M39 111h9v8h-9z"/><path fill="none" stroke="#31352e" stroke-miterlimit="10" stroke-width="6" d="M39 110h50v10H39z"/><path fill="none" stroke="#cd9356" stroke-linecap="round" stroke-linejoin="round" stroke-miterlimit="10" stroke-width="6" d="M92 7 73 48M106 16 80 53"/><path fill="#fff" d="M61 49s12.8-.4 18 10c0 0-.5-17.2-18-10z"/></svg>