<svg xmlns="http://www.w3.org/2000/svg" viewBox="0 0 64 64"><circle cx="32" cy="32" r="29" fill="#ccc"/><circle cx="32" cy="32" r="18" fill="#e6e6e6"/><path fill="#fce9c0" d="M17.473 20H50L33.737 3.737 17.473 20z"/><path fill="#c69c6d" d="M37 16a1 1 0 0 1-.707-1.707l1-1a1 1 0 0 1 1.414 1.414l-1 1A1 1 0 0 1 37 16Z"/><path fill="#fbe3a9" d="m33 15 23 23V15H33z"/><path fill="#c69c6d" d="M51.527 29.264a1 1 0 0 1-.707-.293l-9-9a1 1 0 0 1 1.414-1.414l9 9a1 1 0 0 1-.707 1.707zM52 23a1 1 0 0 1-.707-.293l-3-3a1 1 0 0 1 1.414-1.414l3 3A1 1 0 0 1 52 23z"/><path fill="#f7996a" d="M46 39a3 3 0 0 0-3 3 7.96 7.96 0 0 1-.587 3H45v2h-3.76a8.12 8.12 0 0 1-.89.936l2.357 2.357-1.414 1.414-2.61-2.61a7.937 7.937 0 0 1-1.683.641V53h-2v-3h-3a3 3 0 0 0 0 6h3a14 14 0 0 0 14-14 3 3 0 0 0-3-3Z"/><path fill="#f4806d" d="M37 53v-3.262A7.992 7.992 0 0 1 35 50v3zm8-8h-2.587a8.01 8.01 0 0 1-1.173 2H45zm-2.293 5.293-2.357-2.357a8.025 8.025 0 0 1-1.667 1.164l2.61 2.61z"/><path fill="#c69c6d" d="M28 17a1 1 0 0 1-.707-1.707l6-6a1 1 0 0 1 1.414 1.414l-6 6A1 1 0 0 1 28 17Z"/><path fill="#f2f2f2" d="M40 36c0 6.627-14.373 12-21 12A12 12 0 0 1 7 36c0-6.627 5.373-14 12-14s21 7.373 21 14Z"/><circle cx="18" cy="36" r="7" fill="#f29200"/></svg>