<svg xmlns="http://www.w3.org/2000/svg" enable-background="new 0 0 496 473.32" viewBox="0 0 496 473.32"><path fill="#d6eae8" d="M389.78 57.1l0 18.68c-9.21 6.894-18.42 6.894-27.63 0V57.1c7.612-10.283 16.588-12.909 27.05-7.19C389.58 52.26 389.78 54.66 389.78 57.1zM377.79 26.42c-1.461 11.956-8.561 17.823-20.3 18.68-2.44-2.7-5.69-4.67-9.38-5.48l0-.01c-1.602-10.989.131-19.985 4.81-27.22C362.72 14.3 371.35 19.37 377.79 26.42z"/><path fill="#e7f2f1" d="M389.2 49.91l-27.05 7.19c0-4.56-1.76-8.79-4.66-12l20.3-18.68C383.7 32.88 387.76 41.01 389.2 49.91zM352.92 12.39l-4.81 27.22v.01c-.43-.1-.87-.19-1.32-.25l-83.36-12.02L267.38 0l83.35 12.02C351.47 12.13 352.2 12.25 352.92 12.39z"/><path fill="#cdc7b9" d="M475.57,376.14l0,22.75h-37.72h-0.01c-4.422-7.583-3.362-15.167,3.18-22.75
		C452.273,370.886,463.783,370.754,475.57,376.14z"/><path fill="#e7f2f1" d="M413.76,435.99l-3.11,14.7c-2.79,13.19-14.44,22.63-27.92,22.63H84.63
		c-13.49,0-25.14-9.44-27.93-22.63l-3.11-14.7C173.234,409.638,293.293,409.819,413.76,435.99z"/><path fill="#ffc05a" d="M444.49,351.22l-3.47,24.92l-3.18,22.75l-5.17,37.1h-18.91H53.59H34.68l-11.82-84.77
		C155.394,329.882,296.394,331.098,444.49,351.22z"/><path fill="#e7f2f1" d="M395.79,303.51l-150.19-26.5l-24.9,26.5L74.65,284.187l-29.2,19.323H0v24.85
		c0,12.63,10.23,22.86,22.86,22.86h421.63c26.403,12.651,49.263-35.059,22.86-47.71C436.692,282.1,413.694,284.792,395.79,303.51z"/><path fill="#cdc7b9" d="M475.57,75.78l0,22.75c-40.967,14.326-81.484,14.66-121.52,0l0-22.75h8.1h27.63H475.57z"/><path fill="#1ea6bc" d="M475.57,98.53H354.05c-11.28,0-20.42,9.15-20.42,20.43v67.06v31.89
		c-5.592,28.097,11.517,65.523,62.16,85.6h71.56v24.85c0,12.63-10.23,22.86-22.86,22.86l-3.47,24.92h34.55
		c11.28,0,20.43-9.15,20.43-20.43V118.96C496,107.68,486.85,98.53,475.57,98.53z"/><path fill="#e15c63" d="M333.63,217.91c-5.76-1.87-11.77-3.17-17.98-3.85l-38.85,4.25h-0.01
		c-34.587-6.167-52.873-0.121-36.09,32.2c-17.052,28.66-10.192,44.254,9.2,53h145.89C395.79,263.53,369.71,229.63,333.63,217.91z"/><path fill="#53b79a" d="M253.55 263.03c-1.11-9.08-12.85-12.52-12.85-12.52l-20 10.66c-11.539 15.164-12.062 29.325 0 42.34h29.2c-2.29-4.54-4.31-9.83-4.31-14.35C245.59 278.73 254.66 272.11 253.55 263.03zM54.65 250.51c0 0-11.74 3.44-12.85 12.52-1.11 9.08 7.96 15.7 7.96 26.13 0 4.52-2.02 9.81-4.31 14.35h29.2c14.79-10.823 20.834-23.591 0-42.34L54.65 250.51z"/><path fill="#4aaf8f" d="M394.39,194.89c-25.79,1.87-46.61,8.96-60.76,23.02c-5.76-1.87-11.77-3.17-17.98-3.85
		c-3.19-7.24-6.99-13.2-11.45-16.21c-0.52-0.35-1.05-0.68-1.58-0.97c0,0,12.86-8.36,31.01-10.86c1.31-0.19,2.64-0.34,4-0.45
		C357.86,183.88,394.39,194.89,394.39,194.89z"/><path fill="#53b79a" d="M315.65,214.06c9.46,21.46,13.56,54.11,13.56,54.11c-14.97-23.52-31.86-41.74-52.41-49.86h-0.01
		c1.58-6.55-2.32-14.11-4.25-21.55c5.33-1.96,11.91-3.58,18.48-3.19c3.97,0.24,7.93,1.21,11.6,3.31c0.53,0.29,1.06,0.62,1.58,0.97
		C308.66,200.86,312.46,206.82,315.65,214.06z"/><path fill="#3fa07f" d="M314.83,139.71c-13.14,15.28-21.42,33.04-23.81,53.86c-6.57-0.39-13.15,1.23-18.48,3.19
		c-0.6-2.3-1.01-4.59-1.01-6.83c0-7.99,6.27-17.38,6.95-27.2l0.01-0.01C287.41,151.79,299.28,143.88,314.83,139.71z"/><path fill="#6fceae" d="M277.05 153.21c-5.41-13.21-23.4-14.44-31.93-23.13-8.52-8.68-3.01-27.02-17.91-32.82-14.91-5.8-34.73 12.79-34.73 12.79-33.155 62.164-17.048 110.681 28.22 151.12 0 0 13.43-1.22 18.33-7.5.72-.93 1.26-1.99 1.67-3.16 2.39-6.73.64-16.63 6.64-20.31 7.03-4.31 23.56-.06 28.4-9.11.48-.9.83-1.83 1.05-2.78 1.58-6.55-2.32-14.11-4.25-21.55-.6-2.3-1.01-4.59-1.01-6.83 0-7.99 6.27-17.38 6.95-27.2l.01-.01C278.71 159.58 278.36 156.4 277.05 153.21zM147.67 71.42c-25.81 0-32.33 32.64-32.33 32.64h64.67C180.01 104.06 173.49 71.42 147.67 71.42zM68.14 97.26c-14.9 5.8-9.39 24.14-17.91 32.82-8.53 8.69-26.52 9.92-31.93 23.13-5.4 13.2 5.52 26.18 5.52 36.72 0 10.54-9.05 22.11-4.21 31.16 4.84 9.05 21.37 4.8 28.4 9.11 6 3.68 4.25 13.58 6.64 20.31.41 1.17.95 2.23 1.67 3.16 4.9 6.28 18.33 7.5 18.33 7.5 47.847-40.906 66.583-88.982 28.22-151.12C102.87 110.05 83.05 91.46 68.14 97.26z"/><path fill="#e0ac69" d="M239.25,166.59c0,24.03-18.55,33.88-18.55,51.48v43.1v42.34H74.65v-42.34v-43.1
		c0-17.6-18.55-27.45-18.55-51.48c0-16.01,19.65-41.39,46.77-56.54c4-2.24,8.18-4.26,12.47-5.99c10.25-4.13,21.2-6.62,32.33-6.62
		s22.09,2.49,32.34,6.62c4.3,1.73,8.47,3.75,12.47,5.99C219.6,125.2,239.25,150.58,239.25,166.59z"/><polygon fill="#f9b132" points="444.49 351.22 441.02 376.14 26.33 376.14 22.86 351.22"/><path fill="#1498b7" d="M496,118.96v236.75c0,11.28-9.15,20.43-20.43,20.43h-34.55l3.47-24.92
		c12.63,0,22.86-10.23,22.86-22.86v-24.85h-63.74c74.68-35.62,75.45-203.11,75.46-204.67C488.68,100.49,496,108.87,496,118.96z"/><path fill="#bf8e5a" d="M113.335 171.929c1.386-1.72 1.114-4.238-.605-5.624-1.72-1.387-4.238-1.115-5.625.605l-11.859 14.72c-1.386 1.72-1.114 4.238.605 5.624.739.596 1.626.885 2.507.885 1.169 0 2.327-.51 3.118-1.491L113.335 171.929zM158.871 134.351c.652-2.111-.529-4.351-2.641-5.003l-14.95-4.62c-2.109-.654-4.351.531-5.002 2.641-.652 2.111.529 4.351 2.641 5.003l14.95 4.62c.393.122.791.179 1.182.179C156.759 137.171 158.341 136.068 158.871 134.351zM145.434 190.176l-12.149-5.76c-1.997-.947-4.382-.096-5.328 1.901-.946 1.996-.096 4.381 1.9 5.328l12.149 5.76c.554.263 1.137.387 1.711.387 1.497 0 2.934-.845 3.617-2.288C148.28 193.507 147.43 191.122 145.434 190.176zM178.731 186.244c1.162-1.878.582-4.344-1.297-5.506l-10.88-6.73c-1.882-1.163-4.345-.582-5.506 1.298-1.162 1.878-.582 4.344 1.297 5.506l10.88 6.73c.656.405 1.383.599 2.101.599C176.666 188.14 177.976 187.468 178.731 186.244zM134.733 220.872c-1.866-1.184-4.337-.631-5.521 1.234l-6.01 9.47c-1.184 1.865-.632 4.337 1.233 5.521.665.422 1.406.623 2.14.623 1.324 0 2.619-.657 3.381-1.857l6.01-9.47C137.15 224.528 136.599 222.056 134.733 220.872zM105.772 259.247c-1.521-1.603-4.053-1.669-5.655-.149-1.603 1.52-1.67 4.052-.149 5.655l8.86 9.34c.787.829 1.844 1.247 2.903 1.247.988 0 1.979-.364 2.752-1.098 1.603-1.52 1.67-4.052.149-5.655L105.772 259.247zM167.576 246.581l-10.369 11.97c-1.446 1.67-1.266 4.196.404 5.643.757.655 1.689.977 2.617.977 1.12 0 2.234-.468 3.025-1.381l10.369-11.97c1.446-1.67 1.266-4.196-.404-5.643C171.548 244.73 169.022 244.911 167.576 246.581zM195.767 206.869c-1.261-1.815-3.755-2.265-5.567-1.004l-10.5 7.29c-1.814 1.26-2.265 3.752-1.005 5.567.777 1.119 2.023 1.719 3.29 1.719.787 0 1.582-.232 2.277-.715l10.5-7.29C196.576 211.176 197.026 208.684 195.767 206.869z"/></svg>