<svg xmlns="http://www.w3.org/2000/svg" viewBox="0 0 50 50"><circle cx="25" cy="25" r="24" fill="#d8e6e9"/><circle cx="25" cy="25" r="16.3" fill="#bbd5d6" opacity=".5"/><path fill="#fff" d="M25 2.5c12.4 0 22.5 10.1 22.5 22.5S37.4 47.5 25 47.5 2.5 37.4 2.5 25 12.6 2.5 25 2.5M25 1C11.7 1 1 11.7 1 25s10.7 24 24 24 24-10.7 24-24S38.3 1 25 1z" opacity=".4"/><path fill="#f1e7ce" d="M42.7 22.7c-.1 1.2-.5 2.5-.9 3.7-.5 1.5-1 3.1-2 4.2-2 2.2-7.8 3.6-10.8 4.1-4.2.6-4.4-.9-6.2-2.4-1.9-1.6-4.4-1.6-6-3.8-.7-1-1.1-2.3-.9-3.5.1-.8.3-1.6.2-2.4-.1-.9-.7-1.7-1.3-2.4-4.5-5.6-5.3-6.3-5.4-7.7-.1-1.6 1.2-3 2.8-3.5 1.6-.5 7.5-1.9 8.2-2.2 2.2-1.1 4.9-.8 7.4-.5 7.5.9 8.9 1 10.6 1.8 2.3 1.2 3.5 4.2 2.7 6.7-.2.7-.6 1.4-.5 2.1.1.9.8 1.5 1.4 2.3.6.9.8 2.2.7 3.5z"/><path fill="#e5d3aa" d="M12.1 11.2c.3-.2.7-.3 1.1-.4.3 0 .6 0 .8.1.2.1.3.4.3.7 0 .2 0 .5-.2.6-.2.2-.4.2-.6.3-.5.1-1.1.3-1.7 0-.5-.3-.2-1 .3-1.3zm7.3-1.1c.4-.3.9-.4 1.5-.5.3 0 .7-.1 1 .1.3.1.4.5.4.8 0 .3 0 .6-.2.8-.2.2-.5.3-.8.3-.7.1-1.5.3-2.1 0-.8-.2-.3-1.1.2-1.5zm-1.1 13.6c.3-.2.6-.3.9-.3.2 0 .4 0 .6.1.2.1.2.3.3.5 0 .2 0 .4-.1.5-.1.1-.3.2-.5.2-.4.1-.9.2-1.3 0-.5-.2-.2-.8.1-1zm7.8-15.5c.5-.1 1.1-.1 1.6.1.4.1.7.2 1 .5.3.3.2.7.1 1-.1.3-.2.6-.5.7-.3.1-.6.1-.9 0-.7-.1-1.6-.2-2.1-.8-.7-.7.1-1.3.8-1.5zm10.3 2.9c.3-.2.6-.3.9-.3.2 0 .4 0 .6.1.2.1.2.3.3.5 0 .2 0 .4-.1.5-.1.1-.3.2-.5.2-.4.1-.9.2-1.3 0-.5-.2-.2-.7.1-1zm2.8 9.4c.3-.2.6-.3.9-.3.2 0 .4 0 .6.1.2.1.2.3.3.5 0 .2 0 .4-.1.5-.1.1-.3.2-.5.2-.4.1-.9.2-1.3 0-.6-.2-.3-.8.1-1zm-3.8 8.3c.3-.2.6-.3.9-.3.2 0 .4 0 .6.1.2.1.2.3.3.5 0 .2 0 .4-.1.5-.1.1-.3.2-.5.2-.4.1-.9.2-1.3 0-.5-.2-.2-.8.1-1zM18.1 16.4c.3-.2.6-.3.9-.3.2 0 .4 0 .6.1.2.1.2.3.3.5 0 .2 0 .4-.1.5-.1.1-.3.2-.5.2-.4.1-.9.2-1.3 0-.5-.2-.2-.8.1-1z"/><path fill="#ffb90c" d="M34.5 17.5c1 1.9 1.2 4.1.7 6.1-.3 1-.7 1.9-1.4 2.7-.6.7-1.5 1.1-2.3 1.5-2.4 1-5.3 1-7.4-.4-1-.6-1.7-1.6-2.3-2.6-.6-1-1-2-1.1-3.1-.2-2.2 1-4.5 2.8-5.9 1.5-1.2 3.3-1.8 5.2-2 1.6-.2 3.1.6 4.3 1.6.5.6 1 1.3 1.5 2.1z"/><path fill="#fff" d="M41.1 18c-.9 2.2-2.2 4.4-3.8 6.2-1.7 2-3.8 3.8-6.3 4.7-4.2 1.6-9.9 1-14.1-.6-1.4-1.9-.9-3.7-.8-4.6.3-1.6-.1-2.3-1.3-3.7-4.5-5.6-5.3-6.3-5.4-7.7-.1-1.6 1.2-3 2.8-3.5 1.6-.5 7.5-1.9 8.2-2.2 2.2-1.1 4.9-.8 7.4-.5 7.5.9 8.9 1 10.6 1.8 2.3 1.2 3.5 4.2 2.7 6.7-.6 1.5-1 2.1 0 3.4z" opacity=".15"/><path fill="#fff" d="M40.9 11.1c-1 1.8-2.2 3.4-3.5 5-5.7 6.8-12.1 8.9-21.3 7.7.1-.4.1-.8.1-1.2-.3-2.4-6.5-7.6-6.8-10.1-.1-1.6 1.2-3 2.8-3.5 1.6-.5 7.5-1.9 8.2-2.2 2.2-1.1 4.9-.8 7.4-.5 7.5.9 8.9 1 10.6 1.8 1.1.5 2 1.7 2.5 3z" opacity=".15"/><path fill="#ffb90c" d="M35.1 23.6c-.3 1-.7 1.9-1.4 2.7-.6.7-1.5 1.1-2.3 1.5-2.4 1-5.3 1-7.4-.4-.7-.5-1.4-1.1-1.9-1.9-.2-.2-.3-.4-.4-.7-.6-1-1-2-1.1-3.1-.2-2.2 1-4.5 2.8-5.9 1.5-1.2 3.3-1.8 5.2-2 1.3-.2 2.5.3 3.6 1.1.2.2.5.3.7.5.7.6 1.2 1.3 1.6 2.1.9 1.8 1.1 4.1.6 6.1z"/><path fill="#fff" d="M33.2 21.7c-.2 1-.7 1.9-1.4 2.7-.6.7-1.5 1.1-2.3 1.5-2.4 1-5.3 1-7.4-.4-.2-.2-.3-.4-.4-.7-.2-.3-.3-.6-.5-.9-.3-.7-.6-1.5-.7-2.3-.2-2.2 1-4.5 2.8-5.9 1.5-1.2 3.3-1.8 5.2-2 .9-.1 1.9.1 2.7.6.3.2.6.3.9.5.2.2.3.5.5.7 1 1.9 1.2 4.2.6 6.2z" opacity=".15"/><path fill="#fff" d="M31.6 19.8c-.2 1-.7 1.9-1.4 2.7-.6.7-1.5 1.1-2.3 1.5-2.1.9-4.6 1-6.7 0-.3-.7-.6-1.5-.7-2.3-.2-2.2 1-4.5 2.8-5.9 1.5-1.2 3.3-1.8 5.2-2 .9-.1 1.9.1 2.7.6.8 1.6.8 3.6.4 5.4z" opacity=".15"/><path fill="#fff" d="M25.9 15.3c2-.7 4.3-.3 5.9 1 .5.4 1 .9 1.1 1.5-.7 0-1.4-.3-2.1-.5-2.6-.6-5.5.4-7 2.6-.5.7-.9 1.6-.7 2.4.2.8.8 1.5.8 2.3-.9-.2-1.6-1.1-1.9-2-.9-3.1.9-6.2 3.9-7.3z" opacity=".15"/><path fill="#7aaf00" d="M30.2 26.5c1.2 1.4 1.5 3.5 1 5.2-.5 1.8-1.9 3.3-3.6 4.1-1.4.6-2.9.8-4.4.7-.3 0-.7-.1-1-.2-1.8-.4-3.4-1.5-4.7-2.8-.8-.8-1.5-1.7-2-2.7-.3-.6-.6-1.3-.7-2-.1-1.1.3-2.1 1-3 .9-1.2 2.2-2 3.6-2.3 1.4-.3 3 0 4.2.7l.2.2.5.4.3.2c.1 0 .2-.1.3-.1.6-.1 1.1-.2 1.7-.2 1.4.1 2.8.8 3.6 1.8z"/><path fill="#8fc902" d="M26.7 24.5c-.6 0-1.2 0-1.7.2-.1 0-.3.1-.4.1-.1 0-.1 0-.2.1-1.1.1-2.4.4-3.5 1.1-.4.2-.8.5-.9 1-.2.5 0 1.1.5 1.7.7.9 1.7 1.6 2.7 1.9.5.1 1 .1 1.4 0 .4-.2.7-.6.9-1 .1-.2.1-.3.1-.5 0-.7-.3-1.3-.5-1.7-.3-.5-.8-.9-1.2-1.3-.1-.1-.3-.2-.4-.3l-.2-.1c.5-.2 1.1-.3 1.5-.4.1 0 .2 0 .3-.1.6-.1 1.1-.2 1.7-.2 1.3.1 2.6.7 3.4 1.7 1.1 1.3 1.5 3.3 1 5-.5 1.7-1.8 3.1-3.4 3.9-1.2.6-2.6.8-4.1.7-.4 0-.8-.1-1.2-.2-1.7-.4-3.3-1.4-4.6-2.7-.8-.8-1.4-1.7-2-2.6-.4-.7-.6-1.3-.7-1.9-.2-1 .1-2 .8-2.9.8-1.1 2.1-1.9 3.5-2.2 1.4-.3 2.8 0 4.1.7.1.1.3.1.3-.1.1-.1 0-.3-.1-.3-1.3-.8-2.9-1-4.4-.7-1.5.3-2.9 1.2-3.8 2.4-.8 1-1.1 2.1-1 3.2.1.8.4 1.6.7 2.1.5 1 1.2 1.9 2 2.7 1.4 1.4 3.1 2.4 4.9 2.8.3.1.6.1.8.2 1.7.3 3.3 0 4.8-.6 1.2-.6 2.3-1.5 2.9-2.6.3-.5.6-1 .7-1.6.6-1.9.2-4-1.1-5.5-.8-1.2-2.2-1.9-3.6-2zm-3.9 1.4c.1.1.2.1.3.2.1.1.2.1.3.2.4.4.8.7 1.1 1.2.2.3.5.8.5 1.4 0 .5-.3 1-.7 1.1-.3.1-.6.1-1 0-.9-.3-1.8-.9-2.4-1.7-.4-.5-.5-.9-.4-1.2 0-.1 0-.1.1-.2.1-.2.4-.4.6-.5.5-.3 1-.5 1.6-.7-.1.1-.1.2 0 .2z"/><path fill="#8fc902" d="M29.1 32.6c-3.1 4.9-12.7 2.3-13.9-5.3 0-.1.1-.3.2-.3s.3.1.3.2c1.1 7.5 11.2 10.1 13.6 3.8.9-2.4.2-3.7-1.2-5.7-.1-.1-.1-.2 0-.3.1-.1.3-.1.3.1 1.8 2.3 2.7 4.3.7 7.5z"/><path fill="#8fc902" d="M16 25.8c0-.1.1-.3.2-.3s.3.1.3.2c2.8 13.4 16.9 6.6 9.5-.9-.1-.1-.1-.3 0-.4.1-.1.3-.1.4 0 7.9 8.2-7.4 15.7-10.4 1.4z"/><path fill="#8fc902" d="M23.2 32.1c-3.9-.5-5.1-3.9-5.8-7.6 0-.1.1-.3.2-.3.8-.2.4 6.8 5.7 7.4 4.9.6 4.3-6.6-.4-5.9-.1 0-.3-.1-.3-.2s.1-.3.2-.3c5.4-.7 6.1 7.6.4 6.9z"/><path fill="#fff" d="M25 24.6c.1 1.7-.4 1.9.4 4.8.5 1.9.6 2.8-.5 4.8-.4.7-1.1 1.8-1.8 2.4-4.6-.6-8.2-5.2-8.4-7.8-.1-1 .3-2.2 1-3.2 3-4 8.7-2.2 8.3-1.3l.5.4c.1 0 .1 0 .2-.1 0 .1.1.1.3 0z" opacity=".2"/><path fill="#7aaf00" d="M38.7 40c-.7 1.3-1.8 2.4-3.1 3.1-.3.2-.6.3-.9.5-1.7.7-3.6.9-5.5.6-1.1-.2-2.2-.5-3.2-1-.6-.3-1.2-.7-1.7-1.2-.7-.8-1-1.9-1-3 0-1.5.6-2.9 1.6-4 2.3-2.5 4.7-1.9 5-1.9 4.9-5.7 12.1.7 8.8 6.9z"/><path fill="#8fc902" d="M31.1 31.4c-.5.3-.9.7-1.3 1.2l-.3.3c0 .1-.1.1-.1.2-.7.8-1.6 1.9-2.1 3.1-.2.4-.3.9-.2 1.3.2.5.6.8 1.4 1.1 1.1.3 2.3.3 3.3-.1.5-.2.9-.5 1.1-.8.2-.4.3-.9.1-1.4-.1-.2-.1-.3-.2-.5-.4-.6-1-.9-1.4-1.1-.6-.2-1.1-.3-1.7-.3H29c.3-.5.7-.9 1-1.2l.2-.2c.4-.4.8-.9 1.3-1.2 1.1-.7 2.5-.9 3.7-.6 1.7.4 3.1 1.8 3.7 3.5.6 1.6.4 3.6-.5 5.2-.6 1.2-1.6 2.2-2.9 2.9-.3.2-.7.4-1.1.5-1.6.7-3.5.8-5.3.6-1.1-.2-2.1-.5-3.1-1-.8-.3-1.3-.7-1.6-1.1-.6-.7-1-1.7-.9-2.8 0-1.4.6-2.8 1.5-3.8s2.3-1.7 3.7-1.9c.1 0 .2-.1.2-.2s-.1-.2-.3-.2c-1.5.2-3 .9-4 2S23 37.5 23 39c0 1.3.4 2.4 1.1 3.2.6.6 1.3 1 1.8 1.2 1 .5 2.1.8 3.3 1 2 .3 3.9.1 5.6-.6.3-.1.5-.2.8-.4 1.5-.8 2.7-1.9 3.4-3.3.6-1.2.9-2.5.8-3.8 0-.6-.2-1.2-.4-1.7-.7-1.9-2.2-3.3-4.1-3.8-1.4-.4-2.9-.1-4.2.6zm-2.2 3.5h.7c.5.1 1.1.1 1.6.3.4.1.9.4 1.2.9.3.4.3 1 .1 1.3-.1.3-.4.5-.8.6-.9.3-2 .3-3 .1-.6-.2-.9-.4-1-.7v-.2c0-.3.1-.5.2-.8.2-.5.5-1 .9-1.5h.1z"/><path fill="#8fc902" d="M37.6 38.8c-1.7 4.3-9.3 6.4-14 1.7-.1-.1-.1-.3 0-.4.1-.1.3-.1.4 0 4.4 4.4 11.6 2.4 13.2-1.5.7-1.8 0-4.4-1.1-5.6-.8-.9-2.1-1.3-3.2-1.7-.1 0-.2-.2-.2-.3 0-.1.2-.2.3-.2 1.1.4 2.5.8 3.4 1.8 1.2 1.4 2 4.2 1.2 6.2z"/><path fill="#8fc902" d="M23.3 38.9c-.2-.2.1-.6.3-.4 10.2 9.1 17.5-4.7 7.2-6.4-.1 0-.2-.1-.2-.3 0-.1.1-.2.3-.2 11.2 1.9 3.3 17-7.6 7.3z"/><path fill="#8fc902" d="M34.8 36.5v.7c-.1.5-.3 1-.6 1.4-.3.4-.7.7-1.2 1-1 .6-2.1.8-3.3.7-1.1-.1-2.2-.5-3.3-1.2-1-.6-1.8-1.4-2.7-2.2-.1-.1-.1-.2 0-.4.1-.1.2-.1.4 0 .8.7 1.7 1.5 2.6 2.1 1 .7 2.1 1 3.1 1.1 1 .1 2.1-.1 3-.6.5-.3.8-.6 1.1-.9.3-.4.5-.8.5-1.2.1-.8-.1-1.8-.7-2.4-.6-.6-1.5-1-2.3-1-.9 0-1.7.4-2.4 1-.1.1-.3.1-.4 0s-.1-.3 0-.4c.7-.7 1.7-1.1 2.7-1.1 1 0 2 .4 2.7 1.2.4.7.7 1.4.8 2.2z"/><path fill="#fff" d="m29.9 32.6.2.2c.1.1.1.1.1.2.4.6.8 1.2 1.2 1.7.1.1.2.2.3.4.4.4.9.8 1.4 1.2.6.5 1.2 1 1.6 1.6.5.8.7 1.7.9 2.6.1.8.2 1.6.1 2.4 0 .1 0 .2-.1.3v.4c-.3.1-.5.3-.8.4-1.7.7-3.6.9-5.6.6-1.1-.2-2.2-.5-3.3-1-.5-.2-1.2-.6-1.8-1.2-.7-.8-1.1-1.9-1.1-3.2 0-1.5.6-3 1.6-4.2 1-1.1 2.5-1.9 4-2 .1 0 .3.1.3.2h.6c0-.1.1-.1.1-.2.1-.2.2-.3.3-.4z" opacity=".2"/><path fill="#7aaf00" d="M19.8 31.4c.4 1.8-.1 3.8-1.4 5.2-1.3 1.4-3.1 2.1-5 2.1-1.5 0-3-.5-4.2-1.3-.3-.2-.6-.4-.8-.6C7 35.6 6 34 5.4 32.2a9.6 9.6 0 0 1-.6-3.3c0-.7 0-1.4.2-2.1.4-1 1.2-1.8 2.2-2.3 1.3-.7 2.8-.8 4.3-.5 1.4.4 2.7 1.3 3.5 2.5l.1.2.3.6.1.3c.1 0 .2.1.3.1.6.1 1.1.3 1.6.6 1.1.6 2 1.8 2.4 3.1z"/><path fill="#8fc902" d="M17.5 28c-.5-.3-1.1-.5-1.6-.6-.1 0-.3-.1-.4-.1h-.2c-1.1-.3-2.4-.5-3.7-.4-.4 0-.9.1-1.3.5-.4.3-.5.9-.3 1.6.2 1.1.8 2.2 1.6 2.9.4.3.8.5 1.2.6.5 0 .9-.2 1.3-.5.1-.1.2-.3.3-.4.3-.6.3-1.3.3-1.8-.1-.6-.3-1.1-.5-1.6-.1-.2-.1-.3-.2-.4l-.1-.2c.6.1 1.1.2 1.5.3.1 0 .2 0 .3.1.6.1 1.1.3 1.6.6 1.1.6 2 1.8 2.3 3 .4 1.7-.1 3.6-1.3 4.9-1.2 1.3-3 2-4.8 2-1.4 0-2.7-.4-3.9-1.2-.3-.2-.7-.5-1-.7-1.3-1.1-2.3-2.7-3-4.5-.4-1-.6-2.1-.6-3.2 0-.8 0-1.4.2-2 .3-.9 1.1-1.6 2.1-2.1 1.2-.6 2.7-.8 4.1-.4 1.3.3 2.6 1.2 3.4 2.4.1.1.2.2.3.1.1-.1.1-.2.1-.3-.9-1.3-2.2-2.2-3.7-2.6-1.5-.6-3.2-.4-4.5.3-1.1.6-1.9 1.4-2.3 2.4-.3.8-.3 1.6-.3 2.2.1 1.1.3 2.2.6 3.3.6 1.9 1.7 3.5 3.1 4.7.2.2.4.4.7.5 1.4 1 3 1.5 4.6 1.5 1.4 0 2.7-.4 3.8-1 .5-.3 1-.7 1.4-1.1 1.4-1.5 1.9-3.5 1.5-5.4-.4-1.4-1.4-2.7-2.6-3.4zm-4.2-.3c0 .1.1.2.2.3.1.1.1.2.2.3.2.5.4 1 .5 1.5.1.4.1 1-.2 1.5-.2.4-.7.7-1.1.7-.3 0-.6-.2-.9-.4a5.1 5.1 0 0 1-1.4-2.6c-.1-.6-.1-1 .2-1.2l.1-.1c.2-.1.5-.2.8-.2.6 0 1.2 0 1.7.1-.1-.1-.1 0-.1.1z"/><path fill="#8fc902" d="M16.1 36.4c-.7.4-1.4.7-2.1.8-.9.1-1.9-.1-3-.6-2-.9-3.7-2.6-4.6-4.6-.9-2-1.1-4.4-.4-6.5 0-.1.2-.2.3-.2.1 0 .2.2.2.3-.6 2-.5 4.2.4 6.1s2.4 3.5 4.4 4.3c1 .4 1.9.6 2.8.5 1.3-.1 2.4-.9 3-1.6.7-.7 1.2-1.3 1.4-2.1.4-1.2.2-2.5 0-3.6 0-.1.1-.3.2-.3s.3.1.3.2c.2 1.1.4 2.6 0 3.9-.3.8-.8 1.5-1.6 2.3-.5.5-.9.8-1.3 1.1z"/><path fill="#8fc902" d="M15.4 35c-1.5.9-3.5.9-5.1 0-1.6-.9-2.8-2.6-3.3-4.7-.4-1.7-.3-3.6.3-5.7 0-.1.2-.2.3-.2.1 0 .2.2.2.3-.5 2.1-.6 3.9-.3 5.5.4 1.9 1.5 3.5 3 4.4 1.6.9 3.7.8 5-.3.8-.7 1.3-1.7 1.5-2.8.2-1 0-2.1-.4-3.3 0-.1 0-.3.2-.3.1 0 .3 0 .3.2.4 1.2.5 2.4.4 3.5-.2 1.3-.8 2.4-1.7 3.2-.1 0-.3.1-.4.2z"/><path fill="#8fc902" d="M14.7 33.6c-.2.1-.4.2-.7.3-.5.2-1 .2-1.6.1-.5-.1-1-.3-1.5-.6-.9-.6-1.7-1.5-2.1-2.6-.4-1-.6-2.2-.4-3.5.1-1.1.4-2.2.6-3.3 0-.1.2-.2.3-.2.1 0 .2.2.2.3-.3 1.1-.6 2.2-.6 3.3-.1 1.2 0 2.3.4 3.2.4.9 1.1 1.8 1.9 2.3.4.3.9.5 1.3.5.4.1.9 0 1.3-.1.8-.3 1.5-.9 1.8-1.8.3-.8.2-1.8-.2-2.5-.4-.8-1.1-1.4-2-1.6-.1 0-.2-.2-.2-.3s.2-.2.3-.2c1 .3 1.8 1 2.3 1.9.5.9.6 2 .2 2.9-.1.9-.6 1.5-1.3 1.9z"/><path fill="#fff" d="M15.8 27.4c0 .1-.1.2-.1.2 0 .1-.1.2-.1.2-.3.6-.7 1.2-1 1.9-.1.1-.1.3-.2.4-.2.6-.3 1.2-.4 1.7-.1.8-.3 1.5-.6 2.2-.4.8-1.2 1.4-1.9 2-.6.5-1.3.9-2.1 1.1-.1 0-.2.1-.3.1-.1 0-.1 0-.2.1h-.2c-.2-.2-.5-.3-.7-.5-1.4-1.2-2.5-2.8-3.1-4.7-.4-1.1-.6-2.2-.6-3.4 0-.6 0-1.4.3-2.2.4-1 1.2-1.8 2.3-2.4 1.4-.7 3-.9 4.4-.5 1.5.4 2.8 1.3 3.7 2.6.1.1 0 .3-.1.3l.3.6h.2c.2.3.3.3.4.3z" opacity=".2"/><path fill="#7aaf00" d="M27.7 35.5c1.2 1.4 1.5 3.5 1 5.2-.5 1.8-1.9 3.3-3.6 4.1-1.4.6-2.9.8-4.4.7-.3 0-.7-.1-1-.2-1.8-.4-3.4-1.5-4.7-2.8-.8-.8-1.5-1.7-2-2.7-.3-.6-.6-1.3-.7-2-.1-1.1.3-2.1 1-3 .9-1.2 2.2-2 3.6-2.3 1.4-.3 3 0 4.2.7l.2.2.5.4.3.2c.1 0 .2-.1.3-.1.6-.1 1.1-.2 1.7-.2 1.4.1 2.7.8 3.6 1.8z"/><path fill="#8fc902" d="M24.1 33.5c-.6 0-1.2 0-1.7.2-.1 0-.3.1-.4.1-.1 0-.1 0-.2.1-1.1.2-2.4.6-3.5 1.2-.4.2-.8.5-.9 1-.2.5 0 1.1.5 1.7.7.9 1.7 1.6 2.7 1.9.5.1 1 .1 1.4 0 .4-.2.7-.6.9-1 .1-.2.1-.3.1-.5 0-.7-.3-1.3-.5-1.7-.3-.5-.8-.9-1.2-1.3-.1-.1-.3-.2-.4-.3l-.2-.1c.5-.2 1.1-.3 1.5-.4.1 0 .2 0 .3-.1.6-.1 1.1-.2 1.7-.2 1.3.1 2.6.7 3.4 1.7 1.1 1.3 1.5 3.3 1 5-.5 1.7-1.8 3.1-3.4 3.9-1.2.6-2.6.8-4.1.7-.4 0-.8-.1-1.2-.2-1.7-.4-3.3-1.4-4.6-2.7-.8-.8-1.4-1.7-2-2.6-.4-.7-.6-1.3-.7-1.9-.1-.9.2-1.9.9-2.8.8-1.1 2.1-1.9 3.5-2.2 1.4-.3 2.8 0 4.1.7.1.1.3.1.3-.1.1-.1 0-.3-.1-.3-1.3-.8-2.9-1-4.4-.7-1.5.3-2.9 1.2-3.8 2.4-.8 1-1.1 2.1-1 3.2.1.8.4 1.6.7 2.1.5 1 1.2 1.9 2 2.7 1.4 1.4 3.1 2.4 4.9 2.8.3.1.6.1.8.2 1.7.3 3.3 0 4.8-.6 1.2-.6 2.3-1.5 2.9-2.6.3-.5.6-1 .7-1.6.6-1.9.2-4-1.1-5.5-.8-1.4-2.2-2.1-3.7-2.2zM20.3 35c.1.1.2.1.3.2.1.1.2.1.3.2.4.4.8.7 1.1 1.2.2.3.5.8.5 1.4 0 .5-.3 1-.7 1.1-.3.1-.6.1-1 0-.9-.3-1.8-.9-2.4-1.7-.4-.5-.5-.9-.4-1.2 0-.1 0-.1.1-.2.1-.2.4-.4.6-.5.5-.3 1-.5 1.6-.7-.2 0-.1.1 0 .2z"/><path fill="#8fc902" d="M26.5 41.6c-.4.7-1 1.2-1.6 1.6-.8.5-1.8.8-3 .8-2.2.1-4.4-.7-6.2-2.1-1.7-1.4-2.9-3.5-3.2-5.7 0-.1.1-.3.2-.3s.3.1.3.2c.3 2.1 1.4 4 3 5.3 1.6 1.3 3.7 2.1 5.8 2 1.1 0 2-.3 2.7-.7 1.1-.7 1.7-1.9 2.1-2.7.4-.9.5-1.7.4-2.5-.2-1.2-.9-2.3-1.6-3.2-.1-.1-.1-.3.1-.3.1-.1.3-.1.3.1.7.9 1.5 2.1 1.7 3.5.1.8 0 1.7-.4 2.7-.1.5-.3.9-.6 1.3z"/><path fill="#8fc902" d="M25.3 40.7c-.9 1.4-2.7 2.3-4.6 2.2-1.8-.1-3.7-1.1-5-2.8-1.1-1.4-1.8-3.1-2.3-5.3 0-.1.1-.3.2-.3s.3.1.3.2c.4 2.1 1.2 3.8 2.2 5 1.2 1.5 2.9 2.5 4.6 2.6 1.9.1 3.7-.9 4.4-2.5.4-.9.5-2.1.1-3.2-.3-1-.9-1.9-1.8-2.8-.1-.1-.1-.3 0-.4.1-.1.3-.1.4 0 .9.9 1.6 2 1.9 3 .4 1.2.3 2.5-.1 3.6-.1.3-.2.5-.3.7z"/><path fill="#8fc902" d="M24.1 39.7c-.1.2-.3.4-.5.6-.4.4-.9.6-1.4.8-.5.1-1 .2-1.6.1-1.1-.1-2.2-.6-3-1.4-.8-.7-1.4-1.7-1.9-2.9-.4-1.1-.7-2.2-.9-3.3 0-.1.1-.3.2-.3s.3.1.3.2c.2 1.1.5 2.2.9 3.3.4 1.2 1 2.1 1.8 2.7.8.7 1.7 1.1 2.8 1.2.5.1 1 0 1.4-.1.4-.1.8-.4 1.2-.7.6-.6.9-1.5.8-2.4-.1-.9-.6-1.7-1.3-2.2-.7-.5-1.6-.7-2.5-.6-.1 0-.3-.1-.3-.2s.1-.3.2-.3c1-.1 2.1.1 2.9.7.8.6 1.4 1.5 1.5 2.5 0 .9-.2 1.7-.6 2.3z"/><path fill="#fff" d="M22.4 33.7v.6c0 .7-.1 1.4 0 2.1v.5c.1.6.2 1.2.4 1.7.2.7.4 1.5.4 2.2 0 .9-.4 1.8-.9 2.6-.3.6-.8 1.3-1.3 1.9-.1.1-.1.2-.2.2l-.1.1-.1.1c-.3 0-.6-.1-.8-.2-1.8-.4-3.5-1.4-4.9-2.8-.8-.8-1.5-1.7-2-2.7-.3-.5-.6-1.2-.7-2.1-.1-1 .3-2.2 1-3.2.9-1.2 2.3-2.1 3.8-2.4 1.5-.3 3.1 0 4.4.7.1.1.2.2.1.3l.5.4c.1 0 .1 0 .2-.1-.1.1.1.1.2.1z" opacity=".2"/></svg>