<svg xmlns="http://www.w3.org/2000/svg" viewBox="0 0 64 64"><circle cx="25.993" cy="37.993" r="23" fill="#f35244"/><circle cx="25.993" cy="37.993" r="17" fill="#fff"/><circle cx="25.993" cy="37.993" r="11" fill="#f35244"/><circle cx="25.993" cy="37.993" r="5" fill="#ffa912"/><path d="M36.3132,17.4479a22.9865,22.9865,0,0,1-32.64,26.0905,22.9983,22.9983,0,1,0,32.64-26.0905Z" opacity=".2"/><path fill="#7a432a" d="M26.0068,39.0068A1,1,0,0,1,25.3,37.3l22.272-22.2725a1,1,0,1,1,1.414,1.4141L26.7139,38.7139A.9968.9968,0,0,1,26.0068,39.0068Z"/><path d="M26.0068,39.0068A1,1,0,0,1,25.3,37.3l22.272-22.2725a1,1,0,1,1,1.414,1.4141L26.7139,38.7139A.9968.9968,0,0,1,26.0068,39.0068Z" opacity=".2"/><polygon fill="#7a432a" points="61.007 12.907 49.697 24.217 40.497 23.517 39.797 14.317 44.527 9.587 46.157 7.957 51.107 3.007 51.817 12.197 61.007 12.907"/><path fill="#fff" d="M56.0568,17.8568a1.0032,1.0032,0,0,0-.63-.29l-8.34-.64-.64-8.34a1.0032,1.0032,0,0,0-.29-.63l-1.63,1.63.63,8.35a1.006,1.006,0,0,0,.92.92l8.35.63Z"/><path d="M47.985,20.0105,45.18,19.7971a4.3028,4.3028,0,0,1-3.9639-3.9638l-.2076-2.7286-1.2121,1.2121.7,9.2,9.2.7,11.31-11.31-2.7848-.2151L52.62,18.2937A5.92,5.92,0,0,1,47.985,20.0105Z" opacity=".2"/></svg>