<svg xmlns="http://www.w3.org/2000/svg" viewBox="0 0 512 512"><path fill="#027226" d="M444.67,87.141a8,8,0,0,1-7.044-11.783l22.682-42.3a8,8,0,1,1,14.1,7.56l-22.681,42.3A8,8,0,0,1,444.67,87.141Z"/><path fill="#02a437" d="M440.9 94.189a8 8 0 0 1-7.658-5.687L420.157 45.179a8 8 0 1 1 15.317-4.625l10.5 34.766L484.855 58.7a8 8 0 0 1 6.29 14.713l-47.1 20.133A7.99 7.99 0 0 1 440.9 94.189zM389.365 110.146A31.5 31.5 0 0 0 392 97.6c0-13.112-8.22-24.683-20.757-31.611A23.369 23.369 0 0 0 376 52c0-14.728-14.327-26.667-32-26.667S312 37.272 312 52a23.369 23.369 0 0 0 4.757 13.989C304.22 72.917 296 84.488 296 97.6a31.478 31.478 0 0 0 2.635 12.546C287.119 118.825 280 130.788 280 144c0 26.51 28.654 48 64 48s64-21.49 64-48C408 130.788 400.881 118.825 389.365 110.146z"/><path fill="#027226" d="M390.247,75A8,8,0,0,0,379,73.753l-27,21.6V28a8,8,0,0,0-16,0V139.867l-44.849-19.221a8,8,0,1,0-6.3,14.708L336,157.275V200a8,8,0,0,0,16,0V115.845l37-29.6A8,8,0,0,0,390.247,75Z"/><rect width="96" height="104" x="128" y="104" fill="#e4e4e2"/><polygon fill="#ebebeb" points="224 104 128 104 144 72 240 72 224 104"/><rect width="96" height="32" x="144" y="40" fill="#e4e4e2"/><polygon fill="#cbcbcb" points="240 72 256 104 256 208 224 208 224 104 240 72"/><path fill="#c1e3f7" d="M304,136V112H256v24h0a120,120,0,0,0-24,72v32h96V208a120,120,0,0,0-24-72Z"/><rect width="64" height="32" x="248" y="80" fill="#569fe6"/><rect width="48" height="8" x="256" y="112" fill="#afcee0"/><path fill="#fd9226" d="M408.107,232,337.6,194.2l49.141-91.658A40,40,0,0,1,440.9,86.189h0a40,40,0,0,1,16.352,54.154Z"/><polygon fill="#fbb540" points="384 488 120 488 120 168 144 184 160 168 176 184 192 168 208 184 224 168 240 184 256 168 272 184 288 168 304 184 320 168 336 184 352 168 368 184 384 168 384 488"/><path fill="#02a437" d="M264,387a8,8,0,0,1-8-8,43.049,43.049,0,0,1,43-43h5a8,8,0,0,1,0,16h-5a27.03,27.03,0,0,0-27,27A8,8,0,0,1,264,387Z"/><circle cx="264" cy="432" r="56" fill="#fd9226"/><polygon fill="#ea9d2d" points="384 168 408 184 424 168 440 184 464 168 464 488 384 488 384 168"/><path fill="#f9b799" d="M88,424,49.955,438.267A40,40,0,0,0,24,475.72V488H88Z"/><path fill="#e0a58a" d="M120,488H56V448a40,40,0,0,1,40-40h24Z"/><path fill="#f9b799" d="M184,424l38.045,14.267A40,40,0,0,1,248,475.72V488H184Z"/><path fill="#e0a58a" d="M152,488h64V448a40,40,0,0,0-40-40H152Z"/><path fill="#f9b799" d="M136,392h0a40,40,0,0,1,40,40v56a0,0,0,0,1,0,0H96a0,0,0,0,1,0,0V432A40,40,0,0,1,136,392Z"/><rect width="16" height="16" x="248" y="416" fill="#e78244"/><rect width="16" height="16" x="272" y="432" fill="#e78244"/><rect width="16" height="16" x="272" y="400" fill="#e78244"/><polygon fill="#d18d28" points="384 488 424 448 464 488 384 488"/><path fill="#d18d28" d="M424 469a8 8 0 0 1-8-8V360a8 8 0 0 1 16 0V461A8 8 0 0 1 424 469zM424 336a8 8 0 0 1-8-8V312a8 8 0 0 1 16 0v16A8 8 0 0 1 424 336zM424 288a8 8 0 0 1-8-8V168a8 8 0 0 1 16 0V280A8 8 0 0 1 424 288z"/><path fill="#ea9d2d" d="M152 296a8 8 0 0 1-8-8V272a8 8 0 0 1 16 0v16A8 8 0 0 1 152 296zM152 368a8 8 0 0 1-8-8V320a8 8 0 0 1 16 0v40A8 8 0 0 1 152 368z"/><path fill="#e78244" d="M411.159 132.714a7.975 7.975 0 0 1-3.773-.951l-28.2-15.12a8 8 0 0 1 7.56-14.1l28.2 15.12a8 8 0 0 1-3.787 15.053zM396.038 160.917a7.975 7.975 0 0 1-3.773-.951l-28.2-15.121a8 8 0 0 1 7.561-14.1l28.2 15.121a8 8 0 0 1-3.787 15.053z"/></svg>