<svg xmlns="http://www.w3.org/2000/svg" viewBox="0 0 32 32"><path fill="#231f20" d="M16,27.18a1,1,0,0,1-.71-.29L9.11,20.71a1,1,0,0,1,0-1.42,1,1,0,0,1,1.41,0L16,24.77l8.52-8.52a5.53,5.53,0,1,0-7.81-7.82,1,1,0,0,1-1.42,0,5.53,5.53,0,0,0-9.22,5.43,1,1,0,0,1-1.92.54A7.52,7.52,0,0,1,16,6.4a7.52,7.52,0,0,1,9.94,11.26l-9.23,9.23A1,1,0,0,1,16,27.18Zm1.93-6.81L19.68,16H22a1,1,0,0,0,0-2H19a1,1,0,0,0-.93.63l-1,2.46L15,10.68a1,1,0,0,0-1.9,0L11.28,16H3a1,1,0,0,0,0,2h9a1,1,0,0,0,.95-.68L14,14.16l2.05,6.16A1,1,0,0,0,17,21h0A1,1,0,0,0,17.93,20.37Z" data-name="Heart Rate"/></svg>