<svg xmlns="http://www.w3.org/2000/svg" data-name="Layer 1" viewBox="0 0 512 512"><path fill="#f2f2f2" d="M398.11 176.73v256.09A71.938 71.938 0 0 1 326 504.5H79.61c-38.66 0-70.22-30.25-72.03-68.24-.05-1.14-.08-2.29-.08-3.44V176.38a71.549 71.549 0 0 1 56.79-70.04l7.21-1.56a23.93 23.93 0 0 0 18.93-23.35v-9.42h222.35v9.3a23.917 23.917 0 0 0 19.07 23.38l9.06 1.9a71.618 71.618 0 0 1 57.2 70.14Z"/><path fill="#dedede" d="M396.92 163.74a71.89 71.89 0 0 0-56.01-57.15l-9.06-1.9a23.917 23.917 0 0 1-19.07-23.38v-9.3h-30v9.3a23.917 23.917 0 0 0 19.07 23.38l9.06 1.9a71.618 71.618 0 0 1 57.2 70.14v256.09A71.938 71.938 0 0 1 296 504.5h30a71.938 71.938 0 0 0 72.11-71.68V176.73a71.488 71.488 0 0 0-1.19-12.99Z"/><rect width="258.407" height="64.514" x="72.402" y="7.5" fill="#f66" rx="15"/><path fill="#ff4e4e" d="M315.81 7.5h-30a15 15 0 0 1 15 15v34.514a15 15 0 0 1-15 15h30a15 15 0 0 0 15-15V22.5a15 15 0 0 0-15-15Z"/><path fill="#f66" d="M398.11 436.26H7.58c-.05-1.14-.08-2.29-.08-3.44V176.38l390.61.35v259.53Z"/><path fill="#f66" d="M398.03 436.26c.05-1.14.08-2.29.08-3.44v3.44Z"/><path fill="#ff4e4e" d="M7.5 176.38v.027l360.61.323v111.286a16.162 16.162 0 0 1-8.819 14.524l-.1.05a32.475 32.475 0 0 0-18.18 29.14v104.53l15 32.4c0 12.08-8.99 22.76.22 29.26a71.7 71.7 0 0 0 41.788-61.66h.091V176.73Z"/><path fill="#dedede" d="M398.03 436.26a71.708 71.708 0 0 1-41.8 61.66 35.75 35.75 0 0 1-15.22-29.26v-32.4Z"/><path fill="#f2f2f2" d="M468.137 273.461v-1.813h-75.769v1.813a32.498 32.498 0 0 1-18.181 29.133 32.498 32.498 0 0 0-18.182 29.132v22.371l15 30.688-15 48.032v35.842a35.95 35.95 0 0 0 36.057 35.841h76.381a35.95 35.95 0 0 0 36.057-35.841V331.726a32.498 32.498 0 0 0-18.181-29.132 32.498 32.498 0 0 1-18.182-29.133Z"/><path fill="#dedede" d="M486.319 302.594a32.498 32.498 0 0 1-18.182-29.133v-1.813h-30v1.813a32.498 32.498 0 0 0 18.182 29.133 32.498 32.498 0 0 1 18.181 29.132V468.66a35.95 35.95 0 0 1-36.057 35.841h30a35.95 35.95 0 0 0 36.057-35.841V331.726a32.498 32.498 0 0 0-18.181-29.132Z"/><rect width="99.088" height="33.72" x="380.709" y="237.928" fill="#66c1ff" rx="7"/><path fill="#4eb7ff" d="M472.797 237.928h-30a7 7 0 0 1 7 7v19.72a7 7 0 0 1-7 7h30a7 7 0 0 0 7-7v-19.72a7 7 0 0 0-7-7Z"/><path fill="#66c1ff" d="M356.005 354.097H504.5v78.72H356.005z"/><path fill="#4eb7ff" d="M474.5 354.097h30v78.72h-30z"/><path fill="#ffd6a1" d="M291.65 353.6c-6.53 8.47-16.59 16.06-25.29 22.19a148.146 148.146 0 0 1-54.44 23.65 62.057 62.057 0 0 1-24.62-.76c-7.48-1.78-16.37 2.9-24.11 3.61-7.76.71-17.83 1.28-24.87-2.51-6.4-3.45-11.77-9.43-15.41-15.63-7.39-12.58-8.59-28.58-1.9-41.71 9.49-18.62 32.17-27.57 52.52-21.19a44.755 44.755 0 0 1 10.18 4.66c.26-.27.59-.6.98-.97a36.909 36.909 0 0 1 41.48-6.72V280.6c.26-1.01 2.11-8.68-2.85-15.1-.52-.68-4.68-5.92-10.83-6.27-3.27-.19-3.45 1.43-7.69 1.42-5.34-.01-7.09-2.08-11.4-1.71-4.97.43-5.68 3.46-9.4 3.99-6.63.95-14.64-7.14-17.1-13.96-4.29-11.87 4.61-24.52 13.01-32.03 7.89-7.05 11.74-5.09 21.25-1.55a154.563 154.563 0 0 1 41.26 23.03 206.842 206.842 0 0 1 50.78 97.96c1.43 6.78 3.19 11.07-1.55 17.22Z"/><path fill="#ffc570" d="M178.43 334.2a28.427 28.427 0 0 0-1.84 14.89c-1.611-1.233-6.328-5.18-7.305-11.554a20.91 20.91 0 0 1 1.019-9.336 26.802 26.802 0 0 1 3.226-6.95 44.755 44.755 0 0 1 10.18 4.66c.26-.27.59-.6.98-.97 0 .01.01.02.01.03a27.994 27.994 0 0 0-6.27 9.23Z"/></svg>