<svg xmlns="http://www.w3.org/2000/svg" viewBox="0 0 32 32"><path d="M25.19 1c-2.004 0-3.63 1.626-3.63 3.629s1.626 3.639 3.63 3.639c2.012 0 3.638-1.636 3.638-3.639S27.202 1 25.189 1zm1.862 10.846a1.92 1.92 0 0 0-1.474.114l-1.766.893-1.06-4.182a3.24 3.24 0 0 0-1.99-2.228l-5.028-1.899a2.897 2.897 0 0 0-2.743.374L9.314 7.616a1.94 1.94 0 0 0-.414 2.708 1.945 1.945 0 0 0 2.705.414l3.254-2.387 2.898 1.095-3.776 5.699c-.436.654-.431 1.518-.003 2.132l3.82 5.799-2.038 5.292c-.38.991.114 2.111 1.078 2.487.226.097.47.145.725.145a1.93 1.93 0 0 0 1.803-1.238l2.226-5.76a2.903 2.903 0 0 0-.288-2.642l-3.394-5.146 1.996-3.016.45 1.776a2.89 2.89 0 0 0 1.609 1.928c.793.362 1.73.346 2.514-.05l2.846-1.437a1.94 1.94 0 0 0 .854-2.6 1.93 1.93 0 0 0-1.127-.969z"/><path d="M14.06 18.392a1.937 1.937 0 0 0-2.724.28l-2.228 2.737h-4c-1.067 0-1.936.868-1.936 1.935s.869 1.936 1.936 1.936h4.46c.877 0 1.699-.39 2.252-1.071l2.519-3.094c.326-.401.477-.905.424-1.42a1.92 1.92 0 0 0-.704-1.303z"/></svg>