<svg xmlns="http://www.w3.org/2000/svg" viewBox="0 0 1024 1024"><path d="M863.6 383.3C839 365.7 809.3 358 779.3 358H494.1c-10.8 0-21.5-.3-32.3 0-1.2 0-2.5.1-3.7.3-22.3 2.3-41.9 19.5-47.4 41.2-2.1 8.3-1.8 16.5-1.8 24.9V552H160V291.8c0-23.6.3-47.3 0-70.9v-1c0-20.9-18.4-41-40-40-21.7 1-40 17.6-40 40v584c0 20.9 18.4 41 40 40 21.7-1 40-17.6 40-40V710h684v93.9c0 20.9 18.4 41 40 40 21.7-1 40-17.6 40-40v-227c0-1 0-1.9-.1-2.9-.4-4.6-1.6-9.2-3.6-13.4 2.3 3.3 3.7 7.2 3.7 11.4v-73.5c-.3-46.1-23.1-88.4-60.4-115.2z"/><path d="M371.1 444.2c-.5-36.8-23.6-68.3-57.8-81.2-32.4-12.2-72.4-1.5-94.3 25.3-23.3 28.4-28 68.6-8.8 100.6 19.1 31.8 56 47.3 92.1 40.4 39.5-7.5 67.8-44 68.7-83.5v-1.2c0-.2.1-.3.1-.4z"/></svg>