<svg xmlns="http://www.w3.org/2000/svg" data-name="Layer 1" viewBox="0 0 128 128"><rect width="34.334" height="13.736" x="11.083" y="62.25" fill="#fec13b" rx="1.75" ry="1.75"/><path fill="#ba68c8" d="M45.329 62.488a12.745 12.745 0 0 0-1.608-4.945 1.75 1.75 0 0 0-1.521-.883h-.006a1.748 1.748 0 0 0-1.52.893A9.161 9.161 0 0 1 23.52 53.08v-.16a1.75 1.75 0 0 0-2.113-1.712A13.076 13.076 0 0 0 11.08 64a1.75 1.75 0 0 0 1.75 1.75h30.84A1.75 1.75 0 0 0 45.42 64a13.068 13.068 0 0 0-.091-1.512Z"/><path fill="#ffa000" d="M36.84 75.986h6.827a1.75 1.75 0 0 0 1.75-1.75V64a1.75 1.75 0 0 0-1.75-1.75H36.84Z"/><path fill="#495766" d="M43.59 72.49H14.58V29.45a1.75 1.75 0 0 0-1.75-1.75H1.75A1.75 1.75 0 0 0 0 29.45v69.1a1.75 1.75 0 0 0 1.75 1.75h12a1.75 1.75 0 0 0 1.75-1.75 10.422 10.422 0 0 1 10.41-10.41h14.43a1.751 1.751 0 0 0 1.6-1.05l3.25-7.45a1.76 1.76 0 0 0 .146-.7v-4.7a1.75 1.75 0 0 0-1.746-1.75zm82.66 0H55.14a1.75 1.75 0 0 0-1.75 1.75v4.336l-3.09 7.116a1.749 1.749 0 0 0 1.6 2.448h50.19a10.422 10.422 0 0 1 10.41 10.41 1.75 1.75 0 0 0 1.75 1.75h12a1.75 1.75 0 0 0 1.75-1.75V74.24a1.75 1.75 0 0 0-1.75-1.75z"/><path fill="#f6b493" d="M32.68 40.42a12.724 12.724 0 0 0-12.66 12.5v.16a12.66 12.66 0 1 0 12.66-12.66Z"/><rect width="19.061" height="30.73" x="53.39" y="45.26" fill="#ba68c8" rx="1.75" ry="1.75"/><path fill="#f6b493" d="M56.89 45.26h-4.81A10.24 10.24 0 0 0 41.84 55.5v23.075L38.3 86.71a7.34 7.34 0 0 0 .1 6.29 6.83 6.83 0 0 0 4.721 3.59 7.095 7.095 0 0 0 8.01-4.06l5.609-12.892a1.752 1.752 0 0 0 .146-.7Z"/><path fill="#ab47bc" d="M36.84 65.75h6.83A1.75 1.75 0 0 0 45.42 64a13.068 13.068 0 0 0-.091-1.512 12.745 12.745 0 0 0-1.608-4.945 1.75 1.75 0 0 0-1.521-.883h-.006a1.748 1.748 0 0 0-1.52.893 9.172 9.172 0 0 1-3.835 3.663Z"/><path fill="#e59a7a" d="M45.34 53.08a12.608 12.608 0 0 0-3.56-8.78 15.186 15.186 0 0 0-4.94 11.2v9.534a12.649 12.649 0 0 0 8.5-11.954Z"/><path fill="#f6b493" d="M56.89 45.26h-4.81A10.24 10.24 0 0 0 41.84 55.5v23.075L38.3 86.71a7.34 7.34 0 0 0 .1 6.29 6.83 6.83 0 0 0 4.721 3.59 7.095 7.095 0 0 0 8.01-4.06l5.609-12.892a1.752 1.752 0 0 0 .146-.7Z"/><path fill="#f6b493" d="M56.89 45.26h-4.81A10.24 10.24 0 0 0 41.84 55.5v23.075L38.3 86.71a7.34 7.34 0 0 0 .1 6.29 6.83 6.83 0 0 0 4.721 3.59 7.095 7.095 0 0 0 8.01-4.06l5.609-12.892a1.752 1.752 0 0 0 .146-.7Z"/><path fill="#4db6ac" d="M111.38 45.26H68.95v30.73H128V61.88a16.62 16.62 0 0 0-16.62-16.62Z"/><path fill="#ba68c8" d="M53.217 37.75h-6.551a1.75 1.75 0 0 1-1.237-2.987l3.562-3.563h-2.658a1.75 1.75 0 0 1 0-3.5h6.884a1.75 1.75 0 0 1 1.237 2.987l-3.562 3.563h2.325a1.75 1.75 0 1 1 0 3.5zm17.111-4.003h-9.317a1.75 1.75 0 0 1-1.237-2.987l6.33-6.331h-5.567a1.75 1.75 0 0 1 0-3.5h9.791a1.75 1.75 0 0 1 1.237 2.987l-6.33 6.331h5.093a1.75 1.75 0 0 1 0 3.5z"/></svg>