<svg xmlns="http://www.w3.org/2000/svg" viewBox="0 0 512 512"><path fill="#DDD3D4" d="M121.568 408.654h25.538v12h-25.538zM63.95 336.937h20.772v12H63.95zM123.95 298.882h20.772v12H123.95zM100.556 336.937h72.305v12h-72.305zM31.056 298.882h72.307v12H31.056z"/><path fill="#DCD3D4" d="m316.191 261.19 20.314-40.318 104.182-117.806-70.347-52.907c-4.896-3.682-11.874-2.531-15.329 2.527l-75.862 111.072-22.901 10.542-1.851-4.378c-2.174-5.146-8.116-7.543-13.253-5.35l-72.002 30.759c-20.607 8.803-30.413 32.453-22.078 53.255l62.909 160.068h-51.315v12h61.952l36.466 34.564c6.4 6.166 19.37 8.414 28.258 8.414h40.771v-28.733c0-15.026-9.809-27.755-23.368-32.153l-16.077-53.082 29.395-88.736c.045.09.092.172.136.262z"/><path fill="#F3B5AF" d="M397.117 45.751 307.53 176.917l-17.107 7.752s3.3 9.324-10.789 18.437c-14.089 9.113-2.72 47.8 19.062 45.755 21.779-2.044 42.668-6.997 53.26 14.681l20.314-40.318 104.18-117.806-79.333-59.667z"/><path fill="#F2463E" d="M327.922 414.882c18.668 0 33.801 15.134 33.801 33.802v7.033a6.575 6.575 0 0 1-6.576 6.576h-39.703a34.338 34.338 0 0 1-23.828-9.612l-53.239-51.304-64.24-160.337c-3.583-8.943.632-19.112 9.493-22.897l93.134-39.785c5.136-2.194 11.078.203 13.252 5.349l1.937 4.583a2.42 2.42 0 0 1-1.239 3.151c-14.534 6.523-21.338 23.349-15.424 38.143 5.52 13.806 20.393 21.407 34.814 17.794l5.828-1.46c14.83-3.716 30.007 4.683 34.736 19.222l2.068 6.361-30.457 91.948 16.584 54.761"/><path fill="#DC4038" d="M294.193 188.136a2.423 2.423 0 0 1-1.24 3.15 29.79 29.79 0 0 0-7.68 4.979c-2.24 2-4.13 4.32-5.64 6.84a29.731 29.731 0 0 0-2.58 5.511c-9.66 11.16-28.591 36.592-20.29 89.499 10.528 67.104-7.162 75.761-22.022 89.491l-58.367-146.721c-3.58-8.95.63-19.12 9.49-22.899l93.14-39.79c5.13-2.19 11.08.21 13.25 5.35l1.939 4.59z"/><path fill="#DCD3D4" d="M363.584 442.477h-41.15a22.113 22.113 0 0 1-16.545-7.441l-20.491-23.109a41.355 41.355 0 0 0-37.945-11.979l-6.657 1.324 55.577 54.828a32.806 32.806 0 0 0 23.041 9.452h44.17v-23.075z"/><path fill="#FFF" d="m206.196 210.876 31.016 77.676s7 21.333-21.182 48.917l-39.474-95.088c-3.71-9.411 2.953-20.47 12.383-24.133l17.257-7.372z"/><path fill="#DCD3D4" d="M228.555 321.918c-3.15 4.86-7.35 10.08-12.94 15.551l-39.47-95.09c-3.13-7.931 2.855-18.036 9.905-22.896l42.505 102.435z"/><path fill="#FFF" d="m282.294 332.624 11.808 2.142-2.88 15.874-11.807-2.142zM292.779 274.828l11.807 2.142-8.747 48.217-11.808-2.142z"/><path fill="#142546" d="M426 457.633h23.967v12H426zM42.545 457.633h35v12h-35zM370.143 457.057v-7.031c0-16.524-10.119-30.729-24.486-36.739l-14.664-48.416 12.814-38.685c4.482 5.9 11.96 11.35 23.925 14.52l3.073-11.6c-16.641-4.409-20.195-13.2-20.801-18.244.172.004.343.021.516.021 13.646 0 24.748-11.103 24.748-24.749 0-10.641-6.612-19.777-16.262-23.254l18.271-36.263 103.667-117.225-8.989-7.949L367.26 219.829l-16.059 31.872c-8.473-9.135-21.542-13.461-34.309-10.264l-5.826 1.459c-11.457 2.87-23.402-3.234-27.786-14.2a23.66 23.66 0 0 1 12.31-30.441c3.611-1.62 5.541-5.561 4.81-9.314l11.435-7.687 90.237-132.12-9.909-6.767-88.936 130.213-8.229 5.532a16.022 16.022 0 0 0-5.832-4.057 15.976 15.976 0 0 0-12.339.124l-93.133 39.785c-11.763 5.025-17.463 18.773-12.706 30.647l64.718 161.532 53.432 51.488H94.545v12H411.212v-12h-41.099c.01-.19.03-.379.03-.574zM352.93 298.646l7.001-21.136a12.719 12.719 0 0 1 3.337 8.622c0 6.206-4.458 11.384-10.338 12.514zm-130.173 42.917L235.5 321.94c8.349-12.855 9.968-29.043 4.331-43.301a7689.264 7689.264 0 0 0-14.686-36.785l-11.136 4.473a7579.325 7579.325 0 0 1 14.662 36.725 35.526 35.526 0 0 1-3.236 32.354l-8.138 12.531-35.172-87.785c-2.352-5.87.466-12.666 6.28-15.15l14.519-6.202c1.803 4.467 4.528 11.223 7.661 19.011l11.133-4.479c-3.188-7.923-5.953-14.779-7.756-19.246l67.578-28.868a4.057 4.057 0 0 1 3.133-.031 4.053 4.053 0 0 1 2.234 2.199l.641 1.514c-15.345 8.747-22.104 27.512-15.411 44.254 6.603 16.516 24.596 25.711 41.845 21.387l5.826-1.46c11.725-2.938 23.834 3.765 27.573 15.257l1.46 4.489-5.275 15.926h-13.121v12h9.146l-2.475 7.468h-12.07v12h8.096l-2.475 7.469h-11.846v12h7.871l-2.474 7.469h-9.899v12h5.924l-1.84 5.554 13.799 45.558a39.687 39.687 0 0 0-1.861-.043h-3.545l-22.189-40.043 21.932-100.659-11.725-2.555-22.894 105.07 21.16 38.186h-5.55v12h14.654v-.004h8.157c10.994 0 20.518 6.416 25.025 15.701h-32.934c-4.606 0-9-1.977-12.057-5.423l-20.49-23.109-.152-.167c-11.246-11.76-27.49-16.887-43.451-13.715l-1.771.352-21.754-54.299zm95.106 116.07a28.2 28.2 0 0 1-19.664-7.932l-44.662-43.039c10.229-.59 20.213 3.258 27.449 10.778l20.412 23.022a28.134 28.134 0 0 0 21.035 9.461h35.707l.002.102v7.031a.576.576 0 0 1-.576.576h-39.703z"/><path fill="#142546" d="M127.506 398.445h25.538v12h-25.538zM164.596 398.445h57.372v12h-57.372zM69.888 326.729H90.66v12H69.888zM129.888 288.674h20.773v12h-20.773zM106.494 326.729h78.629v12h-78.629zM36.994 288.674h72.307v12H36.994z"/></svg>