<svg xmlns="http://www.w3.org/2000/svg" viewBox="0 0 48 48"><path fill="#D2D3D3" d="M35.2 47.3H12.8c-2.2 0-4-1.8-4-4V17.8c0-3.9 3.1-7 7-7h16.3c3.9 0 7 3.1 7 7v25.4c.1 2.3-1.7 4.1-3.9 4.1z"/><path fill="#333" d="M35.2 48H12.8c-2.6 0-4.7-2.1-4.7-4.7V17.8c0-4.3 3.5-7.7 7.7-7.7h16.3c4.3 0 7.7 3.5 7.7 7.7v25.5c.1 2.6-2 4.7-4.6 4.7zM15.8 11.6c-3.4 0-6.2 2.8-6.2 6.2v25.5c0 1.8 1.5 3.2 3.2 3.2h22.3c1.8 0 3.2-1.5 3.2-3.2V17.8c0-3.4-2.8-6.2-6.2-6.2H15.8z"/><path fill="#F68C1F" d="M16 7.2h16.1v3.6H16z"/><path fill="#333" d="M32 11.6H16c-.4 0-.7-.3-.7-.7V7.2c0-.4.3-.7.7-.7h16c.4 0 .7.3.7.7v3.6c.1.4-.2.8-.7.8zm-15.3-1.5h14.6V8H16.7v2.1z"/><path fill="#E34C4C" d="M8.8 19.5h30.3v19.1H8.8z"/><path fill="#333" d="M39.2 39.3H8.8c-.4 0-.7-.3-.7-.7V19.5c0-.4.3-.7.7-.7h30.3c.4 0 .7.3.7.7v19.1c.1.4-.2.7-.6.7zM9.6 37.8h28.8V20.2H9.6v17.6z"/><path fill="#333" d="M16 7.2h16.1v2H16z" opacity=".15"/><path fill="#FDB814" d="M32.3 7.2H15.7c-1.1 0-2-.9-2-2V2.7c0-1.1.9-2 2-2h16.5c1.1 0 2 .9 2 2v2.5c.1 1.1-.8 2-1.9 2z"/><path fill="#333" d="M32.3 8H15.7C14.2 8 13 6.7 13 5.2V2.7C13 1.2 14.2 0 15.7 0h16.5C33.8 0 35 1.2 35 2.7v2.5C35 6.7 33.8 8 32.3 8zM15.7 1.5c-.7 0-1.2.6-1.2 1.2v2.5c0 .7.6 1.2 1.2 1.2h16.5c.7 0 1.2-.6 1.2-1.2V2.7c0-.7-.6-1.2-1.2-1.2H15.7z"/><path fill="#FFF" d="M22 35c-1.5.6-3.1-.2-3.7-1.6l-2.6-6.6c-.6-1.5.2-3.1 1.6-3.7 1.5-.6 3.1.2 3.7 1.6l2.6 6.6c.6 1.5-.1 3.1-1.6 3.7z"/><path fill="#333" d="M17.6 33.7 15 27c-.7-1.9.2-4 2-4.7 1.8-.7 4 .2 4.7 2l2.6 6.6c.7 1.9-.2 4-2 4.7-1.8.8-4-.1-4.7-1.9zm0-10c-1.1.4-1.6 1.7-1.2 2.7L19 33c.4 1.1 1.7 1.6 2.7 1.2 1.1-.4 1.6-1.7 1.2-2.7l-2.6-6.6c-.4-1.1-1.6-1.6-2.7-1.2z"/><path fill="#FFF" d="m17 30.1 5.3-2.1"/><path fill="#333" d="M17 30.8c-.3 0-.6-.2-.7-.5-.2-.4 0-.8.4-1l5.3-2.1c.4-.2.8 0 1 .4.2.4 0 .8-.4 1l-5.3 2.1c-.1.1-.2.1-.3.1z"/><circle cx="29.1" cy="29.4" r="3.4" fill="#FFF"/><path fill="#333" d="M29.1 33.6c-2.3 0-4.1-1.9-4.1-4.1s1.9-4.1 4.1-4.1 4.1 1.9 4.1 4.1-1.8 4.1-4.1 4.1zm0-6.8c-1.5 0-2.6 1.2-2.6 2.6 0 1.5 1.2 2.6 2.6 2.6 1.5 0 2.6-1.2 2.6-2.6 0-1.4-1.1-2.6-2.6-2.6z"/><path fill="#FFF" d="M11.8 17.3c-.4-.1-.6-.6-.5-.9.6-1.9 2.5-3.3 4.5-3.3H23c.4 0 .7.3.7.7 0 .4-.3.7-.7.7h-7.1c-1.4 0-2.6.9-3.1 2.2-.2.5-.6.7-1 .6zM26.3 14.6h-1c-.4 0-.7-.3-.7-.7 0-.4.3-.7.7-.7h1c.4 0 .7.3.7.7 0 .3-.3.7-.7.7z"/></svg>