<svg xmlns="http://www.w3.org/2000/svg" data-name="Layer 1" viewBox="0 0 64 64"><path fill="#2a2f63" d="M25.37,15.06h4.87L23.42,40h-12ZM14.93,55.82H9.16V54.34h5.77ZM56.81,40H25.43l6.83-24.93h4.49a1,1,0,0,0,0-1.94h-15L17.11,6.64a1,1,0,0,0-1.35-.22,1,1,0,0,0-.23,1.36l5,6.87a1,1,0,0,0,.79.41h1.87L9.19,40h-2a7.18,7.18,0,1,0,0,14.35h0v2.45a1,1,0,0,0,1,1H15.9a1,1,0,0,0,1-1V54.34H47.12v2.45a1,1,0,0,0,1,1H55.8a1,1,0,0,0,1-1V54.34h0a7.18,7.18,0,1,0,0-14.35Zm-2,15.83H49.06V54.34h5.77Zm2-3.42H7.18a5.24,5.24,0,1,1,0-10.47H56.81a5.24,5.24,0,1,1,0,10.47Z"/><rect width="5.77" height="1.48" x="49.06" y="54.34" fill="#bcd2d8"/><rect width="5.77" height="1.48" x="9.16" y="54.34" fill="#bcd2d8"/><polygon fill="#f4cf73" points="30.25 15.06 23.42 39.99 11.42 39.99 25.37 15.06 30.25 15.06"/><polygon fill="#ffdc7c" points="26.79 15.06 12.85 39.99 11.42 39.99 25.37 15.06 26.79 15.06"/><polygon fill="#eac36c" points="30.25 15.06 23.42 39.99 22.04 39.99 28.87 15.06 30.25 15.06"/><path fill="#cadee5" d="M8.36,51a3.88,3.88,0,1,1,3.88-3.88A3.88,3.88,0,0,1,8.36,51Zm48.45-9.11H7.18a5.24,5.24,0,1,0,0,10.47H56.81a5.24,5.24,0,1,0,0-10.47ZM55.63,51a3.88,3.88,0,1,1,3.88-3.88A3.88,3.88,0,0,1,55.63,51Z"/><path fill="#bcd2d8" d="M62,47.46a5.23,5.23,0,0,1-5.23,4.94H7.18A5.22,5.22,0,0,1,2,47.46c.21,1.47,2,2.65,4.22,2.92h0a3.88,3.88,0,0,0,4.24.06H53.57a3.85,3.85,0,0,0,4.22-.06C60.06,50.12,61.83,48.93,62,47.46Z"/><path fill="#d7e9f2" d="M62.06,47.16c0-1.6-1.84-2.93-4.27-3.21a3.85,3.85,0,0,0-4.22-.06H10.43A3.88,3.88,0,0,0,6.19,44h0c-2.42.29-4.24,1.61-4.24,3.21a5.24,5.24,0,0,1,5.24-5.23H56.81A5.25,5.25,0,0,1,62.06,47.16Z"/><path fill="#2a2f63" d="M8.36,43.29a3.88,3.88,0,1,0,3.88,3.87A3.88,3.88,0,0,0,8.36,43.29Zm0,5.81a1.94,1.94,0,1,1,1.94-1.94A1.94,1.94,0,0,1,8.36,49.1Z"/><circle cx="8.36" cy="47.16" r="1.94" fill="#ededed"/><path fill="#2a2f63" d="M55.63,43.29a3.88,3.88,0,1,0,3.88,3.87A3.88,3.88,0,0,0,55.63,43.29Zm0,5.81a1.94,1.94,0,1,1,1.94-1.94A1.94,1.94,0,0,1,55.63,49.1Z"/><circle cx="55.63" cy="47.16" r="1.94" fill="#ededed"/></svg>