<svg xmlns="http://www.w3.org/2000/svg" viewBox="0 0 48 48"><g data-name="19-time"><circle cx="24" cy="28" r="19" fill="#6ee1ef"/><circle cx="24" cy="28" r="15" fill="#ef4136"/><circle cx="24" cy="28" r="11" fill="#f1f2f2"/><path fill="#ffd241" d="M20 1h8v4h-8z"/><path fill="#ffb028" d="M22 5h4v4h-4z"/><path d="M24 48a20 20 0 1 1 20-20 20.023 20.023 0 0 1-20 20Zm0-38a18 18 0 1 0 18 18 18.021 18.021 0 0 0-18-18Z"/><path d="M24 44a16 16 0 1 1 16-16 16.019 16.019 0 0 1-16 16Zm0-30a14 14 0 1 0 14 14 14.015 14.015 0 0 0-14-14Z"/><path d="M24 40v-2a10.011 10.011 0 0 0 10-10h2a12.013 12.013 0 0 1-12 12zM14 28h-2a12.013 12.013 0 0 1 12-12v2a10.011 10.011 0 0 0-10 10zM28 6h-8a1 1 0 0 1-1-1V1a1 1 0 0 1 1-1h8a1 1 0 0 1 1 1v4a1 1 0 0 1-1 1zm-7-2h6V2h-6z"/><path d="M21 5h2v4h-2zM25 5h2v4h-2zM24 29h-8v-2h7v-7h2v8a1 1 0 0 1-1 1ZM26 16h2v2h-2zM20 38h2v2h-2zM12 30h2v2h-2zM34 24h2v2h-2zM10 12a1 1 0 0 1-.556-1.832l3-2a1 1 0 0 1 1.11 1.664l-3 2A1 1 0 0 1 10 12zm28 0a1 1 0 0 1-.554-.168l-3-2a1 1 0 0 1 1.11-1.664l3 2A1 1 0 0 1 38 12z"/></g></svg>