<svg xmlns="http://www.w3.org/2000/svg" viewBox="0 0 32 32"><g data-name="Layer 2"><path d="M15.45 30.46a9.46 9.46 0 0 1-1.86-.18A10.73 10.73 0 0 1 5 19.78c0-6.42 6.14-14.28 8.78-17.36a2.57 2.57 0 0 1 1.92-.9 2.59 2.59 0 0 1 1.92.86c3.48 3.87 14.14 17.11 5.35 25a11.42 11.42 0 0 1-7.52 3.08Zm.29-26.94a.62.62 0 0 0-.43.2C12.8 6.63 7 14 7 19.78a8.73 8.73 0 0 0 7 8.54 9 9 0 0 0 7.69-2.39c7.41-6.69-2.33-18.7-5.5-22.22a.58.58 0 0 0-.46-.19Z"/><path d="M16 26a1 1 0 0 1-1.09 1 7.72 7.72 0 0 1-6.53-6.5 1 1 0 0 1 1-1.15 1 1 0 0 1 1 .87 5.74 5.74 0 0 0 4.8 4.8.94.94 0 0 1 .8.93Z"/></g></svg>