<svg xmlns="http://www.w3.org/2000/svg" enable-background="new 0 0 140 140" viewBox="0 0 140 140"><path fill="#edf5f6" d="M102.8546829,126.0446777H37.1464157c-1.2700157,0-2.3390121-0.9505463-2.487484-2.211853
			L23.8056355,16.7528477c-0.1752815-1.4890575,0.9881458-2.7974691,2.487484-2.7974691h87.414856
			c1.4993439,0,2.6627731,1.3084116,2.4874878,2.7974691l-10.8532944,107.0799789
			C105.1936951,125.0941315,104.1247025,126.0446777,102.8546829,126.0446777z"/><path fill="#d7e0e9" d="M96.8967743,13.9553251l-8.1850357,112.0893555h14.1429443
			c1.2700195,0,2.3390121-0.9505463,2.4874878-2.211853l10.8532944-107.0800323
			c0.1752853-1.4890566-0.9881439-2.7974691-2.4874878-2.7974691H96.8967743z"/><polygon fill="#fff" points="51.571 13.955 59.756 126.045 43.386 126.045 35.201 13.955"/><path fill="#70d8fb" d="M85.3755798,64.3092957c-17.1287537,0-13.6259613,8.1850357-30.7547188,8.1850357
				c-13.706501,0-16.4506683-5.2391205-25.7763977-7.33284l5.8497314,58.6271973
				c0.1277809,1.2806244,1.2053032,2.2559891,2.4922829,2.2559891h65.6281433c1.2869797,0,2.364502-0.9753647,2.4922791-2.2559891
				l5.2174377-52.2907562C101.6923599,69.3162918,98.7728424,64.3092957,85.3755798,64.3092957z"/><path fill="#231f20" d="M102.8144302,126.920372H37.1866722c-1.7445526,0-3.1906509-1.3088455-3.3638229-3.0448456
				L27.9730301,65.24823c-0.027792-0.2796478,0.0803871-0.5558701,0.29076-0.7422943
				c0.2108002-0.1864319,0.4972839-0.2616806,0.7726498-0.1988297c3.5947247,0.8068619,6.255167,2.0772171,8.8283863,3.3056793
				c4.3143539,2.060112,8.3896828,4.0060577,16.7558479,4.0060577c8.3216972,0,11.5303116-1.9271317,14.9266357-3.9675751
				c3.4519043-2.0737991,7.0214005-4.21772,15.8284149-4.21772c8.7629623,0,13.2081604,2.1238251,17.5071182,4.177948
				c2.4436569,1.1677399,4.7521973,2.2704926,7.8513489,3.0363007c0.4228821,0.104332,0.7046661,0.5036926,0.6614761,0.9368439
				l-5.2174149,52.2908859C106.0050812,125.6115265,104.5589828,126.920372,102.8144302,126.920372z M29.8390198,66.3082123
				l5.7266731,57.3937149c0.0833778,0.8363571,0.7803459,1.4670486,1.6209793,1.4670486h65.6277618
				c0.8406296,0,1.5375977-0.6306915,1.6209793-1.4670486l5.143013-51.5456085
				c-2.9174271-0.7987289-5.2191238-1.8984833-7.4506989-2.9644547c-4.312645-2.0605469-8.386261-4.0069199-16.7519989-4.0069199
				c-8.321701,0-11.5298843,1.9271317-14.9262085,3.9675751c-3.4519119,2.0733719-7.0214043,4.21772-15.8288422,4.21772
				c-8.7629662,0-13.2098694-2.1233978-17.51054-4.1766663C34.8225441,68.1010895,32.6465569,67.0620499,29.8390198,66.3082123z"/><path fill="#1fafeb" d="M94.7639236,65.3871307l-6.0521851,60.657547h14.1028824
			c1.2869797,0,2.364502-0.9753647,2.4922791-2.2559891l5.2174377-52.2907562
			C104.2510147,69.9483337,100.9448242,66.9808578,94.7639236,65.3871307z"/><path fill="#90e1fc" d="M37.6423111,68.4766693l5.7441101,57.5680084h16.3700676l-5.3437843-53.5554199
			C46.0951157,72.455368,41.8394051,70.4799652,37.6423111,68.4766693z"/><path fill="#231f20" d="M54.6206741,73.3702393c-8.7629662,0-13.2098694-2.1233978-17.51054-4.1766663
			c-2.5997276-1.2412872-5.0553589-2.4137268-8.4576683-3.1778259c-0.4716282-0.106041-0.7683735-0.5742493-0.6623325-1.0463104
			c0.1064701-0.4716263,0.5780983-0.7662354,1.0463066-0.6623306c3.5947247,0.8068619,6.255167,2.0772171,8.8283863,3.3056793
			c4.3143539,2.060112,8.3896828,4.0060577,16.7558479,4.0060577c8.3216972,0,11.5303116-1.9271317,14.9266357-3.9675751
			c3.4519043-2.0737991,7.0214005-4.21772,15.8284149-4.21772c8.7629623,0,13.2081604,2.1238251,17.5071182,4.177948
			c2.4436569,1.1677399,4.7521973,2.2704926,7.8513489,3.0363007c0.4694901,0.1158752,0.7559738,0.5904922,0.6400986,1.0599823
			s-0.5917816,0.7564011-1.0599899,0.6400986c-3.2727509-0.808136-5.7707138-2.0019608-8.1865768-3.1560135
			c-4.312645-2.0605469-8.386261-4.0069199-16.7519989-4.0069199c-8.321701,0-11.5298843,1.9271317-14.9262085,3.9675751
			C66.9976044,71.2258911,63.428112,73.3702393,54.6206741,73.3702393z"/><path fill="#231f20" d="M102.8546219,126.920372H37.1464806c-1.7133408,0-3.1564484-1.2831879-3.3574142-2.9849854
			L22.9343472,16.8415375c-0.1111736-0.9441118,0.1919861-1.9070377,0.8329391-2.6279497
			c0.6409531-0.7204838,1.5615463-1.1339607,2.5257549-1.1339607h87.4150238c0.9642029,0,1.8848038,0.4134769,2.5257568,1.1339607
			c0.6409531,0.720912,0.9441071,1.6838379,0.8312225,2.641633l-10.8512955,107.0660553
			C106.0110703,125.6371841,104.5679626,126.920372,102.8546219,126.920372z M26.2930412,14.8310232
			c-0.4716282,0-0.9034901,0.1941252-1.2169113,0.5464563c-0.3134212,0.3523321-0.4558086,0.804718-0.40065,1.2733536
			L35.530201,123.7442551c0.0949249,0.8059998,0.7906113,1.4247208,1.6162796,1.4247208h65.7081451
			c0.8256683,0,1.5213547-0.618721,1.6179886-1.4388275l10.8513031-107.0656281
			c0.0568619-0.4823189-0.0855179-0.9347048-0.398941-1.2870369c-0.3134232-0.3523312-0.745285-0.5464563-1.2169113-0.5464563
			H26.2930412z"/><circle cx="81.358" cy="111.039" r="4.87" fill="#1fafeb"/><circle cx="86.229" cy="88.339" r="4.87" fill="#1fafeb"/><circle cx="63.063" cy="98.079" r="4.87" fill="#1fafeb"/></svg>