<svg xmlns="http://www.w3.org/2000/svg" enable-background="new 0 0 128 128" viewBox="0 0 128 128"><circle cx="64" cy="64" r="63" fill="#B4AAD3"/><path fill="#FFF" d="M110.7,116.2H17.3c-3,0-5.5-2.5-5.5-5.5V17.3c0-3,2.5-5.5,5.5-5.5h93.3c3,0,5.5,2.5,5.5,5.5v93.3    C116.2,113.7,113.7,116.2,110.7,116.2z"/><path fill="#303C42" d="M110.7,118.3H17.3c-4.2,0-7.6-3.4-7.6-7.6V17.3c0-4.2,3.4-7.6,7.6-7.6h93.3c4.2,0,7.6,3.4,7.6,7.6v93.3    C118.3,114.9,114.9,118.3,110.7,118.3z M17.3,13.9c-1.9,0-3.4,1.5-3.4,3.4v93.3c0,1.9,1.5,3.4,3.4,3.4h93.3c1.9,0,3.4-1.5,3.4-3.4    V17.3c0-1.9-1.5-3.4-3.4-3.4H17.3z"/><rect width="53.6" height="25.9" x="37.2" y="19.3" fill="#E8E8E8"/><path fill="#303C42" d="M90.8,47.3H37.2c-1.2,0-2.1-0.9-2.1-2.1V19.3c0-1.2,0.9-2.1,2.1-2.1h53.6c1.2,0,2.1,0.9,2.1,2.1v25.9    C92.9,46.4,92,47.3,90.8,47.3z M39.3,43.1h49.4V21.4H39.3V43.1z"/><path fill="#303C42" d="M82.4,26.4h-5.9c-0.9,0-1.6-0.7-1.6-1.6c0-0.9,0.7-1.6,1.6-1.6h5.9c0.9,0,1.6,0.7,1.6,1.6    C84,25.7,83.3,26.4,82.4,26.4z"/><path fill="#303C42" d="M83.4 32.9c-.9 0-1.6-.7-1.6-1.6v-5.5c0-.9.7-1.6 1.6-1.6s1.6.7 1.6 1.6v5.5C85 32.2 84.3 32.9 83.4 32.9zM75.6 32.9c-.9 0-1.6-.7-1.6-1.6v-5.5c0-.9.7-1.6 1.6-1.6.9 0 1.6.7 1.6 1.6v5.5C77.1 32.2 76.4 32.9 75.6 32.9z"/><path fill="#303C42" d="M83.4 40.2c-.9 0-1.6-.7-1.6-1.6v-5.5c0-.9.7-1.6 1.6-1.6s1.6.7 1.6 1.6v5.5C85 39.5 84.3 40.2 83.4 40.2zM75.6 40.2c-.9 0-1.6-.7-1.6-1.6v-5.5c0-.9.7-1.6 1.6-1.6.9 0 1.6.7 1.6 1.6v5.5C77.1 39.5 76.4 40.2 75.6 40.2z"/><path fill="#303C42" d="M82.4 41.2h-5.9c-.9 0-1.6-.7-1.6-1.6s.7-1.6 1.6-1.6h5.9c.9 0 1.6.7 1.6 1.6S83.3 41.2 82.4 41.2zM66.9 26.4h-5.9c-.9 0-1.6-.7-1.6-1.6 0-.9.7-1.6 1.6-1.6h5.9c.9 0 1.6.7 1.6 1.6C68.5 25.7 67.8 26.4 66.9 26.4zM66.9 33.8h-5.9c-.9 0-1.6-.7-1.6-1.6 0-.9.7-1.6 1.6-1.6h5.9c.9 0 1.6.7 1.6 1.6C68.5 33.1 67.8 33.8 66.9 33.8z"/><path fill="#303C42" d="M67.9 32.9c-.9 0-1.6-.7-1.6-1.6v-5.5c0-.9.7-1.6 1.6-1.6.9 0 1.6.7 1.6 1.6v5.5C69.5 32.2 68.8 32.9 67.9 32.9zM60.1 32.9c-.9 0-1.6-.7-1.6-1.6v-5.5c0-.9.7-1.6 1.6-1.6.9 0 1.6.7 1.6 1.6v5.5C61.7 32.2 61 32.9 60.1 32.9z"/><path fill="#303C42" d="M67.9 40.2c-.9 0-1.6-.7-1.6-1.6v-5.5c0-.9.7-1.6 1.6-1.6.9 0 1.6.7 1.6 1.6v5.5C69.5 39.5 68.8 40.2 67.9 40.2zM60.1 40.2c-.9 0-1.6-.7-1.6-1.6v-5.5c0-.9.7-1.6 1.6-1.6.9 0 1.6.7 1.6 1.6v5.5C61.7 39.5 61 40.2 60.1 40.2z"/><path fill="#303C42" d="M66.9 41.2h-5.9c-.9 0-1.6-.7-1.6-1.6s.7-1.6 1.6-1.6h5.9c.9 0 1.6.7 1.6 1.6S67.8 41.2 66.9 41.2zM51.4 26.4h-5.9c-.9 0-1.6-.7-1.6-1.6 0-.9.7-1.6 1.6-1.6h5.9c.9 0 1.6.7 1.6 1.6C53 25.7 52.3 26.4 51.4 26.4z"/><path fill="#303C42" d="M52.4 32.9c-.9 0-1.6-.7-1.6-1.6v-5.5c0-.9.7-1.6 1.6-1.6.9 0 1.6.7 1.6 1.6v5.5C54 32.2 53.3 32.9 52.4 32.9zM44.6 32.9c-.9 0-1.6-.7-1.6-1.6v-5.5c0-.9.7-1.6 1.6-1.6.9 0 1.6.7 1.6 1.6v5.5C46.2 32.2 45.5 32.9 44.6 32.9z"/><path fill="#303C42" d="M52.4 40.2c-.9 0-1.6-.7-1.6-1.6v-5.5c0-.9.7-1.6 1.6-1.6.9 0 1.6.7 1.6 1.6v5.5C54 39.5 53.3 40.2 52.4 40.2zM44.6 40.2c-.9 0-1.6-.7-1.6-1.6v-5.5c0-.9.7-1.6 1.6-1.6.9 0 1.6.7 1.6 1.6v5.5C46.2 39.5 45.5 40.2 44.6 40.2z"/><g><path fill="#303C42" d="M51.4,41.2h-5.9c-0.9,0-1.6-0.7-1.6-1.6s0.7-1.6,1.6-1.6h5.9c0.9,0,1.6,0.7,1.6,1.6S52.3,41.2,51.4,41.2z"/></g><g><line x1="64" x2="64" y1="56.3" y2="116.2" fill="#FFE8AE"/><path fill="#303C42" d="M64,118.3c-1.2,0-2.1-0.9-2.1-2.1V56.3c0-1.2,0.9-2.1,2.1-2.1s2.1,0.9,2.1,2.1v59.8    C66.1,117.3,65.2,118.3,64,118.3z"/></g></svg>