<svg width="117" height="148" viewBox="0 0 117 148" fill="none" xmlns="http://www.w3.org/2000/svg">
<path d="M94.2045 78.1818V148H83.6705V78.1818H94.2045Z" fill="black"/>
<path d="M8.67045 70V0.181816H33.5568C38.9886 0.181816 43.4886 1.17045 47.0568 3.14772C50.625 5.125 53.2955 7.82954 55.0682 11.2614C56.8409 14.6705 57.7273 18.5114 57.7273 22.7841C57.7273 27.0795 56.8295 30.9432 55.0341 34.375C53.2614 37.7841 50.5795 40.4886 46.9886 42.4886C43.4205 44.4659 38.9318 45.4545 33.5227 45.4545H16.4091V36.5227H32.5682C36 36.5227 38.7841 35.9318 40.9205 34.75C43.0568 33.5455 44.625 31.9091 45.625 29.8409C46.625 27.7727 47.125 25.4205 47.125 22.7841C47.125 20.1477 46.625 17.8068 45.625 15.7614C44.625 13.7159 43.0455 12.1136 40.8864 10.9545C38.75 9.79545 35.9318 9.21591 32.4318 9.21591H19.2045V70H8.67045Z" fill="black"/>
<path d="M62.2273 9.25V0.181816H116.261V9.25H94.4773V70H83.9773V9.25H62.2273Z" fill="black"/>
<mask id="path-4-outside-1_3_2" maskUnits="userSpaceOnUse" x="-2" y="77" width="67" height="72" fill="black">
<rect fill="black" x="-2" y="77" width="67" height="72"/>
<path d="M11.5682 148H0.386364L25.5114 78.1818H37.6818L62.8068 148H51.625L31.8864 90.8636H31.3409L11.5682 148ZM13.4432 120.659H49.7159V129.523H13.4432V120.659Z"/>
</mask>
<path d="M11.5682 148H0.386364L25.5114 78.1818H37.6818L62.8068 148H51.625L31.8864 90.8636H31.3409L11.5682 148ZM13.4432 120.659H49.7159V129.523H13.4432V120.659Z" fill="black"/>
<path d="M11.5682 148V149H12.2803L12.5132 148.327L11.5682 148ZM0.386364 148L-0.554565 147.661L-1.03628 149H0.386364V148ZM25.5114 78.1818V77.1818H24.8084L24.5704 77.8432L25.5114 78.1818ZM37.6818 78.1818L38.6227 77.8432L38.3847 77.1818H37.6818V78.1818ZM62.8068 148V149H64.2295L63.7478 147.661L62.8068 148ZM51.625 148L50.6798 148.327L50.9125 149H51.625V148ZM31.8864 90.8636L32.8316 90.5371L32.5989 89.8636H31.8864V90.8636ZM31.3409 90.8636V89.8636H30.6288L30.3959 90.5366L31.3409 90.8636ZM13.4432 120.659V119.659H12.4432V120.659H13.4432ZM49.7159 120.659H50.7159V119.659H49.7159V120.659ZM49.7159 129.523V130.523H50.7159V129.523H49.7159ZM13.4432 129.523H12.4432V130.523H13.4432V129.523ZM11.5682 147H0.386364V149H11.5682V147ZM1.32729 148.339L26.4523 78.5204L24.5704 77.8432L-0.554565 147.661L1.32729 148.339ZM25.5114 79.1818H37.6818V77.1818H25.5114V79.1818ZM36.7409 78.5204L61.8659 148.339L63.7478 147.661L38.6227 77.8432L36.7409 78.5204ZM62.8068 147H51.625V149H62.8068V147ZM52.5702 147.673L32.8316 90.5371L30.9412 91.1902L50.6798 148.327L52.5702 147.673ZM31.8864 89.8636H31.3409V91.8636H31.8864V89.8636ZM30.3959 90.5366L10.6232 147.673L12.5132 148.327L32.2859 91.1907L30.3959 90.5366ZM13.4432 121.659H49.7159V119.659H13.4432V121.659ZM48.7159 120.659V129.523H50.7159V120.659H48.7159ZM49.7159 128.523H13.4432V130.523H49.7159V128.523ZM14.4432 129.523V120.659H12.4432V129.523H14.4432Z" fill="black" mask="url(#path-4-outside-1_3_2)"/>
</svg>
