<svg xmlns="http://www.w3.org/2000/svg" enable-background="new 0 0 64 64" viewBox="0 0 64 64"><path fill="#1d549c" d="M50.054,28.893L51.3,26.4l-2.167-2.867l-0.877-0.219C47.422,23.105,46.565,23,45.706,23h0
		c-1.13,0-2.252,0.182-3.324,0.539L32,27h-0.001c-3.148-0.001-6.111,1.482-7.999,4l0,0L4.097,37.333C2.848,37.73,2,38.89,2,40.201v0
		c0,0.524,0.137,1.038,0.397,1.493l4.008,5.49C6.779,47.697,7.376,48,8.011,48h0C9.109,48,10,47.109,10,46.011v0
		c0-1.287-0.511-2.522-1.422-3.433L8,42l37.291-8.606L50.054,28.893z"/><path fill="#2b6bb2" d="M50.054,28.893l0.644-1.289l-1.565-2.071l-0.877-0.219C47.422,25.105,46.565,25,45.706,25
		c-1.13,0-2.252,0.182-3.324,0.539L32,29h-0.001c-3.147-0.001-6.111,1.482-7.999,4L4.097,39.333c-0.909,0.289-1.6,0.984-1.912,1.845
		c0.061,0.176,0.119,0.353,0.212,0.516l4.008,5.49C6.779,47.697,7.376,48,8.011,48c0.814,0,1.511-0.49,1.819-1.19
		c-0.214-0.835-0.632-1.612-1.252-2.232L8,44l1.379-0.318c-0.219-0.398-0.474-0.777-0.801-1.104L8,42l37.291-8.606L50.054,28.893z"/><path fill="#52a04f" d="M49.133,23.533l-0.877-0.219C47.422,23.105,46.565,23,45.706,23c-1.13,0-2.252,0.182-3.324,0.539
		L32,27l1.651,9.081l11.64-2.686l4.763-4.502L51.3,26.4L49.133,23.533z"/><path fill="#6db569" d="M48.255,25.314C47.422,25.105,46.565,25,45.706,25c-1.13,0-2.252,0.182-3.324,0.539l-10.039,3.346
		l1.308,7.195l11.64-2.686l4.763-4.502l0.644-1.289l-1.565-2.071L48.255,25.314z"/><path fill="#e8a989" d="M49,22.44L49,22.44c0,2.518,2.041,4.56,4.56,4.56h0c1.591,0,3.147-0.471,4.471-1.354l1.939-1.293
		C61.238,23.508,62,22.084,62,20.56v0c0-2.518-2.042-4.56-4.56-4.56h0c-1.591,0-3.147,0.471-4.471,1.354l-1.939,1.293
		C49.762,19.492,49,20.916,49,22.44z"/><path fill="#f6bb95" d="M61.117 17.883C60.363 17.334 59.444 17 58.44 17c-1.591 0-3.147.471-4.471 1.354l-1.939 1.293C50.762 20.492 50 21.916 50 23.44c0 1.004.334 1.923.883 2.676C51.636 26.666 52.556 27 53.56 27c1.591 0 3.147-.471 4.471-1.354l1.939-1.293C61.238 23.508 62 22.084 62 20.56 62 19.556 61.666 18.636 61.117 17.883zM47.573 27L47.573 27c1.363 0 2.489 1.062 2.569 2.423L51 44h0c2.209 0 4 1.791 4 4v0h-5l0 0c-1.703 0-3.129-1.29-3.299-2.985l-1.53-12.6c-.114-.942-.172-1.89-.172-2.839v0C44.998 28.153 46.151 27 47.573 27z"/><path fill="#3f4042" d="M62,20.56c0-2.518-2.042-4.56-4.56-4.56c-1.591,0-3.147,0.471-4.471,1.354l-1.939,1.293
		c-0.741,0.494-1.303,1.189-1.647,1.982L52.812,22l4-2l3.006,4.454l0.151-0.101C61.238,23.508,62,22.084,62,20.56z"/><path fill="#5a5b5d" d="M61.117,17.883C60.363,17.334,59.444,17,58.44,17c-1.591,0-3.147,0.471-4.471,1.354l-1.939,1.293
		c-0.581,0.387-1.049,0.9-1.393,1.484L52.812,22l4-2l3.006,4.454l0.151-0.101C61.238,23.508,62,22.084,62,20.56
		C62,19.556,61.666,18.636,61.117,17.883z"/><path fill="#969696" d="M4.097,37.333C2.848,37.73,2,38.89,2,40.201c0,0.524,0.137,1.038,0.397,1.493l4.008,5.49
		C6.779,47.697,7.376,48,8.011,48C9.109,48,10,47.109,10,46.011c0-1.287-0.511-2.522-1.422-3.433L8,42l-3.25-4.875L4.097,37.333z"/><path fill="#b5b5b5" d="M10,46.011c0-1.287-0.511-2.522-1.422-3.433L8,42l-2.8-4.2c-0.739,0.558-1.2,1.437-1.2,2.4
		c0,0.524,0.137,1.038,0.397,1.493l4.008,5.49c0.164,0.224,0.375,0.4,0.609,0.536C9.601,47.374,10,46.742,10,46.011z"/><path fill="#52a04f" d="M50.143,29.423C50.062,28.062,48.936,27,47.573,27c-1.422,0-2.575,1.153-2.574,2.575
		c0,0.949,0.058,1.897,0.172,2.839l0.174,1.436l5.024-0.558L50.143,29.423z"/></svg>