<svg xmlns="http://www.w3.org/2000/svg" enable-background="new 0 0 64 64" viewBox="0 0 64 64"><path fill="#52a04f" d="M34,21.236c0-1.37-0.774-2.623-2-3.236l0,0v-2.342l-4.487-0.197L27,17h0
		c-2.362,0-4.431,1.581-5.052,3.859l-1.847,12.462C20.034,33.773,20,34.229,20,34.686v0C20,39.83,24.17,44,29.314,44H35v18h9v-1
		c0-1.657-1.343-3-3-3h0V44v0c0-3.866-3.134-7-7-7h0V21.236z"/><path fill="#6db569" d="M43.816,60c-0.413-1.163-1.512-2-2.816-2V44c0-3.866-3.134-7-7-7V21.236c0-1.37-0.774-2.623-2-3.236
		v-2.342l-4.487-0.197L27,17c-0.915,0-1.782,0.242-2.542,0.665c-0.211,0.373-0.393,0.766-0.51,1.194l-1.847,12.462
		C22.034,31.773,22,32.229,22,32.686C22,37.83,26.17,42,31.314,42H37v18H43.816z"/><path fill="#d69578" d="M29.797,19c0.771,0,1.51-0.306,2.055-0.851L32,18v-2.342l-4.487-0.197L27,17l0.197,0.393
		C27.689,18.378,28.696,19,29.797,19z"/><path fill="#1d549c" d="M41,58V44c0-3.866-3.134-7-7-7H20.301c1.03,4.022,4.669,7,9.012,7H35v18h9v-1
		C44,59.343,42.657,58,41,58z"/><path fill="#2b6bb2" d="M43.816,60c-0.413-1.163-1.512-2-2.816-2V44c0-3.866-3.134-7-7-7H23.063c1.556,2.97,4.664,5,8.25,5
		H37v18H43.816z"/><path fill="#e8a989" d="M30,2L30,2c-3.314,0-6,2.686-6,6v2c0,3.314,2.686,6,6,6h0c3.314,0,6-2.686,6-6V8
		C36,4.686,33.314,2,30,2z"/><path fill="#f6bb95" d="M30,2c-1.402,0-2.688,0.485-3.71,1.29C25.485,4.312,25,5.598,25,7v2c0,3.314,2.686,6,6,6
		c1.402,0,2.688-0.485,3.71-1.29C35.515,12.688,36,11.402,36,10V8C36,4.686,33.314,2,30,2z"/><path fill="#3f4042" d="M29,8h7c0-3.314-2.686-6-6-6s-6,2.686-6,6v2c0,2.106,1.088,3.956,2.73,5.027L29,12L29,8z"/><path fill="#5a5b5d" d="M30,2c-1.402,0-2.688,0.485-3.71,1.29C25.485,4.312,25,5.598,25,7v2
		c0,2.035,1.015,3.829,2.564,4.914L29,12l0-4h7C36,4.686,33.314,2,30,2z"/><path fill="#52a04f" d="M34,22l-3,7l-4.292-2.146C25.661,26.331,25,25.261,25,24.09v0c0-1.707,1.384-3.09,3.09-3.09h0
		c0.605,0,1.209,0.06,1.802,0.178L34,22z"/><path fill="#f6bb95" d="M33.471,23.235L39,26v-9.5c0-1.381,1.119-2.5,2.5-2.5h0c1.381,0,2.5,1.119,2.5,2.5v10.375
		C44,29.153,42.153,31,39.875,31h0c-0.577,0-1.148-0.121-1.675-0.355l-6.64-2.951"/><path fill="#969696" d="M41,58h-6v4h9v-1C44,59.343,42.657,58,41,58z"/><path fill="#b5b5b5" d="M41,58h-4v4h7v-1C44,59.343,42.657,58,41,58z"/><path fill="#e8a989" d="M27.227,16.318L27,17l0.197,0.393c0.492,0.985,1.499,1.607,2.6,1.607
		c0.771,0,1.51-0.306,2.055-0.851L32,18v-1.349C31.374,16.873,30.702,17,30,17C28.999,17,28.057,16.751,27.227,16.318z"/></svg>